%TF.GenerationSoftware,KiCad,Pcbnew,(6.0.2)*%
%TF.CreationDate,2022-05-11T16:43:43-05:00*%
%TF.ProjectId,REF1329_Optimised,52454631-3332-4395-9f4f-7074696d6973,rev?*%
%TF.SameCoordinates,Original*%
%TF.FileFunction,Paste,Bot*%
%TF.FilePolarity,Positive*%
%FSLAX46Y46*%
G04 Gerber Fmt 4.6, Leading zero omitted, Abs format (unit mm)*
G04 Created by KiCad (PCBNEW (6.0.2)) date 2022-05-11 16:43:43*
%MOMM*%
%LPD*%
G01*
G04 APERTURE LIST*
%ADD10R,1.530000X9.000000*%
G04 APERTURE END LIST*
D10*
%TO.C,J5*%
X119067000Y-130450000D03*
X121585000Y-130464000D03*
X124110000Y-130452000D03*
X126637000Y-130446000D03*
X129156000Y-130460000D03*
X131675000Y-130446000D03*
X134198000Y-130435000D03*
X136717000Y-130421000D03*
X139236000Y-130449000D03*
X141764000Y-130449000D03*
X144289000Y-130440000D03*
X146810000Y-130432000D03*
X149334000Y-130416000D03*
X151854000Y-130389000D03*
X154374000Y-130401000D03*
X156893000Y-130387000D03*
X159411000Y-130453000D03*
X161935000Y-130447000D03*
X164461000Y-130437000D03*
X166979000Y-130433000D03*
X169499000Y-130418000D03*
X172018000Y-130418000D03*
X174548000Y-130402000D03*
X177074000Y-130401000D03*
X179593000Y-130460000D03*
%TD*%
%TO.C,J3*%
X179549000Y-69091000D03*
X177031000Y-69077000D03*
X174506000Y-69089000D03*
X171979000Y-69095000D03*
X169460000Y-69081000D03*
X166941000Y-69095000D03*
X164418000Y-69106000D03*
X161899000Y-69120000D03*
X159380000Y-69092000D03*
X156852000Y-69092000D03*
X154327000Y-69101000D03*
X151806000Y-69109000D03*
X149282000Y-69125000D03*
X146762000Y-69152000D03*
X144242000Y-69140000D03*
X141723000Y-69154000D03*
X139205000Y-69088000D03*
X136681000Y-69094000D03*
X134155000Y-69104000D03*
X131637000Y-69108000D03*
X129117000Y-69123000D03*
X126598000Y-69123000D03*
X124068000Y-69139000D03*
X121542000Y-69140000D03*
X119023000Y-69081000D03*
%TD*%
M02*
