M48
; DRILL file {KiCad (6.0.2)} date Sun Oct 23 12:21:38 2022
; FORMAT={-:-/ absolute / metric / decimal}
; #@! TF.CreationDate,2022-10-23T12:21:38-05:00
; #@! TF.GenerationSoftware,Kicad,Pcbnew,(6.0.2)
; #@! TF.FileFunction,Plated,1,2,PTH
FMAT,2
METRIC
; #@! TA.AperFunction,Plated,PTH,ViaDrill
T1C0.400
; #@! TA.AperFunction,Plated,PTH,ComponentDrill
T2C0.800
; #@! TA.AperFunction,Plated,PTH,ComponentDrill
T3C1.000
; #@! TA.AperFunction,Plated,PTH,ComponentDrill
T4C4.450
%
G90
G05
T1
X101.18Y-87.596
X101.745Y-111.124
X103.329Y-100.949
X105.232Y-83.783
X105.232Y-107.541
X105.367Y-78.665
X105.398Y-112.511
X105.888Y-108.543
X105.96Y-85.015
X106.105Y-94.966
X106.137Y-110.559
X106.183Y-93.277
X106.629Y-112.498
X106.887Y-92.49
X107.9Y-92.475
X107.954Y-112.317
X108.756Y-79.937
X108.875Y-78.743
X108.897Y-117.811
X108.916Y-92.473
X109.273Y-86.045
X109.539Y-112.523
X109.725Y-74.391
X109.916Y-92.473
X110.492Y-111.989
X110.501Y-108.941
X110.571Y-83.783
X110.942Y-88.994
X110.951Y-107.767
X111.082Y-85.015
X111.163Y-105.221
X111.951Y-103.465
X112.437Y-88.513
X112.939Y-106.001
X112.981Y-83.542
X112.989Y-82.508
X113.037Y-81.493
X113.09Y-104.544
X113.166Y-79.034
X113.19Y-107.797
X113.34Y-97.488
X113.556Y-71.339
X115.114Y-95.584
X115.941Y-71.017
X116.193Y-101.058
X116.751Y-88.893
X116.777Y-83.951
X116.787Y-78.822
X116.978Y-87.892
X117.149Y-116.124
X117.878Y-84.944
X117.898Y-86.01
X119.169Y-125.342
X119.541Y-76.873
X119.629Y-71.44
X119.773Y-97.077
X119.891Y-78.249
X120.005Y-110.73
X120.015Y-106.124
X120.861Y-103.874
X120.871Y-108.848
X121.104Y-81.549
X121.236Y-99.649
X121.502Y-101.099
X121.587Y-102.549
X123.059Y-73.065
X123.149Y-118.986
X123.153Y-85.76
X123.603Y-87.135
X123.806Y-71.831
X124.321Y-72.973
X124.352Y-108.073
X124.404Y-103.217
X124.523Y-104.686
X124.566Y-105.941
X124.788Y-81.77
X125.509Y-103.621
X126.008Y-114.733
X126.896Y-91.114
X126.944Y-113.848
X127.065Y-88.916
X127.569Y-92.882
X127.622Y-122.357
X127.773Y-82.308
X127.87Y-114.647
X128.283Y-88.01
X128.291Y-97.22
X128.42Y-121.474
X129.902Y-120.796
X130.221Y-115.377
X130.823Y-95.686
X130.995Y-121.493
X131.634Y-71.48
X131.68Y-125.316
X132.368Y-98.149
X132.604Y-116.987
X133.707Y-120.58
X134.446Y-116.956
X134.882Y-109.848
X135.338Y-112.823
X135.595Y-79.929
X136.032Y-103.683
X136.13Y-81.42
X136.971Y-117.073
X138.709Y-117.118
X139.195Y-71.445
X139.241Y-125.313
X139.384Y-98.088
X139.512Y-110.913
X141.546Y-75.874
X141.723Y-71.438
X142.547Y-120.586
X142.981Y-88.37
X143.351Y-124.545
X143.42Y-73.606
X144.19Y-121.344
X144.645Y-108.782
X145.127Y-122.322
X148.546Y-102.986
X148.546Y-107.057
X148.546Y-111.848
X149.211Y-108.779
X149.721Y-107.848
X150.356Y-122.712
X150.85Y-88.906
X151.579Y-75.092
X151.802Y-124.837
X152.415Y-71.602
X154.928Y-120.465
X155.928Y-120.05
X157.243Y-123.313
X157.454Y-71.764
X157.788Y-125.256
X159.526Y-71.443
X159.572Y-125.347
X159.852Y-120.102
X161.261Y-71.577
X161.368Y-116.589
X161.657Y-125.339
X163.801Y-111.735
X165.136Y-72.236
X165.189Y-122.987
X166.575Y-120.759
X166.575Y-125.326
X166.739Y-72.519
X168.257Y-72.967
X170.242Y-125.139
X171.63Y-110.822
X171.879Y-71.48
X174.201Y-107.983
X174.201Y-121.935
X174.24Y-125.246
X174.52Y-123.062
X174.845Y-73.91
X175.189Y-83.11
X175.894Y-94.752
X175.983Y-71.409
X176.091Y-110.356
X176.692Y-124.916
X177.15Y-94.337
X177.45Y-102.241
X177.949Y-89.528
X178.817Y-71.444
X179.124Y-97.439
X179.125Y-125.123
X181.738Y-111.18
X181.813Y-119.201
X182.886Y-109.49
X183.22Y-88.84
X184.483Y-108.966
X185.807Y-76.882
X186.121Y-111.452
X186.925Y-116.624
X187.094Y-115.16
X187.124Y-77.932
X190.75Y-119.627
X191.068Y-80.595
X193.464Y-75.128
T2
X168.639Y-75.513
X168.639Y-78.052
X168.639Y-80.593
X168.639Y-83.132
X168.639Y-85.672
X173.719Y-75.513
X173.719Y-78.052
X173.719Y-80.593
X173.719Y-83.132
X173.719Y-85.672
T3
X132.826Y-91.392
X134.211Y-94.232
X135.596Y-91.392
X136.981Y-94.232
X138.366Y-91.392
X139.751Y-94.232
X141.136Y-91.392
X142.521Y-94.232
X143.906Y-91.392
X145.291Y-94.232
X146.676Y-91.392
X148.061Y-94.232
X149.446Y-91.392
X150.831Y-94.232
X152.216Y-91.392
X153.601Y-94.232
X154.986Y-91.392
X156.371Y-94.232
X157.756Y-91.392
X159.141Y-94.232
X160.526Y-91.392
X161.911Y-94.232
X163.296Y-91.392
X164.681Y-94.232
X166.066Y-91.392
X193.087Y-95.977
X193.126Y-89.627
X197.572Y-95.98
X197.611Y-89.629
T4
X104.544Y-121.691
X108.395Y-67.879
X190.826Y-67.918
X194.001Y-121.736
T0
M30
