%TF.GenerationSoftware,KiCad,Pcbnew,(6.0.2)*%
%TF.CreationDate,2022-10-23T12:21:37-05:00*%
%TF.ProjectId,REF1329_Optimized,52454631-3332-4395-9f4f-7074696d697a,rev?*%
%TF.SameCoordinates,Original*%
%TF.FileFunction,Paste,Bot*%
%TF.FilePolarity,Positive*%
%FSLAX46Y46*%
G04 Gerber Fmt 4.6, Leading zero omitted, Abs format (unit mm)*
G04 Created by KiCad (PCBNEW (6.0.2)) date 2022-10-23 12:21:37*
%MOMM*%
%LPD*%
G01*
G04 APERTURE LIST*
%ADD10R,1.530000X9.000000*%
%ADD11R,1.530000X6.250000*%
G04 APERTURE END LIST*
D10*
%TO.C,J5*%
X119072000Y-130450000D03*
X121590000Y-130464000D03*
X124115000Y-130452000D03*
X126642000Y-130446000D03*
X129161000Y-130460000D03*
X131680000Y-130446000D03*
X134203000Y-130435000D03*
X136722000Y-130421000D03*
X139241000Y-130449000D03*
X141769000Y-130449000D03*
X144294000Y-130440000D03*
X146815000Y-130432000D03*
X149339000Y-130416000D03*
X151859000Y-130389000D03*
X154379000Y-130401000D03*
X156898000Y-130387000D03*
X159416000Y-130453000D03*
X161940000Y-130447000D03*
X164466000Y-130437000D03*
X166984000Y-130433000D03*
X169504000Y-130418000D03*
X172023000Y-130418000D03*
X174553000Y-130402000D03*
X177079000Y-130401000D03*
X179598000Y-130460000D03*
%TD*%
D11*
%TO.C,J3*%
X119026000Y-67712000D03*
X121544000Y-67712000D03*
X124069000Y-67712000D03*
X126596000Y-67712000D03*
X129115000Y-67712000D03*
X131634000Y-67712000D03*
X134157000Y-67712000D03*
X136676000Y-67712000D03*
X139195000Y-67712000D03*
X141723000Y-67712000D03*
X144248000Y-67712000D03*
X146769000Y-67712000D03*
X149293000Y-67712000D03*
X151813000Y-67712000D03*
X154333000Y-67712000D03*
X156852000Y-67712000D03*
X159370000Y-67712000D03*
X161894000Y-67712000D03*
X164420000Y-67712000D03*
X166938000Y-67712000D03*
X169458000Y-67712000D03*
X171977000Y-67712000D03*
X174507000Y-67712000D03*
X177033000Y-67712000D03*
X179552000Y-67712000D03*
%TD*%
M02*
