%TF.GenerationSoftware,KiCad,Pcbnew,(6.0.2)*%
%TF.CreationDate,2022-05-11T16:43:43-05:00*%
%TF.ProjectId,REF1329_Optimised,52454631-3332-4395-9f4f-7074696d6973,rev?*%
%TF.SameCoordinates,Original*%
%TF.FileFunction,Soldermask,Bot*%
%TF.FilePolarity,Negative*%
%FSLAX46Y46*%
G04 Gerber Fmt 4.6, Leading zero omitted, Abs format (unit mm)*
G04 Created by KiCad (PCBNEW (6.0.2)) date 2022-05-11 16:43:43*
%MOMM*%
%LPD*%
G01*
G04 APERTURE LIST*
%ADD10C,0.000000*%
%ADD11C,2.340000*%
%ADD12C,0.795000*%
%ADD13C,1.600000*%
%ADD14R,1.600000X1.600000*%
%ADD15R,1.590000X1.590000*%
%ADD16R,1.530000X9.000000*%
G04 APERTURE END LIST*
D10*
G36*
X127412200Y-134946700D02*
G01*
X125882200Y-134946700D01*
X125882200Y-125946700D01*
X127412200Y-125946700D01*
X127412200Y-134946700D01*
G37*
G36*
X157673200Y-134885700D02*
G01*
X156143200Y-134885700D01*
X156143200Y-125885700D01*
X157673200Y-125885700D01*
X157673200Y-134885700D01*
G37*
G36*
X162716200Y-134948700D02*
G01*
X161186200Y-134948700D01*
X161186200Y-125948700D01*
X162716200Y-125948700D01*
X162716200Y-134948700D01*
G37*
G36*
X137499200Y-134932700D02*
G01*
X135969200Y-134932700D01*
X135969200Y-125932700D01*
X137499200Y-125932700D01*
X137499200Y-134932700D01*
G37*
G36*
X175325200Y-134898700D02*
G01*
X173795200Y-134898700D01*
X173795200Y-125898700D01*
X175325200Y-125898700D01*
X175325200Y-134898700D01*
G37*
G36*
X160194200Y-134953700D02*
G01*
X158664200Y-134953700D01*
X158664200Y-125953700D01*
X160194200Y-125953700D01*
X160194200Y-134953700D01*
G37*
G36*
X177847200Y-134893700D02*
G01*
X176317200Y-134893700D01*
X176317200Y-125893700D01*
X177847200Y-125893700D01*
X177847200Y-134893700D01*
G37*
D11*
X191999000Y-67920400D02*
G75*
G03*
X191999000Y-67920400I-1170000J0D01*
G01*
D10*
G36*
X142542200Y-134940700D02*
G01*
X141012200Y-134940700D01*
X141012200Y-125940700D01*
X142542200Y-125940700D01*
X142542200Y-134940700D01*
G37*
G36*
X193925800Y-90424500D02*
G01*
X192335800Y-90424500D01*
X192335800Y-88834500D01*
X193925800Y-88834500D01*
X193925800Y-90424500D01*
G37*
D11*
X109568000Y-67880700D02*
G75*
G03*
X109568000Y-67880700I-1170000J0D01*
G01*
D10*
G36*
X122368200Y-134956700D02*
G01*
X120838200Y-134956700D01*
X120838200Y-125956700D01*
X122368200Y-125956700D01*
X122368200Y-134956700D01*
G37*
D11*
X105718300Y-121696900D02*
G75*
G03*
X105718300Y-121696900I-1170000J0D01*
G01*
D10*
G36*
X155151200Y-134890700D02*
G01*
X153621200Y-134890700D01*
X153621200Y-125890700D01*
X155151200Y-125890700D01*
X155151200Y-134890700D01*
G37*
D12*
X169041100Y-80580700D02*
G75*
G03*
X169041100Y-80580700I-397500J0D01*
G01*
X174121100Y-75500700D02*
G75*
G03*
X174121100Y-75500700I-397500J0D01*
G01*
D10*
G36*
X167761200Y-134933700D02*
G01*
X166231200Y-134933700D01*
X166231200Y-125933700D01*
X167761200Y-125933700D01*
X167761200Y-134933700D01*
G37*
G36*
X134977200Y-134937700D02*
G01*
X133447200Y-134937700D01*
X133447200Y-125937700D01*
X134977200Y-125937700D01*
X134977200Y-134937700D01*
G37*
G36*
X132456200Y-134947700D02*
G01*
X130926200Y-134947700D01*
X130926200Y-125947700D01*
X132456200Y-125947700D01*
X132456200Y-134947700D01*
G37*
G36*
X129933200Y-134952700D02*
G01*
X128403200Y-134952700D01*
X128403200Y-125952700D01*
X129933200Y-125952700D01*
X129933200Y-134952700D01*
G37*
G36*
X198410500Y-90424500D02*
G01*
X196820500Y-90424500D01*
X196820500Y-88834500D01*
X198410500Y-88834500D01*
X198410500Y-90424500D01*
G37*
G36*
X145064200Y-134930700D02*
G01*
X143534200Y-134930700D01*
X143534200Y-125930700D01*
X145064200Y-125930700D01*
X145064200Y-134930700D01*
G37*
D11*
X195174000Y-121736600D02*
G75*
G03*
X195174000Y-121736600I-1170000J0D01*
G01*
D12*
X174121100Y-80580700D02*
G75*
G03*
X174121100Y-80580700I-397500J0D01*
G01*
D10*
G36*
X152629200Y-134900700D02*
G01*
X151099200Y-134900700D01*
X151099200Y-125900700D01*
X152629200Y-125900700D01*
X152629200Y-134900700D01*
G37*
G36*
X180369200Y-134952700D02*
G01*
X178839200Y-134952700D01*
X178839200Y-125952700D01*
X180369200Y-125952700D01*
X180369200Y-134952700D01*
G37*
G36*
X150107200Y-134905700D02*
G01*
X148577200Y-134905700D01*
X148577200Y-125905700D01*
X150107200Y-125905700D01*
X150107200Y-134905700D01*
G37*
D12*
X174121100Y-83120700D02*
G75*
G03*
X174121100Y-83120700I-397500J0D01*
G01*
D10*
G36*
X119845200Y-134958700D02*
G01*
X118315200Y-134958700D01*
X118315200Y-125958700D01*
X119845200Y-125958700D01*
X119845200Y-134958700D01*
G37*
D12*
X169041100Y-83120700D02*
G75*
G03*
X169041100Y-83120700I-397500J0D01*
G01*
D10*
G36*
X147586200Y-134925700D02*
G01*
X146056200Y-134925700D01*
X146056200Y-125925700D01*
X147586200Y-125925700D01*
X147586200Y-134925700D01*
G37*
D12*
X174121100Y-85660700D02*
G75*
G03*
X174121100Y-85660700I-397500J0D01*
G01*
D10*
G36*
X172803200Y-134908700D02*
G01*
X171273200Y-134908700D01*
X171273200Y-125908700D01*
X172803200Y-125908700D01*
X172803200Y-134908700D01*
G37*
D12*
X174121100Y-78040700D02*
G75*
G03*
X174121100Y-78040700I-397500J0D01*
G01*
D10*
G36*
X124889200Y-134951700D02*
G01*
X123359200Y-134951700D01*
X123359200Y-125951700D01*
X124889200Y-125951700D01*
X124889200Y-134951700D01*
G37*
D12*
X169041100Y-75500700D02*
G75*
G03*
X169041100Y-75500700I-397500J0D01*
G01*
D10*
G36*
X140020200Y-134945700D02*
G01*
X138490200Y-134945700D01*
X138490200Y-125945700D01*
X140020200Y-125945700D01*
X140020200Y-134945700D01*
G37*
G36*
X198370800Y-96774500D02*
G01*
X196780800Y-96774500D01*
X196780800Y-95184500D01*
X198370800Y-95184500D01*
X198370800Y-96774500D01*
G37*
G36*
X165238200Y-134938700D02*
G01*
X163708200Y-134938700D01*
X163708200Y-125938700D01*
X165238200Y-125938700D01*
X165238200Y-134938700D01*
G37*
G36*
X193886100Y-96774500D02*
G01*
X192296100Y-96774500D01*
X192296100Y-95184500D01*
X193886100Y-95184500D01*
X193886100Y-96774500D01*
G37*
D12*
X169041100Y-85660700D02*
G75*
G03*
X169041100Y-85660700I-397500J0D01*
G01*
D10*
G36*
X170281200Y-134913700D02*
G01*
X168751200Y-134913700D01*
X168751200Y-125913700D01*
X170281200Y-125913700D01*
X170281200Y-134913700D01*
G37*
D12*
X169041100Y-78040700D02*
G75*
G03*
X169041100Y-78040700I-397500J0D01*
G01*
D13*
%TO.C,J1*%
X134211000Y-94231700D03*
X136981000Y-94231700D03*
X139751000Y-94231700D03*
X142521000Y-94231700D03*
X145291000Y-94231700D03*
X148061000Y-94231700D03*
X150831000Y-94231700D03*
X153601000Y-94231700D03*
X156371000Y-94231700D03*
X159141000Y-94231700D03*
X161911000Y-94231700D03*
X164681000Y-94231700D03*
X132826000Y-91391700D03*
X135596000Y-91391700D03*
X138366000Y-91391700D03*
X141136000Y-91391700D03*
X143906000Y-91391700D03*
X146676000Y-91391700D03*
X149446000Y-91391700D03*
X152216000Y-91391700D03*
X154986000Y-91391700D03*
X157756000Y-91391700D03*
X160526000Y-91391700D03*
X163296000Y-91391700D03*
D14*
X166066000Y-91391700D03*
%TD*%
D15*
%TO.C,SW1*%
X193086500Y-95977500D03*
X193126500Y-89627500D03*
X197572500Y-95980500D03*
X197611500Y-89628500D03*
%TD*%
D16*
%TO.C,J5*%
X119067000Y-130450000D03*
X121585000Y-130464000D03*
X124110000Y-130452000D03*
X126637000Y-130446000D03*
X129156000Y-130460000D03*
X131675000Y-130446000D03*
X134198000Y-130435000D03*
X136717000Y-130421000D03*
X139236000Y-130449000D03*
X141764000Y-130449000D03*
X144289000Y-130440000D03*
X146810000Y-130432000D03*
X149334000Y-130416000D03*
X151854000Y-130389000D03*
X154374000Y-130401000D03*
X156893000Y-130387000D03*
X159411000Y-130453000D03*
X161935000Y-130447000D03*
X164461000Y-130437000D03*
X166979000Y-130433000D03*
X169499000Y-130418000D03*
X172018000Y-130418000D03*
X174548000Y-130402000D03*
X177074000Y-130401000D03*
X179593000Y-130460000D03*
%TD*%
D14*
%TO.C,U3*%
X168639500Y-75512500D03*
D13*
X168639500Y-78052500D03*
X168639500Y-80592500D03*
X168639500Y-83132500D03*
X168639500Y-85672500D03*
X173719500Y-85672500D03*
X173719500Y-83132500D03*
X173719500Y-80592500D03*
X173719500Y-78052500D03*
X173719500Y-75512500D03*
%TD*%
D16*
%TO.C,J3*%
X179549000Y-69091000D03*
X177031000Y-69077000D03*
X174506000Y-69089000D03*
X171979000Y-69095000D03*
X169460000Y-69081000D03*
X166941000Y-69095000D03*
X164418000Y-69106000D03*
X161899000Y-69120000D03*
X159380000Y-69092000D03*
X156852000Y-69092000D03*
X154327000Y-69101000D03*
X151806000Y-69109000D03*
X149282000Y-69125000D03*
X146762000Y-69152000D03*
X144242000Y-69140000D03*
X141723000Y-69154000D03*
X139205000Y-69088000D03*
X136681000Y-69094000D03*
X134155000Y-69104000D03*
X131637000Y-69108000D03*
X129117000Y-69123000D03*
X126598000Y-69123000D03*
X124068000Y-69139000D03*
X121542000Y-69140000D03*
X119023000Y-69081000D03*
%TD*%
M02*
