%TF.GenerationSoftware,KiCad,Pcbnew,(6.0.2)*%
%TF.CreationDate,2022-10-23T12:11:52-05:00*%
%TF.ProjectId,REF1329_Optimized,52454631-3332-4395-9f4f-7074696d697a,rev?*%
%TF.SameCoordinates,Original*%
%TF.FileFunction,Soldermask,Top*%
%TF.FilePolarity,Negative*%
%FSLAX46Y46*%
G04 Gerber Fmt 4.6, Leading zero omitted, Abs format (unit mm)*
G04 Created by KiCad (PCBNEW (6.0.2)) date 2022-10-23 12:11:52*
%MOMM*%
%LPD*%
G01*
G04 APERTURE LIST*
%ADD10C,0.000000*%
%ADD11C,0.795000*%
%ADD12R,1.530000X6.250000*%
%ADD13R,1.310000X1.390000*%
%ADD14R,1.710000X1.630000*%
%ADD15R,1.590000X1.590000*%
%ADD16C,4.680000*%
%ADD17R,1.600000X1.600000*%
%ADD18C,1.600000*%
%ADD19R,1.700000X1.630000*%
%ADD20R,0.700000X2.270000*%
%ADD21R,2.270000X0.700000*%
%ADD22R,2.000000X0.700000*%
%ADD23R,1.530000X9.000000*%
%ADD24R,0.600000X2.250000*%
%ADD25R,2.250000X0.600000*%
G04 APERTURE END LIST*
D10*
G36*
X110160800Y-73775700D02*
G01*
X108460800Y-73775700D01*
X108460800Y-72145700D01*
X110160800Y-72145700D01*
X110160800Y-73775700D01*
G37*
G36*
X180595000Y-113395100D02*
G01*
X178595000Y-113395100D01*
X178595000Y-112695100D01*
X180595000Y-112695100D01*
X180595000Y-113395100D01*
G37*
G36*
X195440500Y-81605400D02*
G01*
X193440500Y-81605400D01*
X193440500Y-80905400D01*
X195440500Y-80905400D01*
X195440500Y-81605400D01*
G37*
G36*
X125922400Y-101971000D02*
G01*
X125322400Y-101971000D01*
X125322400Y-99751000D01*
X125922400Y-99751000D01*
X125922400Y-101971000D01*
G37*
G36*
X180597400Y-114665100D02*
G01*
X178597400Y-114665100D01*
X178597400Y-113965100D01*
X180597400Y-113965100D01*
X180597400Y-114665100D01*
G37*
G36*
X190122400Y-121015100D02*
G01*
X188122400Y-121015100D01*
X188122400Y-120315100D01*
X190122400Y-120315100D01*
X190122400Y-121015100D01*
G37*
G36*
X195440500Y-84185100D02*
G01*
X193440500Y-84185100D01*
X193440500Y-83485100D01*
X195440500Y-83485100D01*
X195440500Y-84185100D01*
G37*
G36*
X182944000Y-81275700D02*
G01*
X181634000Y-81275700D01*
X181634000Y-79885700D01*
X182944000Y-79885700D01*
X182944000Y-81275700D01*
G37*
G36*
X180676800Y-103235100D02*
G01*
X178676800Y-103235100D01*
X178676800Y-102535100D01*
X180676800Y-102535100D01*
X180676800Y-103235100D01*
G37*
G36*
X180597400Y-122285100D02*
G01*
X178597400Y-122285100D01*
X178597400Y-121585100D01*
X180597400Y-121585100D01*
X180597400Y-122285100D01*
G37*
D11*
X169041100Y-85660700D02*
G75*
G03*
X169041100Y-85660700I-397500J0D01*
G01*
D10*
G36*
X182944000Y-77465700D02*
G01*
X181634000Y-77465700D01*
X181634000Y-76075700D01*
X182944000Y-76075700D01*
X182944000Y-77465700D01*
G37*
G36*
X189725500Y-76485700D02*
G01*
X187725500Y-76485700D01*
X187725500Y-75785700D01*
X189725500Y-75785700D01*
X189725500Y-76485700D01*
G37*
G36*
X195440500Y-82915100D02*
G01*
X193440500Y-82915100D01*
X193440500Y-82215100D01*
X195440500Y-82215100D01*
X195440500Y-82915100D01*
G37*
G36*
X188583300Y-73815400D02*
G01*
X186883300Y-73815400D01*
X186883300Y-72185400D01*
X188583300Y-72185400D01*
X188583300Y-73815400D01*
G37*
G36*
X193886100Y-96774500D02*
G01*
X192296100Y-96774500D01*
X192296100Y-95184500D01*
X193886100Y-95184500D01*
X193886100Y-96774500D01*
G37*
D11*
X174121100Y-80580700D02*
G75*
G03*
X174121100Y-80580700I-397500J0D01*
G01*
D10*
G36*
X182749300Y-90960400D02*
G01*
X181049300Y-90960400D01*
X181049300Y-89330400D01*
X182749300Y-89330400D01*
X182749300Y-90960400D01*
G37*
G36*
X180676800Y-100695100D02*
G01*
X178676800Y-100695100D01*
X178676800Y-99995100D01*
X180676800Y-99995100D01*
X180676800Y-100695100D01*
G37*
G36*
X191798000Y-73815400D02*
G01*
X190098000Y-73815400D01*
X190098000Y-72185400D01*
X191798000Y-72185400D01*
X191798000Y-73815400D01*
G37*
G36*
X182944000Y-79370700D02*
G01*
X181634000Y-79370700D01*
X181634000Y-77980700D01*
X182944000Y-77980700D01*
X182944000Y-79370700D01*
G37*
G36*
X189725500Y-81605400D02*
G01*
X187725500Y-81605400D01*
X187725500Y-80905400D01*
X189725500Y-80905400D01*
X189725500Y-81605400D01*
G37*
G36*
X182944000Y-75560700D02*
G01*
X181634000Y-75560700D01*
X181634000Y-74170700D01*
X182944000Y-74170700D01*
X182944000Y-75560700D01*
G37*
G36*
X182944000Y-83180700D02*
G01*
X181634000Y-83180700D01*
X181634000Y-81790700D01*
X182944000Y-81790700D01*
X182944000Y-83180700D01*
G37*
G36*
X180597400Y-115935100D02*
G01*
X178597400Y-115935100D01*
X178597400Y-115235100D01*
X180597400Y-115235100D01*
X180597400Y-115935100D01*
G37*
G36*
X180595000Y-112085400D02*
G01*
X178595000Y-112085400D01*
X178595000Y-111385400D01*
X180595000Y-111385400D01*
X180595000Y-112085400D01*
G37*
G36*
X180597400Y-113395100D02*
G01*
X178597400Y-113395100D01*
X178597400Y-112695100D01*
X180597400Y-112695100D01*
X180597400Y-113395100D01*
G37*
G36*
X180597400Y-118514800D02*
G01*
X178597400Y-118514800D01*
X178597400Y-117814800D01*
X180597400Y-117814800D01*
X180597400Y-118514800D01*
G37*
G36*
X161635500Y-111915400D02*
G01*
X159935500Y-111915400D01*
X159935500Y-110285400D01*
X161635500Y-110285400D01*
X161635500Y-111915400D01*
G37*
G36*
X195440500Y-79065400D02*
G01*
X193440500Y-79065400D01*
X193440500Y-78365400D01*
X195440500Y-78365400D01*
X195440500Y-79065400D01*
G37*
G36*
X155642700Y-111915400D02*
G01*
X153942700Y-111915400D01*
X153942700Y-110285400D01*
X155642700Y-110285400D01*
X155642700Y-111915400D01*
G37*
G36*
X182944000Y-73655700D02*
G01*
X181634000Y-73655700D01*
X181634000Y-72265700D01*
X182944000Y-72265700D01*
X182944000Y-73655700D01*
G37*
D11*
X169041100Y-75500700D02*
G75*
G03*
X169041100Y-75500700I-397500J0D01*
G01*
D10*
G36*
X186352100Y-100695100D02*
G01*
X184352100Y-100695100D01*
X184352100Y-99995100D01*
X186352100Y-99995100D01*
X186352100Y-100695100D01*
G37*
D11*
X174121100Y-75500700D02*
G75*
G03*
X174121100Y-75500700I-397500J0D01*
G01*
D10*
G36*
X180595000Y-105775100D02*
G01*
X178595000Y-105775100D01*
X178595000Y-105075100D01*
X180595000Y-105075100D01*
X180595000Y-105775100D01*
G37*
G36*
X186352100Y-108275400D02*
G01*
X184352100Y-108275400D01*
X184352100Y-107575400D01*
X186352100Y-107575400D01*
X186352100Y-108275400D01*
G37*
G36*
X190122400Y-118514800D02*
G01*
X188122400Y-118514800D01*
X188122400Y-117814800D01*
X190122400Y-117814800D01*
X190122400Y-118514800D01*
G37*
G36*
X180597400Y-112085400D02*
G01*
X178597400Y-112085400D01*
X178597400Y-111385400D01*
X180597400Y-111385400D01*
X180597400Y-112085400D01*
G37*
G36*
X182944000Y-73655700D02*
G01*
X181634000Y-73655700D01*
X181634000Y-72265700D01*
X182944000Y-72265700D01*
X182944000Y-73655700D01*
G37*
D11*
X169041100Y-83120700D02*
G75*
G03*
X169041100Y-83120700I-397500J0D01*
G01*
D10*
G36*
X182944000Y-81275700D02*
G01*
X181634000Y-81275700D01*
X181634000Y-79885700D01*
X182944000Y-79885700D01*
X182944000Y-81275700D01*
G37*
G36*
X190122400Y-115935100D02*
G01*
X188122400Y-115935100D01*
X188122400Y-115235100D01*
X190122400Y-115235100D01*
X190122400Y-115935100D01*
G37*
D11*
X169041100Y-78040700D02*
G75*
G03*
X169041100Y-78040700I-397500J0D01*
G01*
D10*
G36*
X182944000Y-83180700D02*
G01*
X181634000Y-83180700D01*
X181634000Y-81790700D01*
X182944000Y-81790700D01*
X182944000Y-83180700D01*
G37*
G36*
X180676800Y-105775100D02*
G01*
X178676800Y-105775100D01*
X178676800Y-105075100D01*
X180676800Y-105075100D01*
X180676800Y-105775100D01*
G37*
G36*
X180597400Y-121015100D02*
G01*
X178597400Y-121015100D01*
X178597400Y-120315100D01*
X180597400Y-120315100D01*
X180597400Y-121015100D01*
G37*
G36*
X190122400Y-117205100D02*
G01*
X188122400Y-117205100D01*
X188122400Y-116505100D01*
X190122400Y-116505100D01*
X190122400Y-117205100D01*
G37*
G36*
X189725500Y-80375100D02*
G01*
X187725500Y-80375100D01*
X187725500Y-79675100D01*
X189725500Y-79675100D01*
X189725500Y-80375100D01*
G37*
G36*
X182944000Y-75560700D02*
G01*
X181634000Y-75560700D01*
X181634000Y-74170700D01*
X182944000Y-74170700D01*
X182944000Y-75560700D01*
G37*
G36*
X195440500Y-80375100D02*
G01*
X193440500Y-80375100D01*
X193440500Y-79675100D01*
X195440500Y-79675100D01*
X195440500Y-80375100D01*
G37*
G36*
X185964000Y-90960400D02*
G01*
X184264000Y-90960400D01*
X184264000Y-89330400D01*
X185964000Y-89330400D01*
X185964000Y-90960400D01*
G37*
G36*
X182944000Y-79370700D02*
G01*
X181634000Y-79370700D01*
X181634000Y-77980700D01*
X182944000Y-77980700D01*
X182944000Y-79370700D01*
G37*
G36*
X180595000Y-104505100D02*
G01*
X178595000Y-104505100D01*
X178595000Y-103805100D01*
X180595000Y-103805100D01*
X180595000Y-104505100D01*
G37*
D11*
X169041100Y-80580700D02*
G75*
G03*
X169041100Y-80580700I-397500J0D01*
G01*
D10*
G36*
X190122400Y-122285100D02*
G01*
X188122400Y-122285100D01*
X188122400Y-121585100D01*
X190122400Y-121585100D01*
X190122400Y-122285100D01*
G37*
G36*
X108136800Y-118940100D02*
G01*
X106436800Y-118940100D01*
X106436800Y-117310100D01*
X108136800Y-117310100D01*
X108136800Y-118940100D01*
G37*
D11*
X174121100Y-85660700D02*
G75*
G03*
X174121100Y-85660700I-397500J0D01*
G01*
D10*
G36*
X152428000Y-111915400D02*
G01*
X150728000Y-111915400D01*
X150728000Y-110285400D01*
X152428000Y-110285400D01*
X152428000Y-111915400D01*
G37*
G36*
X186352100Y-103235100D02*
G01*
X184352100Y-103235100D01*
X184352100Y-102535100D01*
X186352100Y-102535100D01*
X186352100Y-103235100D01*
G37*
G36*
X195440500Y-76485700D02*
G01*
X193440500Y-76485700D01*
X193440500Y-75785700D01*
X195440500Y-75785700D01*
X195440500Y-76485700D01*
G37*
G36*
X180676800Y-101925400D02*
G01*
X178676800Y-101925400D01*
X178676800Y-101225400D01*
X180676800Y-101225400D01*
X180676800Y-101925400D01*
G37*
G36*
X182944000Y-77465700D02*
G01*
X181634000Y-77465700D01*
X181634000Y-76075700D01*
X182944000Y-76075700D01*
X182944000Y-77465700D01*
G37*
G36*
X190122400Y-110815400D02*
G01*
X188122400Y-110815400D01*
X188122400Y-110115400D01*
X190122400Y-110115400D01*
X190122400Y-110815400D01*
G37*
D11*
X174121100Y-83120700D02*
G75*
G03*
X174121100Y-83120700I-397500J0D01*
G01*
D10*
G36*
X190122400Y-119745100D02*
G01*
X188122400Y-119745100D01*
X188122400Y-119045100D01*
X190122400Y-119045100D01*
X190122400Y-119745100D01*
G37*
G36*
X193925800Y-90424500D02*
G01*
X192335800Y-90424500D01*
X192335800Y-88834500D01*
X193925800Y-88834500D01*
X193925800Y-90424500D01*
G37*
G36*
X158420800Y-111915400D02*
G01*
X156720800Y-111915400D01*
X156720800Y-110285400D01*
X158420800Y-110285400D01*
X158420800Y-111915400D01*
G37*
G36*
X186352100Y-101925400D02*
G01*
X184352100Y-101925400D01*
X184352100Y-101225400D01*
X186352100Y-101225400D01*
X186352100Y-101925400D01*
G37*
G36*
X182944000Y-85125400D02*
G01*
X181634000Y-85125400D01*
X181634000Y-83735400D01*
X182944000Y-83735400D01*
X182944000Y-85125400D01*
G37*
G36*
X111351400Y-118940100D02*
G01*
X109651400Y-118940100D01*
X109651400Y-117310100D01*
X111351400Y-117310100D01*
X111351400Y-118940100D01*
G37*
G36*
X189725500Y-79065400D02*
G01*
X187725500Y-79065400D01*
X187725500Y-78365400D01*
X189725500Y-78365400D01*
X189725500Y-79065400D01*
G37*
G36*
X180676800Y-108275400D02*
G01*
X178676800Y-108275400D01*
X178676800Y-107575400D01*
X180676800Y-107575400D01*
X180676800Y-108275400D01*
G37*
G36*
X198410500Y-90424500D02*
G01*
X196820500Y-90424500D01*
X196820500Y-88834500D01*
X198410500Y-88834500D01*
X198410500Y-90424500D01*
G37*
G36*
X180597400Y-119745100D02*
G01*
X178597400Y-119745100D01*
X178597400Y-119045100D01*
X180597400Y-119045100D01*
X180597400Y-119745100D01*
G37*
G36*
X198370800Y-96774500D02*
G01*
X196780800Y-96774500D01*
X196780800Y-95184500D01*
X198370800Y-95184500D01*
X198370800Y-96774500D01*
G37*
G36*
X189725500Y-84185100D02*
G01*
X187725500Y-84185100D01*
X187725500Y-83485100D01*
X189725500Y-83485100D01*
X189725500Y-84185100D01*
G37*
G36*
X190122400Y-114665100D02*
G01*
X188122400Y-114665100D01*
X188122400Y-113965100D01*
X190122400Y-113965100D01*
X190122400Y-114665100D01*
G37*
G36*
X195440500Y-77795400D02*
G01*
X193440500Y-77795400D01*
X193440500Y-77095400D01*
X195440500Y-77095400D01*
X195440500Y-77795400D01*
G37*
G36*
X180595000Y-107005400D02*
G01*
X178595000Y-107005400D01*
X178595000Y-106305400D01*
X180595000Y-106305400D01*
X180595000Y-107005400D01*
G37*
G36*
X189725500Y-77795400D02*
G01*
X187725500Y-77795400D01*
X187725500Y-77095400D01*
X189725500Y-77095400D01*
X189725500Y-77795400D01*
G37*
G36*
X182944000Y-86990700D02*
G01*
X181634000Y-86990700D01*
X181634000Y-85600700D01*
X182944000Y-85600700D01*
X182944000Y-86990700D01*
G37*
G36*
X180597400Y-110815400D02*
G01*
X178597400Y-110815400D01*
X178597400Y-110115400D01*
X180597400Y-110115400D01*
X180597400Y-110815400D01*
G37*
G36*
X180676800Y-107005400D02*
G01*
X178676800Y-107005400D01*
X178676800Y-106305400D01*
X180676800Y-106305400D01*
X180676800Y-107005400D01*
G37*
G36*
X182944000Y-85125400D02*
G01*
X181634000Y-85125400D01*
X181634000Y-83735400D01*
X182944000Y-83735400D01*
X182944000Y-85125400D01*
G37*
G36*
X189725500Y-82915100D02*
G01*
X187725500Y-82915100D01*
X187725500Y-82215100D01*
X189725500Y-82215100D01*
X189725500Y-82915100D01*
G37*
D11*
X174121100Y-78040700D02*
G75*
G03*
X174121100Y-78040700I-397500J0D01*
G01*
D10*
G36*
X182944000Y-86990700D02*
G01*
X181634000Y-86990700D01*
X181634000Y-85600700D01*
X182944000Y-85600700D01*
X182944000Y-86990700D01*
G37*
G36*
X180597400Y-117205100D02*
G01*
X178597400Y-117205100D01*
X178597400Y-116505100D01*
X180597400Y-116505100D01*
X180597400Y-117205100D01*
G37*
G36*
X113375500Y-73775700D02*
G01*
X111675500Y-73775700D01*
X111675500Y-72145700D01*
X113375500Y-72145700D01*
X113375500Y-73775700D01*
G37*
G36*
X180676800Y-104505100D02*
G01*
X178676800Y-104505100D01*
X178676800Y-103805100D01*
X180676800Y-103805100D01*
X180676800Y-104505100D01*
G37*
D12*
%TO.C,J2*%
X119026000Y-67712000D03*
X121544000Y-67712000D03*
X124069000Y-67712000D03*
X126596000Y-67712000D03*
X129115000Y-67712000D03*
X131634000Y-67712000D03*
X134157000Y-67712000D03*
X136676000Y-67712000D03*
X139195000Y-67712000D03*
X141723000Y-67712000D03*
X144248000Y-67712000D03*
X146769000Y-67712000D03*
X149293000Y-67712000D03*
X151813000Y-67712000D03*
X154333000Y-67712000D03*
X156852000Y-67712000D03*
X159370000Y-67712000D03*
X161894000Y-67712000D03*
X164420000Y-67712000D03*
X166938000Y-67712000D03*
X169458000Y-67712000D03*
X171977000Y-67712000D03*
X174507000Y-67712000D03*
X177033000Y-67712000D03*
X179552000Y-67712000D03*
%TD*%
D13*
%TO.C,R5*%
X182632500Y-74866000D03*
X184418500Y-74867000D03*
%TD*%
D14*
%TO.C,R1*%
X157567000Y-111096900D03*
X160794000Y-111103900D03*
%TD*%
D13*
%TO.C,R4*%
X182632500Y-72961000D03*
X184418500Y-72962000D03*
%TD*%
D15*
%TO.C,SW1*%
X193086500Y-95977500D03*
X193126500Y-89627500D03*
X197572500Y-95980500D03*
X197611500Y-89628500D03*
%TD*%
D16*
%TO.C,Hole1*%
X108395000Y-67879000D03*
%TD*%
D13*
%TO.C,R8*%
X182632500Y-80578000D03*
X184418500Y-80579000D03*
%TD*%
D16*
%TO.C,Hole2*%
X104544000Y-121691000D03*
%TD*%
D17*
%TO.C,U3*%
X168639500Y-75512500D03*
D18*
X168639500Y-78052500D03*
X168639500Y-80592500D03*
X168639500Y-83132500D03*
X168639500Y-85672500D03*
X173719500Y-85672500D03*
X173719500Y-83132500D03*
X173719500Y-80592500D03*
X173719500Y-78052500D03*
X173719500Y-75512500D03*
%TD*%
D19*
%TO.C,C3*%
X151578400Y-111101100D03*
X154796400Y-111101100D03*
%TD*%
D20*
%TO.C,U2*%
X107900500Y-114257000D03*
X106629500Y-114256000D03*
X105398500Y-114259000D03*
D21*
X103493500Y-112355000D03*
X103494500Y-111124000D03*
X103497500Y-109812000D03*
X103494500Y-108543000D03*
X103495500Y-107311000D03*
X103494500Y-106004000D03*
X103493500Y-104733000D03*
X103494500Y-103465000D03*
X103494500Y-102193000D03*
D20*
X105440500Y-100287000D03*
X106671500Y-100285000D03*
X107937500Y-100288000D03*
X109248500Y-100285000D03*
X110519500Y-100287000D03*
X111829500Y-100289000D03*
X113099500Y-100288000D03*
D21*
X114924500Y-102194000D03*
X114924500Y-103462000D03*
X114924500Y-104733000D03*
X114923500Y-106001000D03*
X114926500Y-107312000D03*
X114924500Y-108544000D03*
X114923500Y-109815000D03*
X114925500Y-111122000D03*
X114922500Y-112352000D03*
D20*
X113059500Y-114257000D03*
X111789500Y-114257000D03*
X110479500Y-114258000D03*
X109210500Y-114259000D03*
%TD*%
D13*
%TO.C,R7*%
X182632500Y-78675000D03*
X184418500Y-78676000D03*
%TD*%
D22*
%TO.C,U5*%
X179597000Y-107983000D03*
X179597000Y-106711000D03*
X179596000Y-105403000D03*
X179595000Y-104177000D03*
X179599000Y-102865000D03*
X179597000Y-101595000D03*
X179597000Y-100284000D03*
X185310000Y-100286000D03*
X185312000Y-101596000D03*
X185311000Y-102868000D03*
X185311000Y-104179000D03*
X185318000Y-105405000D03*
X185312000Y-106719000D03*
X185313000Y-107986000D03*
%TD*%
D23*
%TO.C,J4*%
X119072000Y-130450000D03*
X121590000Y-130464000D03*
X124115000Y-130452000D03*
X126642000Y-130446000D03*
X129161000Y-130460000D03*
X131680000Y-130446000D03*
X134203000Y-130435000D03*
X136722000Y-130421000D03*
X139241000Y-130449000D03*
X141769000Y-130449000D03*
X144294000Y-130440000D03*
X146815000Y-130432000D03*
X149339000Y-130416000D03*
X151859000Y-130389000D03*
X154379000Y-130401000D03*
X156898000Y-130387000D03*
X159416000Y-130453000D03*
X161940000Y-130447000D03*
X164466000Y-130437000D03*
X166984000Y-130433000D03*
X169504000Y-130418000D03*
X172023000Y-130418000D03*
X174553000Y-130402000D03*
X177079000Y-130401000D03*
X179598000Y-130460000D03*
%TD*%
D19*
%TO.C,C1*%
X109306400Y-72963100D03*
X112524400Y-72963100D03*
%TD*%
D13*
%TO.C,R10*%
X182632500Y-84428000D03*
X184418500Y-84429000D03*
%TD*%
D16*
%TO.C,Hole3*%
X190826000Y-67918000D03*
%TD*%
D22*
%TO.C,U6*%
X179596000Y-121935000D03*
X179596000Y-120666000D03*
X179599000Y-119397000D03*
X179597000Y-118167000D03*
X179595000Y-116855000D03*
X179598000Y-115587000D03*
X179595000Y-114318000D03*
X179597000Y-113046000D03*
X179595000Y-111738000D03*
X179597000Y-110465000D03*
X189121000Y-110468000D03*
X189121000Y-111736000D03*
X189122000Y-113047000D03*
X189120000Y-114317000D03*
X189122000Y-115586000D03*
X189122000Y-116859000D03*
X189121000Y-118168000D03*
X189121000Y-119398000D03*
X189121000Y-120668000D03*
X189124000Y-121938000D03*
%TD*%
D14*
%TO.C,R2*%
X187733000Y-72995900D03*
X190960000Y-73002900D03*
%TD*%
D16*
%TO.C,Hole4*%
X194001000Y-121736000D03*
%TD*%
D20*
%TO.C,U1*%
X107900500Y-90729000D03*
X106629500Y-90728000D03*
X105398500Y-90731000D03*
D21*
X103493500Y-88827000D03*
X103494500Y-87596000D03*
X103497500Y-86284000D03*
X103494500Y-85015000D03*
X103495500Y-83783000D03*
X103494500Y-82476000D03*
X103493500Y-81205000D03*
X103494500Y-79937000D03*
X103494500Y-78665000D03*
D20*
X105440500Y-76759000D03*
X106671500Y-76757000D03*
X107937500Y-76760000D03*
X109248500Y-76757000D03*
X110519500Y-76759000D03*
X111829500Y-76761000D03*
X113099500Y-76760000D03*
D21*
X114924500Y-78666000D03*
X114924500Y-79934000D03*
X114924500Y-81205000D03*
X114923500Y-82473000D03*
X114926500Y-83784000D03*
X114924500Y-85016000D03*
X114923500Y-86287000D03*
X114925500Y-87594000D03*
X114922500Y-88824000D03*
D20*
X113059500Y-90729000D03*
X111789500Y-90729000D03*
X110479500Y-90730000D03*
X109210500Y-90731000D03*
%TD*%
D13*
%TO.C,R11*%
X182632500Y-86299000D03*
X184418500Y-86300000D03*
%TD*%
D14*
%TO.C,R3*%
X181888000Y-90139900D03*
X185115000Y-90146900D03*
%TD*%
D24*
%TO.C,U7*%
X125622000Y-118848000D03*
X126622000Y-118848000D03*
X127622000Y-118848000D03*
X128622000Y-118848000D03*
X129622000Y-118848000D03*
X130622000Y-118848000D03*
X131622000Y-118848000D03*
X132622000Y-118848000D03*
X133622000Y-118848000D03*
X134622000Y-118848000D03*
X135622000Y-118848000D03*
X136622000Y-118848000D03*
X137622000Y-118848000D03*
X138622000Y-118848000D03*
X139622000Y-118848000D03*
X140622000Y-118848000D03*
X141622000Y-118848000D03*
X142622000Y-118848000D03*
X143622000Y-118848000D03*
D25*
X146622000Y-115848000D03*
X146622000Y-114848000D03*
X146622000Y-113848000D03*
X146622000Y-112848000D03*
X146622000Y-111848000D03*
X146622000Y-110848000D03*
X146622000Y-109848000D03*
X146622000Y-108848000D03*
X146622000Y-107848000D03*
X146622000Y-106848000D03*
X146622000Y-105848000D03*
X146622000Y-104848000D03*
X146622000Y-103848000D03*
D24*
X143622000Y-100848000D03*
X142622000Y-100848000D03*
X141622000Y-100848000D03*
X140622000Y-100848000D03*
X139622000Y-100848000D03*
X138622000Y-100848000D03*
X137622000Y-100848000D03*
X136622000Y-100848000D03*
X135622000Y-100848000D03*
X134622000Y-100848000D03*
X133622000Y-100848000D03*
X132622000Y-100848000D03*
X131622000Y-100848000D03*
X130622000Y-100848000D03*
X129622000Y-100848000D03*
X128622000Y-100848000D03*
X127622000Y-100848000D03*
X126622000Y-100848000D03*
X125622000Y-100848000D03*
D25*
X122622000Y-103848000D03*
X122622000Y-104848000D03*
X122622000Y-105848000D03*
X122622000Y-106848000D03*
X122622000Y-107848000D03*
X122622000Y-108848000D03*
X122622000Y-109848000D03*
X122622000Y-110848000D03*
X122622000Y-111848000D03*
X122622000Y-112848000D03*
X122622000Y-113848000D03*
X122622000Y-114848000D03*
X122622000Y-115848000D03*
%TD*%
D13*
%TO.C,R6*%
X182632500Y-76767000D03*
X184418500Y-76768000D03*
%TD*%
%TO.C,R9*%
X182632500Y-82485000D03*
X184418500Y-82486000D03*
%TD*%
D19*
%TO.C,C2*%
X107284400Y-118120100D03*
X110502400Y-118120100D03*
%TD*%
D22*
%TO.C,U4*%
X194449500Y-83832000D03*
X194448500Y-82565000D03*
X194454500Y-81251000D03*
X194447500Y-80025000D03*
X194447500Y-78714000D03*
X194448500Y-77442000D03*
X194446500Y-76132000D03*
X188733500Y-76130000D03*
X188733500Y-77441000D03*
X188735500Y-78711000D03*
X188731500Y-80023000D03*
X188732500Y-81249000D03*
X188733500Y-82557000D03*
X188733500Y-83829000D03*
%TD*%
D17*
%TO.C,J1*%
X166066000Y-91391700D03*
D18*
X163296000Y-91391700D03*
X160526000Y-91391700D03*
X157756000Y-91391700D03*
X154986000Y-91391700D03*
X152216000Y-91391700D03*
X149446000Y-91391700D03*
X146676000Y-91391700D03*
X143906000Y-91391700D03*
X141136000Y-91391700D03*
X138366000Y-91391700D03*
X135596000Y-91391700D03*
X132826000Y-91391700D03*
X164681000Y-94231700D03*
X161911000Y-94231700D03*
X159141000Y-94231700D03*
X156371000Y-94231700D03*
X153601000Y-94231700D03*
X150831000Y-94231700D03*
X148061000Y-94231700D03*
X145291000Y-94231700D03*
X142521000Y-94231700D03*
X139751000Y-94231700D03*
X136981000Y-94231700D03*
X134211000Y-94231700D03*
%TD*%
M02*
