%TF.GenerationSoftware,KiCad,Pcbnew,(6.0.2)*%
%TF.CreationDate,2022-10-23T12:11:52-05:00*%
%TF.ProjectId,REF1329_Optimized,52454631-3332-4395-9f4f-7074696d697a,rev?*%
%TF.SameCoordinates,Original*%
%TF.FileFunction,Copper,L1,Top*%
%TF.FilePolarity,Positive*%
%FSLAX46Y46*%
G04 Gerber Fmt 4.6, Leading zero omitted, Abs format (unit mm)*
G04 Created by KiCad (PCBNEW (6.0.2)) date 2022-10-23 12:11:52*
%MOMM*%
%LPD*%
G01*
G04 APERTURE LIST*
%TA.AperFunction,NonConductor*%
%ADD10C,0.000001*%
%TD*%
%TA.AperFunction,NonConductor*%
%ADD11C,0.000000*%
%TD*%
%TA.AperFunction,SMDPad,CuDef*%
%ADD12R,1.530000X6.250000*%
%TD*%
%TA.AperFunction,SMDPad,CuDef*%
%ADD13R,1.310000X1.390000*%
%TD*%
%TA.AperFunction,SMDPad,CuDef*%
%ADD14R,1.710000X1.630000*%
%TD*%
%TA.AperFunction,ComponentPad*%
%ADD15R,1.590000X1.590000*%
%TD*%
%TA.AperFunction,ComponentPad*%
%ADD16C,4.680000*%
%TD*%
%TA.AperFunction,ComponentPad*%
%ADD17R,1.600000X1.600000*%
%TD*%
%TA.AperFunction,ComponentPad*%
%ADD18C,1.600000*%
%TD*%
%TA.AperFunction,SMDPad,CuDef*%
%ADD19R,1.700000X1.630000*%
%TD*%
%TA.AperFunction,SMDPad,CuDef*%
%ADD20R,0.700000X2.270000*%
%TD*%
%TA.AperFunction,SMDPad,CuDef*%
%ADD21R,2.270000X0.700000*%
%TD*%
%TA.AperFunction,SMDPad,CuDef*%
%ADD22R,2.000000X0.700000*%
%TD*%
%TA.AperFunction,SMDPad,CuDef*%
%ADD23R,1.530000X9.000000*%
%TD*%
%TA.AperFunction,SMDPad,CuDef*%
%ADD24R,0.600000X2.250000*%
%TD*%
%TA.AperFunction,SMDPad,CuDef*%
%ADD25R,2.250000X0.600000*%
%TD*%
%TA.AperFunction,ViaPad*%
%ADD26C,0.800000*%
%TD*%
%TA.AperFunction,Conductor*%
%ADD27C,0.250000*%
%TD*%
%TA.AperFunction,Conductor*%
%ADD28C,0.500000*%
%TD*%
G04 APERTURE END LIST*
D10*
X180109200Y-69773700D02*
G75*
G03*
X180109200Y-69773700I0J0D01*
G01*
X180104200Y-70544700D02*
G75*
G03*
X180104200Y-70544700I0J0D01*
G01*
D11*
G36*
X152428000Y-111915400D02*
G01*
X150728000Y-111915400D01*
X150728000Y-110285400D01*
X152428000Y-110285400D01*
X152428000Y-111915400D01*
G37*
G36*
X158420800Y-111915400D02*
G01*
X156720800Y-111915400D01*
X156720800Y-110285400D01*
X158420800Y-110285400D01*
X158420800Y-111915400D01*
G37*
D10*
X180111200Y-66478700D02*
G75*
G03*
X180111200Y-66478700I0J0D01*
G01*
X180111200Y-68020700D02*
G75*
G03*
X180111200Y-68020700I0J0D01*
G01*
D12*
%TO.P,J2,1,Pin_1*%
%TO.N,/GND*%
X119026000Y-67712000D03*
%TO.P,J2,2,Pin_2*%
X121544000Y-67712000D03*
%TO.P,J2,3,Pin_3*%
%TO.N,/AD15*%
X124069000Y-67712000D03*
%TO.P,J2,4,Pin_4*%
%TO.N,/AD14*%
X126596000Y-67712000D03*
%TO.P,J2,5,Pin_5*%
%TO.N,/AD13*%
X129115000Y-67712000D03*
%TO.P,J2,6,Pin_6*%
%TO.N,/GND*%
X131634000Y-67712000D03*
%TO.P,J2,7,Pin_7*%
%TO.N,/AD12*%
X134157000Y-67712000D03*
%TO.P,J2,8,Pin_8*%
%TO.N,/{slash}write*%
X136676000Y-67712000D03*
%TO.P,J2,9,Pin_9*%
%TO.N,/VCC*%
X139195000Y-67712000D03*
%TO.P,J2,10,Pin_10*%
%TO.N,/{slash}read_top*%
X141723000Y-67712000D03*
%TO.P,J2,11,Pin_11*%
%TO.N,/AD11*%
X144248000Y-67712000D03*
%TO.P,J2,12,Pin_12*%
%TO.N,/AD10*%
X146769000Y-67712000D03*
%TO.P,J2,13,Pin_13*%
%TO.N,/12V_Front*%
X149293000Y-67712000D03*
%TO.P,J2,14,Pin_14*%
%TO.N,/UNUSED_Front*%
X151813000Y-67712000D03*
%TO.P,J2,15,Pin_15*%
%TO.N,/AD9*%
X154333000Y-67712000D03*
%TO.P,J2,16,Pin_16*%
%TO.N,/AD8*%
X156852000Y-67712000D03*
%TO.P,J2,17,Pin_17*%
%TO.N,/VCC*%
X159370000Y-67712000D03*
%TO.P,J2,18,Pin_18*%
%TO.N,/CIC_DATA1*%
X161894000Y-67712000D03*
%TO.P,J2,19,Pin_19*%
%TO.N,/1.6MHZ*%
X164420000Y-67712000D03*
%TO.P,J2,20,Pin_20*%
%TO.N,/{slash}COLD_RESET*%
X166938000Y-67712000D03*
%TO.P,J2,21,Pin_21*%
%TO.N,/S_DAT*%
X169458000Y-67712000D03*
%TO.P,J2,22,Pin_22*%
%TO.N,/GND*%
X171977000Y-67712000D03*
%TO.P,J2,23,Pin_23*%
X174507000Y-67712000D03*
%TO.P,J2,24,Pin_24*%
%TO.N,/LAUDIO*%
X177033000Y-67712000D03*
%TO.P,J2,25,Pin_25*%
%TO.N,/GND*%
X179552000Y-67712000D03*
%TD*%
D13*
%TO.P,R5,1*%
%TO.N,/C*%
X182632500Y-74866000D03*
%TO.P,R5,2*%
%TO.N,/Q1*%
X184418500Y-74867000D03*
%TD*%
D14*
%TO.P,R1,1*%
%TO.N,/Button*%
X157567000Y-111096900D03*
%TO.P,R1,2*%
%TO.N,/VCC*%
X160794000Y-111103900D03*
%TD*%
D13*
%TO.P,R4,1*%
%TO.N,/DP*%
X182632500Y-72961000D03*
%TO.P,R4,2*%
%TO.N,/Q0*%
X184418500Y-72962000D03*
%TD*%
D15*
%TO.P,SW1,1,1*%
%TO.N,/GND*%
X193086500Y-95977500D03*
X193126500Y-89627500D03*
%TO.P,SW1,2,2*%
%TO.N,/Button*%
X197572500Y-95980500D03*
X197611500Y-89628500D03*
%TD*%
D16*
%TO.P,Hole1,1*%
%TO.N,N/C*%
X108395000Y-67879000D03*
%TD*%
D13*
%TO.P,R8,1*%
%TO.N,/F*%
X182632500Y-80578000D03*
%TO.P,R8,2*%
%TO.N,/Q4*%
X184418500Y-80579000D03*
%TD*%
D16*
%TO.P,Hole2,1*%
%TO.N,N/C*%
X104544000Y-121691000D03*
%TD*%
D17*
%TO.P,U3,1,CA*%
%TO.N,/VCC*%
X168639500Y-75512500D03*
D18*
%TO.P,U3,2,F*%
%TO.N,/F*%
X168639500Y-78052500D03*
%TO.P,U3,3,G*%
%TO.N,/G*%
X168639500Y-80592500D03*
%TO.P,U3,4,E*%
%TO.N,/E*%
X168639500Y-83132500D03*
%TO.P,U3,5,D*%
%TO.N,/D*%
X168639500Y-85672500D03*
%TO.P,U3,6,CA*%
%TO.N,/VCC*%
X173719500Y-85672500D03*
%TO.P,U3,7,DP*%
%TO.N,/DP*%
X173719500Y-83132500D03*
%TO.P,U3,8,C*%
%TO.N,/C*%
X173719500Y-80592500D03*
%TO.P,U3,9,B*%
%TO.N,/B*%
X173719500Y-78052500D03*
%TO.P,U3,10,A*%
%TO.N,/A*%
X173719500Y-75512500D03*
%TD*%
D19*
%TO.P,C3,1*%
%TO.N,/VCC*%
X151578400Y-111101100D03*
%TO.P,C3,2*%
%TO.N,/GND*%
X154796400Y-111101100D03*
%TD*%
D20*
%TO.P,U2,32,VCC*%
%TO.N,/VCC*%
X107900500Y-114257000D03*
%TO.P,U2,31,WE#*%
%TO.N,/{slash}write*%
X106629500Y-114256000D03*
%TO.P,U2,30,A17*%
%TO.N,/A17*%
X105398500Y-114259000D03*
D21*
%TO.P,U2,29,A14*%
%TO.N,/A14*%
X103493500Y-112355000D03*
%TO.P,U2,28,A13*%
%TO.N,/A13*%
X103494500Y-111124000D03*
%TO.P,U2,27,A8*%
%TO.N,/A8*%
X103497500Y-109812000D03*
%TO.P,U2,26,A9*%
%TO.N,/A9*%
X103494500Y-108543000D03*
%TO.P,U2,25,A11*%
%TO.N,/A11*%
X103495500Y-107311000D03*
%TO.P,U2,24,OE#*%
%TO.N,/Output_Enable*%
X103494500Y-106004000D03*
%TO.P,U2,23,A10*%
%TO.N,/A10*%
X103493500Y-104733000D03*
%TO.P,U2,22,CE#*%
%TO.N,/Chip_Enable*%
X103494500Y-103465000D03*
%TO.P,U2,21,Ad15*%
%TO.N,/AD15*%
X103494500Y-102193000D03*
D20*
%TO.P,U2,20,Ad14*%
%TO.N,/AD14*%
X105440500Y-100287000D03*
%TO.P,U2,19,Ad13*%
%TO.N,/AD13*%
X106671500Y-100285000D03*
%TO.P,U2,18,Ad12*%
%TO.N,/AD12*%
X107937500Y-100288000D03*
%TO.P,U2,17,Ad11*%
%TO.N,/AD11*%
X109248500Y-100285000D03*
%TO.P,U2,16,GND*%
%TO.N,/GND*%
X110519500Y-100287000D03*
%TO.P,U2,15,Ad10*%
%TO.N,/AD10*%
X111829500Y-100289000D03*
%TO.P,U2,14,Ad9*%
%TO.N,/AD9*%
X113099500Y-100288000D03*
D21*
%TO.P,U2,13,Ad8*%
%TO.N,/AD8*%
X114924500Y-102194000D03*
%TO.P,U2,12,A0*%
%TO.N,/A0*%
X114924500Y-103462000D03*
%TO.P,U2,11,A1*%
%TO.N,/A1*%
X114924500Y-104733000D03*
%TO.P,U2,10,A2*%
%TO.N,/A2*%
X114923500Y-106001000D03*
%TO.P,U2,9,A3*%
%TO.N,/A3*%
X114926500Y-107312000D03*
%TO.P,U2,8,A4*%
%TO.N,/A4*%
X114924500Y-108544000D03*
%TO.P,U2,7,A5*%
%TO.N,/A5*%
X114923500Y-109815000D03*
%TO.P,U2,6,A6*%
%TO.N,/A6*%
X114925500Y-111122000D03*
%TO.P,U2,5,A7*%
%TO.N,/A7*%
X114922500Y-112352000D03*
D20*
%TO.P,U2,4,A12*%
%TO.N,/A12*%
X113059500Y-114257000D03*
%TO.P,U2,3,A15*%
%TO.N,/A15*%
X111789500Y-114257000D03*
%TO.P,U2,2,A16*%
%TO.N,/A16*%
X110479500Y-114258000D03*
%TO.P,U2,1,A18*%
%TO.N,/A18*%
X109210500Y-114259000D03*
%TD*%
D13*
%TO.P,R7,1*%
%TO.N,/A*%
X182632500Y-78675000D03*
%TO.P,R7,2*%
%TO.N,/Q3*%
X184418500Y-78676000D03*
%TD*%
D22*
%TO.P,U5,14,VCC*%
%TO.N,/VCC*%
X179597000Y-107983000D03*
%TO.P,U5,13*%
%TO.N,N/C*%
X179597000Y-106711000D03*
%TO.P,U5,12*%
X179596000Y-105403000D03*
%TO.P,U5,11*%
X179595000Y-104177000D03*
%TO.P,U5,10*%
X179599000Y-102865000D03*
%TO.P,U5,9*%
X179597000Y-101595000D03*
%TO.P,U5,8*%
X179597000Y-100284000D03*
%TO.P,U5,7,GND*%
%TO.N,/GND*%
X185310000Y-100286000D03*
%TO.P,U5,6*%
%TO.N,N/C*%
X185312000Y-101596000D03*
%TO.P,U5,5*%
X185311000Y-102868000D03*
%TO.P,U5,4*%
X185311000Y-104179000D03*
%TO.P,U5,3*%
X185318000Y-105405000D03*
%TO.P,U5,2*%
%TO.N,/74HC04-374*%
X185312000Y-106719000D03*
%TO.P,U5,1*%
%TO.N,/74HC04*%
X185313000Y-107986000D03*
%TD*%
D23*
%TO.P,J4,1,Pin_1*%
%TO.N,/GND*%
X119072000Y-130450000D03*
%TO.P,J4,2,Pin_2*%
X121590000Y-130464000D03*
%TO.P,J4,3,Pin_3*%
%TO.N,/AD15*%
X124115000Y-130452000D03*
%TO.P,J4,4,Pin_4*%
%TO.N,/AD14*%
X126642000Y-130446000D03*
%TO.P,J4,5,Pin_5*%
%TO.N,/AD13*%
X129161000Y-130460000D03*
%TO.P,J4,6,Pin_6*%
%TO.N,/GND*%
X131680000Y-130446000D03*
%TO.P,J4,7,Pin_7*%
%TO.N,/AD12*%
X134203000Y-130435000D03*
%TO.P,J4,8,Pin_8*%
%TO.N,/{slash}write*%
X136722000Y-130421000D03*
%TO.P,J4,9,Pin_9*%
%TO.N,/VCC*%
X139241000Y-130449000D03*
%TO.P,J4,10,Pin_10*%
%TO.N,/{slash}read_bottom*%
X141769000Y-130449000D03*
%TO.P,J4,11,Pin_11*%
%TO.N,/AD11*%
X144294000Y-130440000D03*
%TO.P,J4,12,Pin_12*%
%TO.N,/AD10*%
X146815000Y-130432000D03*
%TO.P,J4,13,Pin_13*%
%TO.N,/12V_Front*%
X149339000Y-130416000D03*
%TO.P,J4,14,Pin_14*%
%TO.N,/UNUSED_Front*%
X151859000Y-130389000D03*
%TO.P,J4,15,Pin_15*%
%TO.N,/AD9*%
X154379000Y-130401000D03*
%TO.P,J4,16,Pin_16*%
%TO.N,/AD8*%
X156898000Y-130387000D03*
%TO.P,J4,17,Pin_17*%
%TO.N,/VCC*%
X159416000Y-130453000D03*
%TO.P,J4,18,Pin_18*%
%TO.N,/CIC_DATA1*%
X161940000Y-130447000D03*
%TO.P,J4,19,Pin_19*%
%TO.N,/1.6MHZ*%
X164466000Y-130437000D03*
%TO.P,J4,20,Pin_20*%
%TO.N,/{slash}COLD_RESET*%
X166984000Y-130433000D03*
%TO.P,J4,21,Pin_21*%
%TO.N,/S_DAT*%
X169504000Y-130418000D03*
%TO.P,J4,22,Pin_22*%
%TO.N,/GND*%
X172023000Y-130418000D03*
%TO.P,J4,23,Pin_23*%
X174553000Y-130402000D03*
%TO.P,J4,24,Pin_24*%
%TO.N,/LAUDIO*%
X177079000Y-130401000D03*
%TO.P,J4,25,Pin_25*%
%TO.N,/GND*%
X179598000Y-130460000D03*
%TD*%
D19*
%TO.P,C1,1*%
%TO.N,/VCC*%
X109306400Y-72963100D03*
%TO.P,C1,2*%
%TO.N,/GND*%
X112524400Y-72963100D03*
%TD*%
D13*
%TO.P,R10,1*%
%TO.N,/E*%
X182632500Y-84428000D03*
%TO.P,R10,2*%
%TO.N,/Q6*%
X184418500Y-84429000D03*
%TD*%
D16*
%TO.P,Hole3,1*%
%TO.N,N/C*%
X190826000Y-67918000D03*
%TD*%
D22*
%TO.P,U6,20,VCC*%
%TO.N,/VCC*%
X179596000Y-121935000D03*
%TO.P,U6,19,O7*%
%TO.N,unconnected-(U6-Pad19)*%
X179596000Y-120666000D03*
%TO.P,U6,18,D7*%
%TO.N,/AD7*%
X179599000Y-119397000D03*
%TO.P,U6,17,D6*%
%TO.N,/AD6*%
X179597000Y-118167000D03*
%TO.P,U6,16,O6*%
%TO.N,unconnected-(U6-Pad16)*%
X179595000Y-116855000D03*
%TO.P,U6,15,O5*%
%TO.N,unconnected-(U6-Pad15)*%
X179598000Y-115587000D03*
%TO.P,U6,14,D5*%
%TO.N,/AD5*%
X179595000Y-114318000D03*
%TO.P,U6,13,D4*%
%TO.N,/AD4*%
X179597000Y-113046000D03*
%TO.P,U6,12,O4*%
%TO.N,/PPort_15*%
X179595000Y-111738000D03*
%TO.P,U6,11,Cp*%
%TO.N,/74HC04-374*%
X179597000Y-110465000D03*
%TO.P,U6,10,GND*%
%TO.N,/GND*%
X189121000Y-110468000D03*
%TO.P,U6,9,O3*%
%TO.N,/PPort_11*%
X189121000Y-111736000D03*
%TO.P,U6,8,D3*%
%TO.N,/AD3*%
X189122000Y-113047000D03*
%TO.P,U6,7,D2*%
%TO.N,/AD2*%
X189120000Y-114317000D03*
%TO.P,U6,6,O2*%
%TO.N,/PPort_10*%
X189122000Y-115586000D03*
%TO.P,U6,5,O1*%
%TO.N,/PPort_12*%
X189122000Y-116859000D03*
%TO.P,U6,4,D1*%
%TO.N,/AD1*%
X189121000Y-118168000D03*
%TO.P,U6,3,D0*%
%TO.N,/AD0*%
X189121000Y-119398000D03*
%TO.P,U6,2,O0*%
%TO.N,/PPort_13*%
X189121000Y-120668000D03*
%TO.P,U6,1,OE*%
%TO.N,/GND*%
X189124000Y-121938000D03*
%TD*%
D14*
%TO.P,R2,1*%
%TO.N,/74HC164_CP*%
X187733000Y-72995900D03*
%TO.P,R2,2*%
%TO.N,/VCC*%
X190960000Y-73002900D03*
%TD*%
D16*
%TO.P,Hole4,1*%
%TO.N,N/C*%
X194001000Y-121736000D03*
%TD*%
D20*
%TO.P,U1,32,VCC*%
%TO.N,/VCC*%
X107900500Y-90729000D03*
%TO.P,U1,31,WE#*%
%TO.N,/{slash}write*%
X106629500Y-90728000D03*
%TO.P,U1,30,A17*%
%TO.N,/A17*%
X105398500Y-90731000D03*
D21*
%TO.P,U1,29,A14*%
%TO.N,/A14*%
X103493500Y-88827000D03*
%TO.P,U1,28,A13*%
%TO.N,/A13*%
X103494500Y-87596000D03*
%TO.P,U1,27,A8*%
%TO.N,/A8*%
X103497500Y-86284000D03*
%TO.P,U1,26,A9*%
%TO.N,/A9*%
X103494500Y-85015000D03*
%TO.P,U1,25,A11*%
%TO.N,/A11*%
X103495500Y-83783000D03*
%TO.P,U1,24,OE#*%
%TO.N,/Output_Enable*%
X103494500Y-82476000D03*
%TO.P,U1,23,A10*%
%TO.N,/A10*%
X103493500Y-81205000D03*
%TO.P,U1,22,CE#*%
%TO.N,/Chip_Enable*%
X103494500Y-79937000D03*
%TO.P,U1,21,Ad7*%
%TO.N,/AD7*%
X103494500Y-78665000D03*
D20*
%TO.P,U1,20,Ad6*%
%TO.N,/AD6*%
X105440500Y-76759000D03*
%TO.P,U1,19,Ad5*%
%TO.N,/AD5*%
X106671500Y-76757000D03*
%TO.P,U1,18,Ad4*%
%TO.N,/AD4*%
X107937500Y-76760000D03*
%TO.P,U1,17,Ad3*%
%TO.N,/AD3*%
X109248500Y-76757000D03*
%TO.P,U1,16,GND*%
%TO.N,/GND*%
X110519500Y-76759000D03*
%TO.P,U1,15,Ad2*%
%TO.N,/AD2*%
X111829500Y-76761000D03*
%TO.P,U1,14,Ad1*%
%TO.N,/AD1*%
X113099500Y-76760000D03*
D21*
%TO.P,U1,13,Ad0*%
%TO.N,/AD0*%
X114924500Y-78666000D03*
%TO.P,U1,12,A0*%
%TO.N,/A0*%
X114924500Y-79934000D03*
%TO.P,U1,11,A1*%
%TO.N,/A1*%
X114924500Y-81205000D03*
%TO.P,U1,10,A2*%
%TO.N,/A2*%
X114923500Y-82473000D03*
%TO.P,U1,9,A3*%
%TO.N,/A3*%
X114926500Y-83784000D03*
%TO.P,U1,8,A4*%
%TO.N,/A4*%
X114924500Y-85016000D03*
%TO.P,U1,7,A5*%
%TO.N,/A5*%
X114923500Y-86287000D03*
%TO.P,U1,6,A6*%
%TO.N,/A6*%
X114925500Y-87594000D03*
%TO.P,U1,5,A7*%
%TO.N,/A7*%
X114922500Y-88824000D03*
D20*
%TO.P,U1,4,A12*%
%TO.N,/A12*%
X113059500Y-90729000D03*
%TO.P,U1,3,A15*%
%TO.N,/A15*%
X111789500Y-90729000D03*
%TO.P,U1,2,A16*%
%TO.N,/A16*%
X110479500Y-90730000D03*
%TO.P,U1,1,A18*%
%TO.N,/A18*%
X109210500Y-90731000D03*
%TD*%
D13*
%TO.P,R11,1*%
%TO.N,/D*%
X182632500Y-86299000D03*
%TO.P,R11,2*%
%TO.N,/Q7*%
X184418500Y-86300000D03*
%TD*%
D14*
%TO.P,R3,1*%
%TO.N,/PPort_6*%
X181888000Y-90139900D03*
%TO.P,R3,2*%
%TO.N,/GND*%
X185115000Y-90146900D03*
%TD*%
D24*
%TO.P,U7,1,I/O*%
%TO.N,unconnected-(U7-Pad1)*%
X125622000Y-118848000D03*
%TO.P,U7,2,I/O*%
%TO.N,/AD15*%
X126622000Y-118848000D03*
%TO.P,U7,3,I/O*%
%TO.N,/AD14*%
X127622000Y-118848000D03*
%TO.P,U7,4,I/O*%
%TO.N,/AD13*%
X128622000Y-118848000D03*
%TO.P,U7,5,I/O*%
%TO.N,/AD12*%
X129622000Y-118848000D03*
%TO.P,U7,6,I/O*%
%TO.N,/{slash}write*%
X130622000Y-118848000D03*
%TO.P,U7,7,I/O*%
%TO.N,/{slash}read_bottom*%
X131622000Y-118848000D03*
%TO.P,U7,8,I/O*%
%TO.N,/AD11*%
X132622000Y-118848000D03*
%TO.P,U7,9,I/O*%
%TO.N,/AD10*%
X133622000Y-118848000D03*
%TO.P,U7,10,I/O*%
%TO.N,/AD9*%
X134622000Y-118848000D03*
%TO.P,U7,11,I/O*%
%TO.N,/AD8*%
X135622000Y-118848000D03*
%TO.P,U7,12,I/O*%
%TO.N,/{slash}COLD_RESET*%
X136622000Y-118848000D03*
%TO.P,U7,13,I/O*%
%TO.N,/AD7*%
X137622000Y-118848000D03*
%TO.P,U7,14,I/O*%
%TO.N,/AD6*%
X138622000Y-118848000D03*
%TO.P,U7,15,I/O*%
%TO.N,/AD5*%
X139622000Y-118848000D03*
%TO.P,U7,16,I/O*%
%TO.N,/AD4*%
X140622000Y-118848000D03*
%TO.P,U7,17,I/O*%
%TO.N,/ALE_L*%
X141622000Y-118848000D03*
%TO.P,U7,18,I/O*%
%TO.N,/ALE_H*%
X142622000Y-118848000D03*
%TO.P,U7,19,I/O*%
%TO.N,/AD3*%
X143622000Y-118848000D03*
D25*
%TO.P,U7,20,I/O*%
%TO.N,/AD2*%
X146622000Y-115848000D03*
%TO.P,U7,21,I/O*%
%TO.N,/AD1*%
X146622000Y-114848000D03*
%TO.P,U7,22,I/O*%
%TO.N,/AD0*%
X146622000Y-113848000D03*
%TO.P,U7,23,I/O*%
%TO.N,/Button*%
X146622000Y-112848000D03*
%TO.P,U7,24,I/O*%
%TO.N,/PPort_2*%
X146622000Y-111848000D03*
%TO.P,U7,25,VCC*%
%TO.N,/VCC*%
X146622000Y-110848000D03*
%TO.P,U7,26,GND*%
%TO.N,/GND*%
X146622000Y-109848000D03*
%TO.P,U7,27,I/O*%
%TO.N,/PPort_3*%
X146622000Y-108848000D03*
%TO.P,U7,28,I/O*%
%TO.N,/PPort_4*%
X146622000Y-107848000D03*
%TO.P,U7,29,I/O*%
%TO.N,/PPort_5*%
X146622000Y-106848000D03*
%TO.P,U7,30,I/O*%
%TO.N,/PPort_6*%
X146622000Y-105848000D03*
%TO.P,U7,31,I/O*%
%TO.N,unconnected-(U7-Pad31)*%
X146622000Y-104848000D03*
%TO.P,U7,32,I/O*%
%TO.N,unconnected-(U7-Pad32)*%
X146622000Y-103848000D03*
D24*
%TO.P,U7,33,I/O*%
%TO.N,unconnected-(U7-Pad33)*%
X143622000Y-100848000D03*
%TO.P,U7,34,I/O*%
%TO.N,unconnected-(U7-Pad34)*%
X142622000Y-100848000D03*
%TO.P,U7,35,I/O*%
%TO.N,/74HC164_DSA_DSB*%
X141622000Y-100848000D03*
%TO.P,U7,36,I/O*%
%TO.N,/GND*%
X140622000Y-100848000D03*
%TO.P,U7,37,I/O*%
%TO.N,/74HC164_CP*%
X139622000Y-100848000D03*
%TO.P,U7,38,I/O*%
%TO.N,/74HC04*%
X138622000Y-100848000D03*
%TO.P,U7,39,I/O*%
%TO.N,unconnected-(U7-Pad39)*%
X137622000Y-100848000D03*
%TO.P,U7,40,I/O*%
%TO.N,/{slash}read_top*%
X136622000Y-100848000D03*
%TO.P,U7,41,I/O*%
%TO.N,/Output_Enable*%
X135622000Y-100848000D03*
%TO.P,U7,42,I/O*%
%TO.N,unconnected-(U7-Pad42)*%
X134622000Y-100848000D03*
%TO.P,U7,43,I/O*%
%TO.N,/Chip_Enable*%
X133622000Y-100848000D03*
%TO.P,U7,44,I/O*%
%TO.N,/A0*%
X132622000Y-100848000D03*
%TO.P,U7,45,I/O*%
%TO.N,/A1*%
X131622000Y-100848000D03*
%TO.P,U7,46,I/O*%
%TO.N,/A2*%
X130622000Y-100848000D03*
%TO.P,U7,47,I/O*%
%TO.N,/A3*%
X129622000Y-100848000D03*
%TO.P,U7,48,I/O*%
%TO.N,/A4*%
X128622000Y-100848000D03*
%TO.P,U7,49,I/O*%
%TO.N,/A5*%
X127622000Y-100848000D03*
%TO.P,U7,50,I/O*%
%TO.N,/A6*%
X126622000Y-100848000D03*
%TO.P,U7,51,I/O*%
%TO.N,/A7*%
X125622000Y-100848000D03*
D25*
%TO.P,U7,52,I/O*%
%TO.N,/A8*%
X122622000Y-103848000D03*
%TO.P,U7,53,I/O*%
%TO.N,/A9*%
X122622000Y-104848000D03*
%TO.P,U7,54,I/O*%
%TO.N,/A10*%
X122622000Y-105848000D03*
%TO.P,U7,55,I/O*%
%TO.N,/A11*%
X122622000Y-106848000D03*
%TO.P,U7,56,I/O*%
%TO.N,/A12*%
X122622000Y-107848000D03*
%TO.P,U7,57,VCC*%
%TO.N,/VCC*%
X122622000Y-108848000D03*
%TO.P,U7,58,GND*%
%TO.N,/GND*%
X122622000Y-109848000D03*
%TO.P,U7,59,I/O*%
%TO.N,/A13*%
X122622000Y-110848000D03*
%TO.P,U7,60,I/O*%
%TO.N,/A14*%
X122622000Y-111848000D03*
%TO.P,U7,61,I/O*%
%TO.N,/A15*%
X122622000Y-112848000D03*
%TO.P,U7,62,I/O*%
%TO.N,/A16*%
X122622000Y-113848000D03*
%TO.P,U7,63,I/O*%
%TO.N,/A17*%
X122622000Y-114848000D03*
%TO.P,U7,64,I/O*%
%TO.N,/A18*%
X122622000Y-115848000D03*
%TD*%
D13*
%TO.P,R6,1*%
%TO.N,/B*%
X182632500Y-76767000D03*
%TO.P,R6,2*%
%TO.N,/Q2*%
X184418500Y-76768000D03*
%TD*%
%TO.P,R9,1*%
%TO.N,/G*%
X182632500Y-82485000D03*
%TO.P,R9,2*%
%TO.N,/Q5*%
X184418500Y-82486000D03*
%TD*%
D19*
%TO.P,C2,1*%
%TO.N,/GND*%
X107284400Y-118120100D03*
%TO.P,C2,2*%
%TO.N,/VCC*%
X110502400Y-118120100D03*
%TD*%
D22*
%TO.P,U4,1,DSA*%
%TO.N,/74HC164_DSA_DSB*%
X194449500Y-83832000D03*
%TO.P,U4,2,DSB*%
X194448500Y-82565000D03*
%TO.P,U4,3,Q0*%
%TO.N,/Q0*%
X194454500Y-81251000D03*
%TO.P,U4,4,Q1*%
%TO.N,/Q1*%
X194447500Y-80025000D03*
%TO.P,U4,5,Q2*%
%TO.N,/Q2*%
X194447500Y-78714000D03*
%TO.P,U4,6,Q3*%
%TO.N,/Q3*%
X194448500Y-77442000D03*
%TO.P,U4,7,GND*%
%TO.N,/GND*%
X194446500Y-76132000D03*
%TO.P,U4,8,CP*%
%TO.N,/74HC164_CP*%
X188733500Y-76130000D03*
%TO.P,U4,9,~{MR}*%
%TO.N,/VCC*%
X188733500Y-77441000D03*
%TO.P,U4,10,Q4*%
%TO.N,/Q4*%
X188735500Y-78711000D03*
%TO.P,U4,11,Q5*%
%TO.N,/Q5*%
X188731500Y-80023000D03*
%TO.P,U4,12,Q6*%
%TO.N,/Q6*%
X188732500Y-81249000D03*
%TO.P,U4,13,Q7*%
%TO.N,/Q7*%
X188733500Y-82557000D03*
%TO.P,U4,14,VCC*%
%TO.N,/VCC*%
X188733500Y-83829000D03*
%TD*%
D17*
%TO.P,J1,1,1*%
%TO.N,unconnected-(J1-Pad1)*%
X166066000Y-91391700D03*
D18*
%TO.P,J1,2,2*%
%TO.N,/PPort_2*%
X163296000Y-91391700D03*
%TO.P,J1,3,3*%
%TO.N,/PPort_3*%
X160526000Y-91391700D03*
%TO.P,J1,4,4*%
%TO.N,/PPort_4*%
X157756000Y-91391700D03*
%TO.P,J1,5,5*%
%TO.N,/PPort_5*%
X154986000Y-91391700D03*
%TO.P,J1,6,6*%
%TO.N,/PPort_6*%
X152216000Y-91391700D03*
%TO.P,J1,7,7*%
%TO.N,unconnected-(J1-Pad7)*%
X149446000Y-91391700D03*
%TO.P,J1,8,8*%
%TO.N,unconnected-(J1-Pad8)*%
X146676000Y-91391700D03*
%TO.P,J1,9,9*%
%TO.N,unconnected-(J1-Pad9)*%
X143906000Y-91391700D03*
%TO.P,J1,10,10*%
%TO.N,/PPort_10*%
X141136000Y-91391700D03*
%TO.P,J1,11,11*%
%TO.N,/PPort_11*%
X138366000Y-91391700D03*
%TO.P,J1,12,12*%
%TO.N,/PPort_12*%
X135596000Y-91391700D03*
%TO.P,J1,13,13*%
%TO.N,/PPort_13*%
X132826000Y-91391700D03*
%TO.P,J1,14,P14*%
%TO.N,unconnected-(J1-Pad14)*%
X164681000Y-94231700D03*
%TO.P,J1,15,P15*%
%TO.N,/PPort_15*%
X161911000Y-94231700D03*
%TO.P,J1,16,P16*%
%TO.N,unconnected-(J1-Pad16)*%
X159141000Y-94231700D03*
%TO.P,J1,17,P17*%
%TO.N,unconnected-(J1-Pad17)*%
X156371000Y-94231700D03*
%TO.P,J1,18,P18*%
%TO.N,/GND*%
X153601000Y-94231700D03*
%TO.P,J1,19,P19*%
X150831000Y-94231700D03*
%TO.P,J1,20,P20*%
X148061000Y-94231700D03*
%TO.P,J1,21,P21*%
X145291000Y-94231700D03*
%TO.P,J1,22,P22*%
X142521000Y-94231700D03*
%TO.P,J1,23,P23*%
X139751000Y-94231700D03*
%TO.P,J1,24,P24*%
X136981000Y-94231700D03*
%TO.P,J1,25,P25*%
X134211000Y-94231700D03*
%TD*%
D26*
%TO.N,/Q2*%
X191067600Y-80594700D03*
X185806600Y-76881500D03*
%TO.N,/74HC04-374*%
X181738100Y-111180100D03*
X184482800Y-108965800D03*
%TO.N,/LAUDIO*%
X176692000Y-124916000D03*
X175982600Y-71408800D03*
%TO.N,/S_DAT*%
X168256800Y-72966900D03*
X170241800Y-125139500D03*
%TO.N,/1.6MHZ*%
X165188600Y-122987100D03*
X165136300Y-72235700D03*
%TO.N,/CIC_DATA1*%
X161657000Y-125338900D03*
X161260900Y-71576600D03*
%TO.N,/UNUSED_Front*%
X151802200Y-124836900D03*
X152414600Y-71601700D03*
%TO.N,/12V_Front*%
X143351100Y-124545300D03*
X143420200Y-73606400D03*
%TO.N,/PPort_15*%
X161368400Y-116588600D03*
%TO.N,/PPort_13*%
X183220000Y-88840300D03*
X190749600Y-119626800D03*
%TO.N,/PPort_12*%
X175894200Y-94752000D03*
X186925300Y-116623600D03*
%TO.N,/PPort_11*%
X177948900Y-89527700D03*
X186120600Y-111451800D03*
%TO.N,/PPort_10*%
X177150000Y-94336800D03*
X187093700Y-115160000D03*
%TO.N,/C*%
X174844700Y-73909600D03*
%TO.N,/E*%
X175188600Y-83110300D03*
%TO.N,/{slash}read_top*%
X139384000Y-98087600D03*
X141723000Y-71437500D03*
%TO.N,/74HC04*%
X177449800Y-102241100D03*
X182886200Y-109489600D03*
%TO.N,/74HC164_CP*%
X187123800Y-77932500D03*
X179124200Y-97439300D03*
%TO.N,/PPort_6*%
X148545600Y-102985500D03*
%TO.N,/PPort_5*%
X148545600Y-107057400D03*
%TO.N,/PPort_4*%
X149720800Y-107848000D03*
%TO.N,/PPort_3*%
X149211200Y-108779500D03*
%TO.N,/PPort_2*%
X148545600Y-111848000D03*
%TO.N,/ALE_H*%
X142547300Y-120585800D03*
%TO.N,/ALE_L*%
X138708800Y-117118200D03*
%TO.N,/{slash}COLD_RESET*%
X166574600Y-125326400D03*
X166574600Y-120759300D03*
X166739200Y-72518500D03*
%TO.N,/AD15*%
X123149400Y-118986100D03*
X103329100Y-100949300D03*
%TO.N,/AD14*%
X127622000Y-122356900D03*
X124788500Y-81770500D03*
%TO.N,/AD13*%
X128420300Y-121473900D03*
X123152600Y-85760200D03*
%TO.N,/AD12*%
X129901700Y-120795600D03*
X123602700Y-87134500D03*
%TO.N,/AD11*%
X132604100Y-116987100D03*
X127569200Y-92881800D03*
%TO.N,/AD10*%
X133706800Y-120579900D03*
X135594800Y-79929100D03*
X130823400Y-95685700D03*
%TO.N,/AD9*%
X134446200Y-116955500D03*
X136130000Y-81419900D03*
X132367500Y-98148900D03*
%TO.N,/AD8*%
X157453900Y-71764000D03*
X157788500Y-125255900D03*
X159852200Y-120102500D03*
X126008400Y-114732600D03*
X116192700Y-101057700D03*
%TO.N,/VCC*%
X159572000Y-125346900D03*
X159525800Y-71442900D03*
X139241000Y-125312900D03*
X107900500Y-92474800D03*
X174201400Y-107983000D03*
X174201400Y-121935000D03*
X139511600Y-110912600D03*
X139195000Y-71444700D03*
X120871300Y-108848000D03*
X109725200Y-74391400D03*
X108896600Y-117810800D03*
X141546500Y-75873700D03*
X107954300Y-112317100D03*
%TO.N,/{slash}write*%
X106887400Y-92490100D03*
X106629500Y-112498500D03*
X127772900Y-82307900D03*
X130995300Y-121493300D03*
%TO.N,/A17*%
X106183300Y-93277000D03*
X105398500Y-112511200D03*
%TO.N,/A13*%
X101180300Y-87596000D03*
X101745400Y-111124000D03*
X120005300Y-110729700D03*
%TO.N,/A8*%
X110950800Y-107766700D03*
X109272700Y-86045100D03*
X120860800Y-103873900D03*
%TO.N,/A9*%
X105959700Y-85015000D03*
X105887700Y-108543000D03*
X124523100Y-104686300D03*
X111082100Y-85015000D03*
%TO.N,/A11*%
X105232200Y-83783000D03*
X105232200Y-107541200D03*
X110571000Y-83783000D03*
X124565900Y-105940800D03*
%TO.N,/Output_Enable*%
X115114000Y-95583600D03*
X112988800Y-82508300D03*
X113089500Y-104543800D03*
%TO.N,/A10*%
X113037300Y-81493100D03*
X111162700Y-105220800D03*
X120015500Y-106123800D03*
%TO.N,/Chip_Enable*%
X111950800Y-103465000D03*
X108755800Y-79937000D03*
X113339800Y-97488400D03*
%TO.N,/AD7*%
X155928100Y-120050200D03*
X150850400Y-88906100D03*
X126896300Y-91114200D03*
X105367300Y-78665000D03*
X157242800Y-123313300D03*
%TO.N,/AD6*%
X150356000Y-122712500D03*
X115941000Y-71017300D03*
X128282900Y-88010000D03*
X151578900Y-75092000D03*
%TO.N,/AD5*%
X145127500Y-122321800D03*
X144644600Y-108782400D03*
X124404500Y-103217100D03*
X108874700Y-78742700D03*
%TO.N,/AD4*%
X113555900Y-71339400D03*
X127064900Y-88916200D03*
X142980600Y-88369500D03*
X144189700Y-121343800D03*
%TO.N,/AD3*%
X163800900Y-111735000D03*
X154927900Y-120465000D03*
X136970900Y-117072900D03*
X125509000Y-103621100D03*
X136032300Y-103683400D03*
X113166400Y-79033800D03*
%TO.N,/GND*%
X119169500Y-125342300D03*
X131634000Y-71479800D03*
X178817200Y-71444400D03*
X134882100Y-109848000D03*
X193463800Y-75127700D03*
X119629000Y-71439900D03*
X131680000Y-125315900D03*
X171878600Y-71479500D03*
X179125400Y-125122800D03*
X135337600Y-112822700D03*
X174239600Y-125246200D03*
%TO.N,/AD2*%
X130220600Y-115376600D03*
X119540700Y-76872800D03*
X123059100Y-73065400D03*
%TO.N,/AD1*%
X127870100Y-114647400D03*
X119890700Y-78248900D03*
X171629900Y-110821800D03*
X174520500Y-123062100D03*
X124320600Y-72972800D03*
%TO.N,/AD0*%
X126943500Y-113848000D03*
X116786800Y-78821700D03*
X123805900Y-71831100D03*
X176090700Y-110355700D03*
X181812900Y-119200800D03*
%TO.N,/A0*%
X119773200Y-97077000D03*
X117897800Y-86009900D03*
%TO.N,/A1*%
X128291000Y-97220000D03*
X121104300Y-81549200D03*
%TO.N,/A2*%
X112939000Y-106001000D03*
X112980900Y-83541800D03*
%TO.N,/A3*%
X121235700Y-99648800D03*
X116777400Y-83951200D03*
%TO.N,/A4*%
X112437000Y-88513000D03*
X113190400Y-107796900D03*
%TO.N,/A5*%
X121502400Y-101099100D03*
X117878200Y-84944300D03*
%TO.N,/A6*%
X110500700Y-108940700D03*
X110942100Y-88993900D03*
%TO.N,/A7*%
X121587400Y-102549400D03*
X116751100Y-88892700D03*
%TO.N,/A12*%
X116978300Y-87892500D03*
X124351900Y-108072900D03*
%TO.N,/A15*%
X106104900Y-94965900D03*
X106136700Y-110559000D03*
%TO.N,/A16*%
X110492200Y-111988600D03*
X109916100Y-92473400D03*
%TO.N,/A18*%
X109538800Y-112523200D03*
X117149300Y-116123700D03*
X108915900Y-92472600D03*
%TD*%
D27*
%TO.N,/Q7*%
X184418500Y-86300000D02*
X185398600Y-86300000D01*
X188733500Y-82557000D02*
X187408400Y-82557000D01*
X187408400Y-84290200D02*
X187408400Y-82557000D01*
X185398600Y-86300000D02*
X187408400Y-84290200D01*
%TO.N,/Q6*%
X185398600Y-83257800D02*
X187407400Y-81249000D01*
X185398600Y-84429000D02*
X185398600Y-83257800D01*
X184418500Y-84429000D02*
X185398600Y-84429000D01*
X188732500Y-81249000D02*
X187407400Y-81249000D01*
%TO.N,/Q5*%
X187406400Y-80478200D02*
X185398600Y-82486000D01*
X187406400Y-80023000D02*
X187406400Y-80478200D01*
X184418500Y-82486000D02*
X185398600Y-82486000D01*
X188731500Y-80023000D02*
X187406400Y-80023000D01*
%TO.N,/Q4*%
X184418500Y-80579000D02*
X185398600Y-80579000D01*
X187266600Y-78711000D02*
X188735500Y-78711000D01*
X185398600Y-80579000D02*
X187266600Y-78711000D01*
%TO.N,/Q3*%
X194448500Y-77442000D02*
X195773600Y-77442000D01*
X185398600Y-78315200D02*
X185398600Y-78676000D01*
X186537900Y-77175900D02*
X185398600Y-78315200D01*
X186537900Y-71989400D02*
X186537900Y-77175900D01*
X186671600Y-71855700D02*
X186537900Y-71989400D01*
X192033000Y-71855700D02*
X186671600Y-71855700D01*
X195773600Y-75596300D02*
X192033000Y-71855700D01*
X195773600Y-77442000D02*
X195773600Y-75596300D01*
X184418500Y-78676000D02*
X185398600Y-78676000D01*
%TO.N,/Q2*%
X184418500Y-76768000D02*
X185398600Y-76768000D01*
X194447500Y-78714000D02*
X193122400Y-78714000D01*
X191241700Y-80594700D02*
X191067600Y-80594700D01*
X193122400Y-78714000D02*
X191241700Y-80594700D01*
X185512100Y-76881500D02*
X185806600Y-76881500D01*
X185398600Y-76768000D02*
X185512100Y-76881500D01*
%TO.N,/Q1*%
X194447500Y-80025000D02*
X195772600Y-80025000D01*
X184418500Y-74867000D02*
X185398600Y-74867000D01*
X185398600Y-72492100D02*
X185398600Y-74867000D01*
X186485100Y-71405600D02*
X185398600Y-72492100D01*
X192219500Y-71405600D02*
X186485100Y-71405600D01*
X196223800Y-75409900D02*
X192219500Y-71405600D01*
X196223800Y-79573800D02*
X196223800Y-75409900D01*
X195772600Y-80025000D02*
X196223800Y-79573800D01*
%TO.N,/Q0*%
X194454500Y-81251000D02*
X195779600Y-81251000D01*
X184418500Y-72962000D02*
X184418500Y-71941900D01*
X185404900Y-70955500D02*
X184418500Y-71941900D01*
X192406000Y-70955500D02*
X185404900Y-70955500D01*
X196673900Y-75223400D02*
X192406000Y-70955500D01*
X196673900Y-80356700D02*
X196673900Y-75223400D01*
X195779600Y-81251000D02*
X196673900Y-80356700D01*
%TO.N,/74HC04-374*%
X185312000Y-106719000D02*
X183986900Y-106719000D01*
X179597000Y-110465000D02*
X180922100Y-110465000D01*
X183986900Y-108469900D02*
X183986900Y-106719000D01*
X184482800Y-108965800D02*
X183986900Y-108469900D01*
X181637200Y-111180100D02*
X181738100Y-111180100D01*
X180922100Y-110465000D02*
X181637200Y-111180100D01*
%TO.N,/LAUDIO*%
X177033000Y-67712000D02*
X177033000Y-71162100D01*
X176229300Y-71162100D02*
X177033000Y-71162100D01*
X175982600Y-71408800D02*
X176229300Y-71162100D01*
X177079000Y-130401000D02*
X177079000Y-125575900D01*
X176692000Y-125188900D02*
X176692000Y-124916000D01*
X177079000Y-125575900D02*
X176692000Y-125188900D01*
%TO.N,/S_DAT*%
X169504000Y-130418000D02*
X169504000Y-125592900D01*
X169788400Y-125592900D02*
X169504000Y-125592900D01*
X170241800Y-125139500D02*
X169788400Y-125592900D01*
X169458000Y-67712000D02*
X169458000Y-71162100D01*
X168256800Y-72363300D02*
X168256800Y-72966900D01*
X169458000Y-71162100D02*
X168256800Y-72363300D01*
%TO.N,/1.6MHZ*%
X164466000Y-123709700D02*
X165188600Y-122987100D01*
X164466000Y-130437000D02*
X164466000Y-123709700D01*
X164420000Y-71519400D02*
X164420000Y-67712000D01*
X165136300Y-72235700D02*
X164420000Y-71519400D01*
%TO.N,/CIC_DATA1*%
X161675400Y-71162100D02*
X161894000Y-71162100D01*
X161260900Y-71576600D02*
X161675400Y-71162100D01*
X161894000Y-67712000D02*
X161894000Y-71162100D01*
X161940000Y-130447000D02*
X161940000Y-125621900D01*
X161940000Y-125621900D02*
X161657000Y-125338900D01*
%TO.N,/UNUSED_Front*%
X151975000Y-71162100D02*
X151813000Y-71162100D01*
X152414600Y-71601700D02*
X151975000Y-71162100D01*
X151813000Y-67712000D02*
X151813000Y-71162100D01*
X151859000Y-124893700D02*
X151802200Y-124836900D01*
X151859000Y-130389000D02*
X151859000Y-124893700D01*
%TO.N,/12V_Front*%
X148293400Y-124545300D02*
X143351100Y-124545300D01*
X149339000Y-125590900D02*
X148293400Y-124545300D01*
X146848700Y-73606400D02*
X149293000Y-71162100D01*
X143420200Y-73606400D02*
X146848700Y-73606400D01*
X149293000Y-67712000D02*
X149293000Y-71162100D01*
X149339000Y-130416000D02*
X149339000Y-125590900D01*
%TO.N,/PPort_15*%
X177637100Y-112370800D02*
X178269900Y-111738000D01*
X167813300Y-112370800D02*
X177637100Y-112370800D01*
X163595500Y-116588600D02*
X167813300Y-112370800D01*
X161368400Y-116588600D02*
X163595500Y-116588600D01*
X179595000Y-111738000D02*
X178269900Y-111738000D01*
%TO.N,/PPort_13*%
X189708400Y-120668000D02*
X189121000Y-120668000D01*
X190749600Y-119626800D02*
X189708400Y-120668000D01*
X134110400Y-90107300D02*
X132826000Y-91391700D01*
X139676800Y-90107300D02*
X134110400Y-90107300D01*
X140126900Y-89657200D02*
X139676800Y-90107300D01*
X151665800Y-89657200D02*
X140126900Y-89657200D01*
X152520400Y-88802600D02*
X151665800Y-89657200D01*
X183182300Y-88802600D02*
X152520400Y-88802600D01*
X183220000Y-88840300D02*
X183182300Y-88802600D01*
%TO.N,/PPort_12*%
X174109200Y-92967000D02*
X175894200Y-94752000D01*
X137171300Y-92967000D02*
X174109200Y-92967000D01*
X135596000Y-91391700D02*
X137171300Y-92967000D01*
X187561500Y-116623600D02*
X187796900Y-116859000D01*
X186925300Y-116623600D02*
X187561500Y-116623600D01*
X189122000Y-116859000D02*
X187796900Y-116859000D01*
%TO.N,/PPort_11*%
X186404800Y-111736000D02*
X186120600Y-111451800D01*
X189121000Y-111736000D02*
X186404800Y-111736000D01*
X139061700Y-91391700D02*
X138366000Y-91391700D01*
X140186900Y-90266500D02*
X139061700Y-91391700D01*
X151693200Y-90266500D02*
X140186900Y-90266500D01*
X152607100Y-89352600D02*
X151693200Y-90266500D01*
X177773800Y-89352600D02*
X152607100Y-89352600D01*
X177948900Y-89527700D02*
X177773800Y-89352600D01*
%TO.N,/PPort_10*%
X174442800Y-91629600D02*
X177150000Y-94336800D01*
X168363600Y-91629600D02*
X174442800Y-91629600D01*
X167000600Y-90266600D02*
X168363600Y-91629600D01*
X154465700Y-90266600D02*
X167000600Y-90266600D01*
X153354900Y-91377400D02*
X154465700Y-90266600D01*
X153354900Y-91848900D02*
X153354900Y-91377400D01*
X152687000Y-92516800D02*
X153354900Y-91848900D01*
X142261100Y-92516800D02*
X152687000Y-92516800D01*
X141136000Y-91391700D02*
X142261100Y-92516800D01*
X187370900Y-115160000D02*
X187796900Y-115586000D01*
X187093700Y-115160000D02*
X187370900Y-115160000D01*
X189122000Y-115586000D02*
X187796900Y-115586000D01*
%TO.N,/A*%
X176882000Y-78675000D02*
X173719500Y-75512500D01*
X182632500Y-78675000D02*
X176882000Y-78675000D01*
%TO.N,/B*%
X182632500Y-76767000D02*
X181652400Y-76767000D01*
X176676700Y-76767000D02*
X181652400Y-76767000D01*
X174294200Y-74384500D02*
X176676700Y-76767000D01*
X173233000Y-74384500D02*
X174294200Y-74384500D01*
X172580600Y-75036900D02*
X173233000Y-74384500D01*
X172580600Y-76913600D02*
X172580600Y-75036900D01*
X173719500Y-78052500D02*
X172580600Y-76913600D01*
%TO.N,/C*%
X182632500Y-74866000D02*
X181652400Y-74866000D01*
X180696000Y-73909600D02*
X174844700Y-73909600D01*
X181652400Y-74866000D02*
X180696000Y-73909600D01*
%TO.N,/DP*%
X182632500Y-72961000D02*
X181652400Y-72961000D01*
X170508200Y-83132500D02*
X173719500Y-83132500D01*
X169093400Y-81717700D02*
X170508200Y-83132500D01*
X168171100Y-81717700D02*
X169093400Y-81717700D01*
X167512900Y-81059500D02*
X168171100Y-81717700D01*
X167512900Y-77542100D02*
X167512900Y-81059500D01*
X168417300Y-76637700D02*
X167512900Y-77542100D01*
X169706700Y-76637700D02*
X168417300Y-76637700D01*
X173383400Y-72961000D02*
X169706700Y-76637700D01*
X181652400Y-72961000D02*
X173383400Y-72961000D01*
%TO.N,/D*%
X179893900Y-84540500D02*
X181652400Y-86299000D01*
X169771500Y-84540500D02*
X179893900Y-84540500D01*
X168639500Y-85672500D02*
X169771500Y-84540500D01*
X182632500Y-86299000D02*
X181652400Y-86299000D01*
%TO.N,/E*%
X180334700Y-83110300D02*
X181652400Y-84428000D01*
X175188600Y-83110300D02*
X180334700Y-83110300D01*
X182632500Y-84428000D02*
X181652400Y-84428000D01*
%TO.N,/G*%
X181029900Y-81862500D02*
X181652400Y-82485000D01*
X169909500Y-81862500D02*
X181029900Y-81862500D01*
X168639500Y-80592500D02*
X169909500Y-81862500D01*
X182632500Y-82485000D02*
X181652400Y-82485000D01*
%TO.N,/F*%
X180396900Y-79322500D02*
X181652400Y-80578000D01*
X169909500Y-79322500D02*
X180396900Y-79322500D01*
X168639500Y-78052500D02*
X169909500Y-79322500D01*
X182632500Y-80578000D02*
X181652400Y-80578000D01*
%TO.N,/{slash}read_top*%
X136622000Y-100848000D02*
X136622000Y-99397900D01*
X138073700Y-99397900D02*
X139384000Y-98087600D01*
X136622000Y-99397900D02*
X138073700Y-99397900D01*
X141723000Y-67712000D02*
X141723000Y-71437500D01*
%TO.N,/74HC04*%
X185313000Y-107986000D02*
X186638100Y-107986000D01*
X138622000Y-100848000D02*
X138622000Y-102298100D01*
X186638100Y-108514600D02*
X186638100Y-107986000D01*
X185432200Y-109720500D02*
X186638100Y-108514600D01*
X183117100Y-109720500D02*
X185432200Y-109720500D01*
X182886200Y-109489600D02*
X183117100Y-109720500D01*
X145415500Y-102241100D02*
X177449800Y-102241100D01*
X144377000Y-103279600D02*
X145415500Y-102241100D01*
X139603500Y-103279600D02*
X144377000Y-103279600D01*
X138622000Y-102298100D02*
X139603500Y-103279600D01*
%TO.N,/74HC164_CP*%
X188733500Y-76130000D02*
X187408400Y-76130000D01*
X187733000Y-72995900D02*
X187733000Y-74136000D01*
X187408400Y-74460600D02*
X187408400Y-76130000D01*
X187733000Y-74136000D02*
X187408400Y-74460600D01*
X139622000Y-100848000D02*
X139622000Y-102298100D01*
X187408400Y-77647900D02*
X187123800Y-77932500D01*
X187408400Y-76130000D02*
X187408400Y-77647900D01*
X149580600Y-97439300D02*
X179124200Y-97439300D01*
X144236700Y-102783200D02*
X149580600Y-97439300D01*
X140107100Y-102783200D02*
X144236700Y-102783200D01*
X139622000Y-102298100D02*
X140107100Y-102783200D01*
%TO.N,/74HC164_DSA_DSB*%
X195774600Y-82566000D02*
X195774600Y-83832000D01*
X195773600Y-82565000D02*
X195774600Y-82566000D01*
X194448500Y-82565000D02*
X195773600Y-82565000D01*
X195112100Y-83832000D02*
X194883700Y-83832000D01*
X194449500Y-83832000D02*
X194883700Y-83832000D01*
X195112100Y-83832000D02*
X195443400Y-83832000D01*
X195443400Y-83832000D02*
X195774600Y-83832000D01*
X141622000Y-100848000D02*
X141622000Y-102298100D01*
X195443400Y-89428100D02*
X195443400Y-83832000D01*
X188694300Y-96177200D02*
X195443400Y-89428100D01*
X150206000Y-96177200D02*
X188694300Y-96177200D01*
X144085100Y-102298100D02*
X150206000Y-96177200D01*
X141622000Y-102298100D02*
X144085100Y-102298100D01*
%TO.N,/PPort_6*%
X146622000Y-105848000D02*
X145171900Y-105848000D01*
X181888000Y-90139900D02*
X180707900Y-90139900D01*
X145585500Y-102985500D02*
X148545600Y-102985500D01*
X145171900Y-103399100D02*
X145585500Y-102985500D01*
X145171900Y-105848000D02*
X145171900Y-103399100D01*
X153791200Y-89816500D02*
X152216000Y-91391700D01*
X167187100Y-89816500D02*
X153791200Y-89816500D01*
X167623400Y-90252800D02*
X167187100Y-89816500D01*
X180595000Y-90252800D02*
X167623400Y-90252800D01*
X180707900Y-90139900D02*
X180595000Y-90252800D01*
%TO.N,/PPort_5*%
X146622000Y-106848000D02*
X148072100Y-106848000D01*
X148281500Y-107057400D02*
X148545600Y-107057400D01*
X148072100Y-106848000D02*
X148281500Y-107057400D01*
%TO.N,/PPort_4*%
X149720800Y-107848000D02*
X146622000Y-107848000D01*
%TO.N,/PPort_3*%
X146622000Y-108848000D02*
X148072100Y-108848000D01*
X148140600Y-108779500D02*
X149211200Y-108779500D01*
X148072100Y-108848000D02*
X148140600Y-108779500D01*
%TO.N,/PPort_2*%
X146622000Y-111848000D02*
X148072100Y-111848000D01*
X148072100Y-111848000D02*
X148545600Y-111848000D01*
%TO.N,/Button*%
X157567000Y-111096900D02*
X157567000Y-111666900D01*
X197572500Y-95980500D02*
X196452400Y-95980500D01*
X158186400Y-112286300D02*
X157567000Y-111666900D01*
X161746800Y-112286300D02*
X158186400Y-112286300D01*
X165215200Y-108817900D02*
X161746800Y-112286300D01*
X180584600Y-108817900D02*
X165215200Y-108817900D01*
X183984800Y-105417700D02*
X180584600Y-108817900D01*
X183984800Y-99790400D02*
X183984800Y-105417700D01*
X185890600Y-97884600D02*
X183984800Y-99790400D01*
X187623600Y-97884600D02*
X185890600Y-97884600D01*
X190650900Y-94857300D02*
X187623600Y-97884600D01*
X195329200Y-94857300D02*
X190650900Y-94857300D01*
X196452400Y-95980500D02*
X195329200Y-94857300D01*
X156223200Y-113010700D02*
X157567000Y-111666900D01*
X148234800Y-113010700D02*
X156223200Y-113010700D01*
X148072100Y-112848000D02*
X148234800Y-113010700D01*
X146622000Y-112848000D02*
X148072100Y-112848000D01*
%TO.N,/ALE_H*%
X142547300Y-120372800D02*
X142547300Y-120585800D01*
X142622000Y-120298100D02*
X142547300Y-120372800D01*
X142622000Y-118848000D02*
X142622000Y-120298100D01*
%TO.N,/ALE_L*%
X141622000Y-118848000D02*
X141622000Y-117397900D01*
X138988500Y-117397900D02*
X138708800Y-117118200D01*
X141622000Y-117397900D02*
X138988500Y-117397900D01*
%TO.N,/{slash}COLD_RESET*%
X166984000Y-130433000D02*
X166984000Y-125607900D01*
X166856100Y-125607900D02*
X166984000Y-125607900D01*
X166574600Y-125326400D02*
X166856100Y-125607900D01*
X136622000Y-118848000D02*
X136622000Y-120298100D01*
X138542200Y-122218300D02*
X136622000Y-120298100D01*
X140519200Y-122218300D02*
X138542200Y-122218300D01*
X141671000Y-123370100D02*
X140519200Y-122218300D01*
X143838000Y-123370100D02*
X141671000Y-123370100D01*
X143975100Y-123507200D02*
X143838000Y-123370100D01*
X153010700Y-123507200D02*
X143975100Y-123507200D01*
X153598300Y-124094800D02*
X153010700Y-123507200D01*
X160443100Y-124094800D02*
X153598300Y-124094800D01*
X163778600Y-120759300D02*
X160443100Y-124094800D01*
X166574600Y-120759300D02*
X163778600Y-120759300D01*
X166739200Y-71360900D02*
X166938000Y-71162100D01*
X166739200Y-72518500D02*
X166739200Y-71360900D01*
X166938000Y-67712000D02*
X166938000Y-71162100D01*
%TO.N,/{slash}read_bottom*%
X141769000Y-126810200D02*
X141769000Y-130449000D01*
X139361500Y-124402700D02*
X141769000Y-126810200D01*
X135726600Y-124402700D02*
X139361500Y-124402700D01*
X131622000Y-120298100D02*
X135726600Y-124402700D01*
X131622000Y-118848000D02*
X131622000Y-120298100D01*
%TO.N,/AD15*%
X126622000Y-118848000D02*
X126622000Y-117397900D01*
X124115000Y-130452000D02*
X124115000Y-125626900D01*
X103494500Y-102193000D02*
X102034400Y-102193000D01*
X102034400Y-102193000D02*
X103303600Y-100923800D01*
X103329100Y-100949300D02*
X103303600Y-100923800D01*
X124115000Y-118986100D02*
X123149400Y-118986100D01*
X124115000Y-118431400D02*
X124115000Y-118986100D01*
X125148500Y-117397900D02*
X124115000Y-118431400D01*
X126622000Y-117397900D02*
X125148500Y-117397900D01*
X124115000Y-118986100D02*
X124115000Y-125626900D01*
X125495800Y-69138800D02*
X124069000Y-67712000D01*
X125495800Y-77951800D02*
X125495800Y-69138800D01*
X123961400Y-79486200D02*
X125495800Y-77951800D01*
X123961400Y-82479500D02*
X123961400Y-79486200D01*
X119375600Y-87065300D02*
X123961400Y-82479500D01*
X119375600Y-88014100D02*
X119375600Y-87065300D01*
X116409300Y-90980400D02*
X119375600Y-88014100D01*
X114917800Y-90980400D02*
X116409300Y-90980400D01*
X113220900Y-92677300D02*
X114917800Y-90980400D01*
X112819000Y-92677300D02*
X113220900Y-92677300D01*
X111174500Y-94321800D02*
X112819000Y-92677300D01*
X109261000Y-94321800D02*
X111174500Y-94321800D01*
X103303600Y-100279200D02*
X109261000Y-94321800D01*
X103303600Y-100923800D02*
X103303600Y-100279200D01*
%TO.N,/AD14*%
X126642000Y-130446000D02*
X126642000Y-125620900D01*
X127622000Y-124640900D02*
X127622000Y-122356900D01*
X126642000Y-125620900D02*
X127622000Y-124640900D01*
X127622000Y-118848000D02*
X127622000Y-122356900D01*
X126596000Y-79963000D02*
X124788500Y-81770500D01*
X126596000Y-67712000D02*
X126596000Y-79963000D01*
X105440500Y-100287000D02*
X105440500Y-98826900D01*
X124788500Y-82302100D02*
X124788500Y-81770500D01*
X119825700Y-87264900D02*
X124788500Y-82302100D01*
X119825700Y-88247600D02*
X119825700Y-87264900D01*
X116642800Y-91430500D02*
X119825700Y-88247600D01*
X115197700Y-91430500D02*
X116642800Y-91430500D01*
X113500800Y-93127400D02*
X115197700Y-91430500D01*
X113005500Y-93127400D02*
X113500800Y-93127400D01*
X111361000Y-94771900D02*
X113005500Y-93127400D01*
X109495500Y-94771900D02*
X111361000Y-94771900D01*
X105440500Y-98826900D02*
X109495500Y-94771900D01*
%TO.N,/AD13*%
X129161000Y-130460000D02*
X129161000Y-125634900D01*
X106671500Y-100285000D02*
X106671500Y-98824900D01*
X128622000Y-118848000D02*
X128622000Y-120298100D01*
X128622000Y-125095900D02*
X128622000Y-121473900D01*
X129161000Y-125634900D02*
X128622000Y-125095900D01*
X128622000Y-121473900D02*
X128622000Y-120298100D01*
X128622000Y-121473900D02*
X128420300Y-121473900D01*
X117032200Y-91880600D02*
X123152600Y-85760200D01*
X115384200Y-91880600D02*
X117032200Y-91880600D01*
X113687300Y-93577500D02*
X115384200Y-91880600D01*
X113192000Y-93577500D02*
X113687300Y-93577500D01*
X111414200Y-95355300D02*
X113192000Y-93577500D01*
X110141100Y-95355300D02*
X111414200Y-95355300D01*
X106671500Y-98824900D02*
X110141100Y-95355300D01*
X129115000Y-79235700D02*
X129115000Y-67712000D01*
X123152600Y-85198100D02*
X129115000Y-79235700D01*
X123152600Y-85760200D02*
X123152600Y-85198100D01*
%TO.N,/AD12*%
X134203000Y-130435000D02*
X134203000Y-125609900D01*
X107937500Y-100288000D02*
X107937500Y-98827900D01*
X129622000Y-120515900D02*
X129901700Y-120795600D01*
X129622000Y-118848000D02*
X129622000Y-120515900D01*
X134048400Y-125609900D02*
X134203000Y-125609900D01*
X129901700Y-121463200D02*
X134048400Y-125609900D01*
X129901700Y-120795600D02*
X129901700Y-121463200D01*
X118406500Y-92330700D02*
X123602700Y-87134500D01*
X115570700Y-92330700D02*
X118406500Y-92330700D01*
X113873800Y-94027600D02*
X115570700Y-92330700D01*
X113378500Y-94027600D02*
X113873800Y-94027600D01*
X108578200Y-98827900D02*
X113378500Y-94027600D01*
X107937500Y-98827900D02*
X108578200Y-98827900D01*
X134157000Y-74830300D02*
X134157000Y-67712000D01*
X123877700Y-85109600D02*
X134157000Y-74830300D01*
X123877700Y-86859500D02*
X123877700Y-85109600D01*
X123602700Y-87134500D02*
X123877700Y-86859500D01*
%TO.N,/AD11*%
X109248500Y-100285000D02*
X109248500Y-98824900D01*
X144248000Y-67712000D02*
X144248000Y-71162100D01*
X126098500Y-88367100D02*
X126098500Y-92767900D01*
X143303500Y-71162100D02*
X126098500Y-88367100D01*
X144248000Y-71162100D02*
X143303500Y-71162100D01*
X113595700Y-94477700D02*
X109248500Y-98824900D01*
X114060300Y-94477700D02*
X113595700Y-94477700D01*
X115451700Y-93086300D02*
X114060300Y-94477700D01*
X125780100Y-93086300D02*
X115451700Y-93086300D01*
X126098500Y-92767900D02*
X125780100Y-93086300D01*
X132622000Y-120554700D02*
X132622000Y-118848000D01*
X135860900Y-123793600D02*
X132622000Y-120554700D01*
X139866500Y-123793600D02*
X135860900Y-123793600D01*
X141636500Y-125563600D02*
X139866500Y-123793600D01*
X142702200Y-125563600D02*
X141636500Y-125563600D01*
X144294000Y-127155400D02*
X142702200Y-125563600D01*
X144294000Y-130440000D02*
X144294000Y-127155400D01*
X132622000Y-117005000D02*
X132604100Y-116987100D01*
X132622000Y-118848000D02*
X132622000Y-117005000D01*
X126212400Y-92881800D02*
X126098500Y-92767900D01*
X127569200Y-92881800D02*
X126212400Y-92881800D01*
%TO.N,/AD10*%
X146815000Y-130432000D02*
X146815000Y-125606900D01*
X133622000Y-118848000D02*
X133622000Y-120298100D01*
X133622000Y-120495100D02*
X133622000Y-120298100D01*
X133706800Y-120579900D02*
X133622000Y-120495100D01*
X146769000Y-67712000D02*
X146769000Y-71162100D01*
X135594800Y-79507400D02*
X135594800Y-79929100D01*
X142762700Y-72339500D02*
X135594800Y-79507400D01*
X145591600Y-72339500D02*
X142762700Y-72339500D01*
X146769000Y-71162100D02*
X145591600Y-72339500D01*
X112284200Y-98374200D02*
X111829500Y-98828900D01*
X114178400Y-98374200D02*
X112284200Y-98374200D01*
X117048600Y-95504000D02*
X114178400Y-98374200D01*
X130641700Y-95504000D02*
X117048600Y-95504000D01*
X130823400Y-95685700D02*
X130641700Y-95504000D01*
X111829500Y-100289000D02*
X111829500Y-98828900D01*
X136442400Y-123118500D02*
X133622000Y-120298100D01*
X140146100Y-123118500D02*
X136442400Y-123118500D01*
X142086600Y-125059000D02*
X140146100Y-123118500D01*
X142839400Y-125059000D02*
X142086600Y-125059000D01*
X143387300Y-125606900D02*
X142839400Y-125059000D01*
X146815000Y-125606900D02*
X143387300Y-125606900D01*
%TO.N,/AD9*%
X154379000Y-130401000D02*
X154379000Y-125575900D01*
X134622000Y-119573000D02*
X134622000Y-120298100D01*
X134622000Y-119573000D02*
X134622000Y-118848000D01*
X134622000Y-118848000D02*
X134622000Y-117397900D01*
X154333000Y-67712000D02*
X154333000Y-71162100D01*
X113099500Y-100288000D02*
X113099500Y-98827900D01*
X134446200Y-117222100D02*
X134446200Y-116955500D01*
X134622000Y-117397900D02*
X134446200Y-117222100D01*
X140209400Y-77340500D02*
X136130000Y-81419900D01*
X140209400Y-75529400D02*
X140209400Y-77340500D01*
X141040300Y-74698500D02*
X140209400Y-75529400D01*
X150796600Y-74698500D02*
X141040300Y-74698500D01*
X154333000Y-71162100D02*
X150796600Y-74698500D01*
X131734300Y-98148900D02*
X132367500Y-98148900D01*
X129589900Y-96004500D02*
X131734300Y-98148900D01*
X119611800Y-96004500D02*
X129589900Y-96004500D01*
X116788400Y-98827900D02*
X119611800Y-96004500D01*
X113099500Y-98827900D02*
X116788400Y-98827900D01*
X136992300Y-122668400D02*
X134622000Y-120298100D01*
X140332700Y-122668400D02*
X136992300Y-122668400D01*
X141484500Y-123820200D02*
X140332700Y-122668400D01*
X143651500Y-123820200D02*
X141484500Y-123820200D01*
X143808600Y-123977300D02*
X143651500Y-123820200D01*
X152780400Y-123977300D02*
X143808600Y-123977300D01*
X154379000Y-125575900D02*
X152780400Y-123977300D01*
%TO.N,/AD8*%
X156898000Y-130387000D02*
X156898000Y-125561900D01*
X157482500Y-125561900D02*
X156898000Y-125561900D01*
X157788500Y-125255900D02*
X157482500Y-125561900D01*
X156852000Y-67712000D02*
X156852000Y-71162100D01*
X156852000Y-71162100D02*
X157453900Y-71764000D01*
X135622000Y-118848000D02*
X135622000Y-117397900D01*
X135622000Y-116126300D02*
X135622000Y-117397900D01*
X136261900Y-115486400D02*
X135622000Y-116126300D01*
X143455500Y-115486400D02*
X136261900Y-115486400D01*
X144472900Y-116503800D02*
X143455500Y-115486400D01*
X156253500Y-116503800D02*
X144472900Y-116503800D01*
X159852200Y-120102500D02*
X156253500Y-116503800D01*
X127402100Y-116126300D02*
X126008400Y-114732600D01*
X135622000Y-116126300D02*
X127402100Y-116126300D01*
X116060800Y-101057700D02*
X114924500Y-102194000D01*
X116192700Y-101057700D02*
X116060800Y-101057700D01*
D28*
%TO.N,/VCC*%
X151578400Y-111101100D02*
X150278300Y-111101100D01*
X159416000Y-130453000D02*
X159416000Y-125502900D01*
X159370000Y-67712000D02*
X159370000Y-71287100D01*
X159416000Y-125502900D02*
X159572000Y-125346900D01*
X159370000Y-71287100D02*
X159525800Y-71442900D01*
X188733500Y-77441000D02*
X189599600Y-77441000D01*
X139241000Y-130449000D02*
X139241000Y-125312900D01*
X160794000Y-111103900D02*
X160794000Y-110131500D01*
X151578400Y-111101100D02*
X152878500Y-111101100D01*
X174201400Y-121935000D02*
X179596000Y-121935000D01*
X146622000Y-110848000D02*
X145046900Y-110848000D01*
X139195000Y-67712000D02*
X139195000Y-71287100D01*
X122622000Y-108848000D02*
X121046900Y-108848000D01*
X121046900Y-108848000D02*
X120871300Y-108848000D01*
X190960000Y-76080600D02*
X189599600Y-77441000D01*
X190960000Y-73002900D02*
X190960000Y-76080600D01*
X107900500Y-90729000D02*
X107900500Y-92474800D01*
X109306400Y-72963100D02*
X109306400Y-74228200D01*
X109562000Y-74228200D02*
X109306400Y-74228200D01*
X109725200Y-74391400D02*
X109562000Y-74228200D01*
X110502400Y-118120100D02*
X109202300Y-118120100D01*
X139576200Y-110848000D02*
X139511600Y-110912600D01*
X145046900Y-110848000D02*
X139576200Y-110848000D01*
X150025200Y-110848000D02*
X146622000Y-110848000D01*
X150278300Y-111101100D02*
X150025200Y-110848000D01*
X160004500Y-125346900D02*
X159572000Y-125346900D01*
X163416400Y-121935000D02*
X160004500Y-125346900D01*
X174201400Y-121935000D02*
X163416400Y-121935000D01*
X175497600Y-87450600D02*
X173719500Y-85672500D01*
X185294700Y-87450600D02*
X175497600Y-87450600D01*
X188733500Y-84011800D02*
X185294700Y-87450600D01*
X188733500Y-83829000D02*
X188733500Y-84011800D01*
X190199900Y-78041300D02*
X189599600Y-77441000D01*
X190199900Y-83812700D02*
X190199900Y-78041300D01*
X190183600Y-83829000D02*
X190199900Y-83812700D01*
X188733500Y-83829000D02*
X190183600Y-83829000D01*
X141628500Y-75955700D02*
X141546500Y-75873700D01*
X155013000Y-75955700D02*
X141628500Y-75955700D01*
X159525800Y-71442900D02*
X155013000Y-75955700D01*
X139195000Y-71287100D02*
X139195000Y-71444700D01*
X163595400Y-75512500D02*
X168639500Y-75512500D01*
X159525800Y-71442900D02*
X163595400Y-75512500D01*
X152878500Y-111484700D02*
X152878500Y-111101100D01*
X153760000Y-112366200D02*
X152878500Y-111484700D01*
X155832800Y-112366200D02*
X153760000Y-112366200D01*
X156096500Y-112102500D02*
X155832800Y-112366200D01*
X156096500Y-110260900D02*
X156096500Y-112102500D01*
X156525600Y-109831800D02*
X156096500Y-110260900D01*
X160494300Y-109831800D02*
X156525600Y-109831800D01*
X160794000Y-110131500D02*
X160494300Y-109831800D01*
X179597000Y-107983000D02*
X174201400Y-107983000D01*
X162942500Y-107983000D02*
X160794000Y-110131500D01*
X174201400Y-107983000D02*
X162942500Y-107983000D01*
X108896600Y-117814400D02*
X108896600Y-117810800D01*
X109202300Y-118120100D02*
X108896600Y-117814400D01*
X131297000Y-110912600D02*
X139511600Y-110912600D01*
X129516800Y-109132400D02*
X131297000Y-110912600D01*
X124209100Y-109132400D02*
X129516800Y-109132400D01*
X123924700Y-108848000D02*
X124209100Y-109132400D01*
X122622000Y-108848000D02*
X123924700Y-108848000D01*
X107954300Y-112618100D02*
X107900500Y-112671900D01*
X107954300Y-112317100D02*
X107954300Y-112618100D01*
X107900500Y-114257000D02*
X107900500Y-112671900D01*
D27*
%TO.N,/{slash}write*%
X136722000Y-130421000D02*
X136722000Y-125595900D01*
X130622000Y-119573000D02*
X130622000Y-120298100D01*
X106887400Y-92446000D02*
X106887400Y-92490100D01*
X106629500Y-92188100D02*
X106887400Y-92446000D01*
X106629500Y-90728000D02*
X106629500Y-92188100D01*
X130622000Y-119573000D02*
X130622000Y-118848000D01*
X136676000Y-73404800D02*
X127772900Y-82307900D01*
X136676000Y-67712000D02*
X136676000Y-73404800D01*
X135097900Y-125595900D02*
X136722000Y-125595900D01*
X130995300Y-121493300D02*
X135097900Y-125595900D01*
X130995300Y-120671400D02*
X130622000Y-120298100D01*
X130995300Y-121493300D02*
X130995300Y-120671400D01*
X106629500Y-114256000D02*
X106629500Y-112498500D01*
%TO.N,/A17*%
X105398500Y-92492200D02*
X106183300Y-93277000D01*
X105398500Y-90731000D02*
X105398500Y-92492200D01*
X105398500Y-114259000D02*
X105398500Y-115719100D01*
X105398500Y-114259000D02*
X105398500Y-112511200D01*
X117399700Y-114848000D02*
X122622000Y-114848000D01*
X115629400Y-116618300D02*
X117399700Y-114848000D01*
X112202900Y-116618300D02*
X115629400Y-116618300D01*
X111753300Y-116168700D02*
X112202900Y-116618300D01*
X105848100Y-116168700D02*
X111753300Y-116168700D01*
X105398500Y-115719100D02*
X105848100Y-116168700D01*
%TO.N,/A14*%
X103493500Y-88827000D02*
X102033400Y-88827000D01*
X101004000Y-89856400D02*
X102033400Y-88827000D01*
X101004000Y-111464600D02*
X101004000Y-89856400D01*
X101894400Y-112355000D02*
X101004000Y-111464600D01*
X102033400Y-112355000D02*
X101894400Y-112355000D01*
X102763500Y-112355000D02*
X102033400Y-112355000D01*
X102763500Y-112355000D02*
X103493500Y-112355000D01*
X122622000Y-111848000D02*
X124072100Y-111848000D01*
X124072100Y-116286100D02*
X124072100Y-111848000D01*
X123289800Y-117068400D02*
X124072100Y-116286100D01*
X112016400Y-117068400D02*
X123289800Y-117068400D01*
X111802900Y-116854900D02*
X112016400Y-117068400D01*
X105882300Y-116854900D02*
X111802900Y-116854900D01*
X103493500Y-114466100D02*
X105882300Y-116854900D01*
X103493500Y-112355000D02*
X103493500Y-114466100D01*
%TO.N,/A13*%
X103494500Y-87596000D02*
X102034400Y-87596000D01*
X102034400Y-87596000D02*
X101180300Y-87596000D01*
X102764500Y-111124000D02*
X102034400Y-111124000D01*
X102764500Y-111124000D02*
X103494500Y-111124000D01*
X102034400Y-111124000D02*
X101745400Y-111124000D01*
X120123600Y-110848000D02*
X120005300Y-110729700D01*
X122622000Y-110848000D02*
X120123600Y-110848000D01*
%TO.N,/A8*%
X104227600Y-109812000D02*
X104957600Y-109812000D01*
X104227600Y-109812000D02*
X103497500Y-109812000D01*
X103497500Y-86284000D02*
X104957600Y-86284000D01*
X105196500Y-86045100D02*
X109272700Y-86045100D01*
X104957600Y-86284000D02*
X105196500Y-86045100D01*
X122622000Y-103848000D02*
X121171900Y-103848000D01*
X105966800Y-109812000D02*
X104957600Y-109812000D01*
X108012100Y-107766700D02*
X105966800Y-109812000D01*
X110950800Y-107766700D02*
X108012100Y-107766700D01*
X120886700Y-103848000D02*
X120860800Y-103873900D01*
X121171900Y-103848000D02*
X120886700Y-103848000D01*
%TO.N,/A9*%
X103494500Y-85015000D02*
X104954600Y-85015000D01*
X103494500Y-108543000D02*
X105887700Y-108543000D01*
X104954600Y-85015000D02*
X105959700Y-85015000D01*
X122622000Y-104848000D02*
X124072100Y-104848000D01*
X105959700Y-85015000D02*
X111082100Y-85015000D01*
X124361400Y-104848000D02*
X124523100Y-104686300D01*
X124072100Y-104848000D02*
X124361400Y-104848000D01*
%TO.N,/A11*%
X103495500Y-107311000D02*
X104955600Y-107311000D01*
X103495500Y-83783000D02*
X104955600Y-83783000D01*
X105002000Y-107311000D02*
X105232200Y-107541200D01*
X104955600Y-107311000D02*
X105002000Y-107311000D01*
X104955600Y-83783000D02*
X105232200Y-83783000D01*
X122622000Y-106848000D02*
X124072100Y-106848000D01*
X105232200Y-83783000D02*
X110571000Y-83783000D01*
X124072100Y-106434600D02*
X124565900Y-105940800D01*
X124072100Y-106848000D02*
X124072100Y-106434600D01*
%TO.N,/Output_Enable*%
X135622000Y-100848000D02*
X135622000Y-99397900D01*
X112956500Y-82476000D02*
X112988800Y-82508300D01*
X104954600Y-82476000D02*
X112956500Y-82476000D01*
X104224600Y-82476000D02*
X104954600Y-82476000D01*
X104224600Y-82476000D02*
X103494500Y-82476000D01*
X111629300Y-106004000D02*
X113089500Y-104543800D01*
X103494500Y-106004000D02*
X111629300Y-106004000D01*
X116207400Y-94490200D02*
X115114000Y-95583600D01*
X131290000Y-94490200D02*
X116207400Y-94490200D01*
X135622000Y-98822200D02*
X131290000Y-94490200D01*
X135622000Y-99397900D02*
X135622000Y-98822200D01*
%TO.N,/A10*%
X103493500Y-81205000D02*
X104953600Y-81205000D01*
X105241700Y-81493100D02*
X113037300Y-81493100D01*
X104953600Y-81205000D02*
X105241700Y-81493100D01*
X105441400Y-105220800D02*
X104953600Y-104733000D01*
X111162700Y-105220800D02*
X105441400Y-105220800D01*
X103493500Y-104733000D02*
X104953600Y-104733000D01*
X120291300Y-105848000D02*
X120015500Y-106123800D01*
X122622000Y-105848000D02*
X120291300Y-105848000D01*
%TO.N,/Chip_Enable*%
X103494500Y-79937000D02*
X108755800Y-79937000D01*
X133622000Y-100848000D02*
X133622000Y-99397900D01*
X103494500Y-103465000D02*
X111950800Y-103465000D01*
X114427700Y-97488400D02*
X113339800Y-97488400D01*
X116956600Y-94959500D02*
X114427700Y-97488400D01*
X131122700Y-94959500D02*
X116956600Y-94959500D01*
X133622000Y-97458800D02*
X131122700Y-94959500D01*
X133622000Y-99397900D02*
X133622000Y-97458800D01*
%TO.N,/AD7*%
X103494500Y-78665000D02*
X105367300Y-78665000D01*
X155530200Y-119652300D02*
X155928100Y-120050200D01*
X146348200Y-119652300D02*
X155530200Y-119652300D01*
X143082500Y-116386600D02*
X146348200Y-119652300D01*
X138376600Y-116386600D02*
X143082500Y-116386600D01*
X137696000Y-117067200D02*
X138376600Y-116386600D01*
X137696000Y-118774000D02*
X137696000Y-117067200D01*
X137622000Y-118848000D02*
X137696000Y-118774000D01*
X164314700Y-119397000D02*
X179599000Y-119397000D01*
X160398400Y-123313300D02*
X164314700Y-119397000D01*
X157242800Y-123313300D02*
X160398400Y-123313300D01*
X150549400Y-89207100D02*
X150850400Y-88906100D01*
X139940300Y-89207100D02*
X150549400Y-89207100D01*
X139490300Y-89657100D02*
X139940300Y-89207100D01*
X128353400Y-89657100D02*
X139490300Y-89657100D01*
X126896300Y-91114200D02*
X128353400Y-89657100D01*
%TO.N,/AD6*%
X115535400Y-70611700D02*
X115941000Y-71017300D01*
X108196000Y-70611700D02*
X115535400Y-70611700D01*
X105440500Y-73367200D02*
X108196000Y-70611700D01*
X105440500Y-76759000D02*
X105440500Y-73367200D01*
X130584400Y-88010000D02*
X128282900Y-88010000D01*
X140659500Y-77934900D02*
X130584400Y-88010000D01*
X140659500Y-75715900D02*
X140659500Y-77934900D01*
X141226800Y-75148600D02*
X140659500Y-75715900D01*
X151522300Y-75148600D02*
X141226800Y-75148600D01*
X151578900Y-75092000D02*
X151522300Y-75148600D01*
X138622000Y-118848000D02*
X138622000Y-120298100D01*
X140092100Y-121768200D02*
X138622000Y-120298100D01*
X140705700Y-121768200D02*
X140092100Y-121768200D01*
X141759300Y-122821800D02*
X140705700Y-121768200D01*
X144039000Y-122821800D02*
X141759300Y-122821800D01*
X144274200Y-123057000D02*
X144039000Y-122821800D01*
X150011500Y-123057000D02*
X144274200Y-123057000D01*
X150356000Y-122712500D02*
X150011500Y-123057000D01*
X164908000Y-118167000D02*
X179597000Y-118167000D01*
X160486800Y-122588200D02*
X164908000Y-118167000D01*
X150480300Y-122588200D02*
X160486800Y-122588200D01*
X150356000Y-122712500D02*
X150480300Y-122588200D01*
%TO.N,/AD5*%
X179595000Y-114318000D02*
X178269900Y-114318000D01*
X107197100Y-78742700D02*
X106671500Y-78217100D01*
X108874700Y-78742700D02*
X107197100Y-78742700D01*
X106671500Y-76757000D02*
X106671500Y-78217100D01*
X139622000Y-118848000D02*
X139622000Y-120298100D01*
X124404500Y-103542300D02*
X124404500Y-103217100D01*
X125270800Y-104408600D02*
X124404500Y-103542300D01*
X140270800Y-104408600D02*
X125270800Y-104408600D01*
X144644600Y-108782400D02*
X140270800Y-104408600D01*
X139872200Y-120298100D02*
X139622000Y-120298100D01*
X141895900Y-122321800D02*
X139872200Y-120298100D01*
X145127500Y-122321800D02*
X141895900Y-122321800D01*
X168120400Y-114318000D02*
X178269900Y-114318000D01*
X160473600Y-121964800D02*
X168120400Y-114318000D01*
X145484500Y-121964800D02*
X160473600Y-121964800D01*
X145127500Y-122321800D02*
X145484500Y-121964800D01*
%TO.N,/AD4*%
X107937500Y-76760000D02*
X107937500Y-75299900D01*
X113278300Y-71061800D02*
X113555900Y-71339400D01*
X108382500Y-71061800D02*
X113278300Y-71061800D01*
X107659600Y-71784700D02*
X108382500Y-71061800D01*
X107659600Y-75022000D02*
X107659600Y-71784700D01*
X107937500Y-75299900D02*
X107659600Y-75022000D01*
X139594600Y-88916200D02*
X127064900Y-88916200D01*
X140141300Y-88369500D02*
X139594600Y-88916200D01*
X142980600Y-88369500D02*
X140141300Y-88369500D01*
X140622000Y-118848000D02*
X140622000Y-120298100D01*
X144189700Y-121338300D02*
X144189700Y-121343800D01*
X141662200Y-121338300D02*
X144189700Y-121338300D01*
X140622000Y-120298100D02*
X141662200Y-121338300D01*
X168750200Y-113046000D02*
X179597000Y-113046000D01*
X160457900Y-121338300D02*
X168750200Y-113046000D01*
X144189700Y-121338300D02*
X160457900Y-121338300D01*
%TO.N,/AD3*%
X189122000Y-113047000D02*
X187796900Y-113047000D01*
X143622000Y-118848000D02*
X143622000Y-120298100D01*
X109248500Y-77528000D02*
X109248500Y-76757000D01*
X110754300Y-79033800D02*
X109248500Y-77528000D01*
X113166400Y-79033800D02*
X110754300Y-79033800D01*
X143788900Y-120465000D02*
X143622000Y-120298100D01*
X154927900Y-120465000D02*
X143788900Y-120465000D01*
X155276800Y-120813900D02*
X154927900Y-120465000D01*
X156215900Y-120813900D02*
X155276800Y-120813900D01*
X156684000Y-120345800D02*
X156215900Y-120813900D01*
X156684000Y-119780600D02*
X156684000Y-120345800D01*
X153857500Y-116954100D02*
X156684000Y-119780600D01*
X144286600Y-116954100D02*
X153857500Y-116954100D01*
X143269000Y-115936500D02*
X144286600Y-116954100D01*
X138107300Y-115936500D02*
X143269000Y-115936500D01*
X136970900Y-117072900D02*
X138107300Y-115936500D01*
X125571300Y-103683400D02*
X125509000Y-103621100D01*
X136032300Y-103683400D02*
X125571300Y-103683400D01*
X185309000Y-113047000D02*
X187796900Y-113047000D01*
X181598500Y-109336500D02*
X185309000Y-113047000D01*
X166199400Y-109336500D02*
X181598500Y-109336500D01*
X163800900Y-111735000D02*
X166199400Y-109336500D01*
D28*
%TO.N,/GND*%
X134211000Y-94231700D02*
X136981000Y-94231700D01*
X136981000Y-94231700D02*
X139751000Y-94231700D01*
X142521000Y-94231700D02*
X145291000Y-94231700D01*
X145291000Y-94231700D02*
X148061000Y-94231700D01*
X148061000Y-94231700D02*
X150831000Y-94231700D01*
X140622000Y-94231700D02*
X140622000Y-100848000D01*
X139751000Y-94231700D02*
X140622000Y-94231700D01*
X140622000Y-94231700D02*
X142521000Y-94231700D01*
X172023000Y-130418000D02*
X172023000Y-125467900D01*
X186939500Y-89627500D02*
X186420100Y-90146900D01*
X193126500Y-89627500D02*
X186939500Y-89627500D01*
X185115000Y-90146900D02*
X186420100Y-90146900D01*
X185310000Y-100286000D02*
X186589100Y-100286000D01*
X193086500Y-95977500D02*
X191841400Y-95977500D01*
X179552000Y-67712000D02*
X179552000Y-71112000D01*
X174507000Y-67712000D02*
X174507000Y-69499500D01*
X172964300Y-71287100D02*
X171977000Y-71287100D01*
X174507000Y-69744400D02*
X172964300Y-71287100D01*
X174507000Y-69499500D02*
X174507000Y-69744400D01*
X174507000Y-69499500D02*
X174507000Y-71182600D01*
X121544000Y-67712000D02*
X121544000Y-69499500D01*
X119026000Y-67712000D02*
X119026000Y-69499500D01*
X131634000Y-67712000D02*
X131634000Y-71287100D01*
X131634000Y-71287100D02*
X131634000Y-71479800D01*
X187146500Y-100672400D02*
X191841400Y-95977500D01*
X186760100Y-100286000D02*
X187146500Y-100672400D01*
X186589100Y-100286000D02*
X186760100Y-100286000D01*
X187670900Y-101196800D02*
X187670900Y-110468000D01*
X187146500Y-100672400D02*
X187670900Y-101196800D01*
X174553000Y-130402000D02*
X174553000Y-125626400D01*
X110519500Y-100287000D02*
X110519500Y-98701900D01*
X179149600Y-71112000D02*
X178817200Y-71444400D01*
X179552000Y-71112000D02*
X179149600Y-71112000D01*
X175592100Y-72267700D02*
X174507000Y-71182600D01*
X177993900Y-72267700D02*
X175592100Y-72267700D01*
X178817200Y-71444400D02*
X177993900Y-72267700D01*
X111465200Y-74228200D02*
X110519500Y-75173900D01*
X112524400Y-74228200D02*
X111465200Y-74228200D01*
X112524400Y-72963100D02*
X112524400Y-74228200D01*
X110519500Y-76759000D02*
X110519500Y-75173900D01*
X194446500Y-76132000D02*
X192996400Y-76132000D01*
X192996400Y-75595100D02*
X193463800Y-75127700D01*
X192996400Y-76132000D02*
X192996400Y-75595100D01*
X188396000Y-110468000D02*
X187670900Y-110468000D01*
X188396000Y-110468000D02*
X189121000Y-110468000D01*
X190574100Y-121208000D02*
X190574100Y-121938000D01*
X191653800Y-120128300D02*
X190574100Y-121208000D01*
X191653800Y-111550700D02*
X191653800Y-120128300D01*
X190571100Y-110468000D02*
X191653800Y-111550700D01*
X189121000Y-110468000D02*
X190571100Y-110468000D01*
X107284400Y-118120100D02*
X107284400Y-119385200D01*
X185115000Y-90146900D02*
X185115000Y-91412000D01*
X150831000Y-94231700D02*
X153601000Y-94231700D01*
X115562400Y-72963100D02*
X119026000Y-69499500D01*
X112524400Y-72963100D02*
X115562400Y-72963100D01*
X119026000Y-69499500D02*
X119026000Y-70836900D01*
X119629000Y-71287100D02*
X119629000Y-71439900D01*
X120013300Y-71287100D02*
X119629000Y-71287100D01*
X121544000Y-69756400D02*
X120013300Y-71287100D01*
X121544000Y-69499500D02*
X121544000Y-69756400D01*
X119476200Y-71287100D02*
X119026000Y-70836900D01*
X119629000Y-71287100D02*
X119476200Y-71287100D01*
X119072000Y-125342300D02*
X119169500Y-125342300D01*
X121576000Y-125499900D02*
X119072000Y-125499900D01*
X121590000Y-125513900D02*
X121576000Y-125499900D01*
X121590000Y-130464000D02*
X121590000Y-125513900D01*
X119072000Y-130450000D02*
X119072000Y-125499900D01*
X119072000Y-125342300D02*
X119072000Y-125499900D01*
X131680000Y-130446000D02*
X131680000Y-125495900D01*
X131680000Y-125495900D02*
X131680000Y-125315900D01*
X134882100Y-109848000D02*
X146622000Y-109848000D01*
X148209100Y-109836000D02*
X154796400Y-109836000D01*
X148197100Y-109848000D02*
X148209100Y-109836000D01*
X146622000Y-109848000D02*
X148197100Y-109848000D01*
X154796400Y-111101100D02*
X154796400Y-109836000D01*
X171977000Y-67712000D02*
X171977000Y-71097900D01*
X171977000Y-71097900D02*
X171977000Y-71259000D01*
X171977000Y-71259000D02*
X171977000Y-71287100D01*
X171878600Y-71357400D02*
X171878600Y-71479500D01*
X171977000Y-71259000D02*
X171878600Y-71357400D01*
X189849100Y-121938000D02*
X190574100Y-121938000D01*
X189849100Y-121938000D02*
X189124000Y-121938000D01*
X183169900Y-121938000D02*
X179598000Y-125509900D01*
X189124000Y-121938000D02*
X183169900Y-121938000D01*
X179598000Y-130460000D02*
X179598000Y-125655400D01*
X179598000Y-125655400D02*
X179598000Y-125509900D01*
X135337600Y-112822700D02*
X125437300Y-112822700D01*
X125437300Y-111088200D02*
X125437300Y-112822700D01*
X124197100Y-109848000D02*
X125437300Y-111088200D01*
X122622000Y-109848000D02*
X124197100Y-109848000D01*
X180924900Y-95602100D02*
X185115000Y-91412000D01*
X154971400Y-95602100D02*
X180924900Y-95602100D01*
X153601000Y-94231700D02*
X154971400Y-95602100D01*
X107964700Y-120065500D02*
X119072000Y-120065500D01*
X107284400Y-119385200D02*
X107964700Y-120065500D01*
X119072000Y-120065500D02*
X119072000Y-125342300D01*
X110649500Y-98701900D02*
X110519500Y-98701900D01*
X115448200Y-93903200D02*
X110649500Y-98701900D01*
X133882500Y-93903200D02*
X115448200Y-93903200D01*
X134211000Y-94231700D02*
X133882500Y-93903200D01*
X121001500Y-118136000D02*
X119072000Y-120065500D01*
X123084800Y-118136000D02*
X121001500Y-118136000D01*
X125158300Y-116062500D02*
X123084800Y-118136000D01*
X125158300Y-113101700D02*
X125158300Y-116062500D01*
X125437300Y-112822700D02*
X125158300Y-113101700D01*
X179210900Y-125122800D02*
X179125400Y-125122800D01*
X179598000Y-125509900D02*
X179210900Y-125122800D01*
X176115800Y-124063600D02*
X174553000Y-125626400D01*
X178066200Y-124063600D02*
X176115800Y-124063600D01*
X179125400Y-125122800D02*
X178066200Y-124063600D01*
X174239600Y-125467900D02*
X174239600Y-125246200D01*
X172023000Y-125467900D02*
X174239600Y-125467900D01*
X174394500Y-125467900D02*
X174553000Y-125626400D01*
X174239600Y-125467900D02*
X174394500Y-125467900D01*
D27*
%TO.N,/AD2*%
X111829500Y-76761000D02*
X111829500Y-75300900D01*
X146009500Y-115848000D02*
X145171900Y-115848000D01*
X146009500Y-115848000D02*
X146622000Y-115848000D01*
X185942400Y-114317000D02*
X189120000Y-114317000D01*
X181414600Y-109789200D02*
X185942400Y-114317000D01*
X178418000Y-109789200D02*
X181414600Y-109789200D01*
X176660300Y-111546900D02*
X178418000Y-109789200D01*
X167364000Y-111546900D02*
X176660300Y-111546900D01*
X163062900Y-115848000D02*
X167364000Y-111546900D01*
X146622000Y-115848000D02*
X163062900Y-115848000D01*
X111891800Y-75238600D02*
X119540700Y-75238600D01*
X111829500Y-75300900D02*
X111891800Y-75238600D01*
X119540700Y-75238600D02*
X119540700Y-76872800D01*
X120885900Y-75238600D02*
X123059100Y-73065400D01*
X119540700Y-75238600D02*
X120885900Y-75238600D01*
X130584400Y-115012800D02*
X130220600Y-115376600D01*
X144336700Y-115012800D02*
X130584400Y-115012800D01*
X145171900Y-115848000D02*
X144336700Y-115012800D01*
%TO.N,/AD1*%
X145897000Y-114848000D02*
X145171900Y-114848000D01*
X145897000Y-114848000D02*
X146622000Y-114848000D01*
X166462800Y-110821800D02*
X171629900Y-110821800D01*
X162436600Y-114848000D02*
X166462800Y-110821800D01*
X146622000Y-114848000D02*
X162436600Y-114848000D01*
X181795800Y-118168000D02*
X189121000Y-118168000D01*
X181006000Y-118957800D02*
X181795800Y-118168000D01*
X181006000Y-122351400D02*
X181006000Y-118957800D01*
X180295300Y-123062100D02*
X181006000Y-122351400D01*
X174520500Y-123062100D02*
X180295300Y-123062100D01*
X124320600Y-73195500D02*
X124320600Y-72972800D01*
X119890700Y-77625400D02*
X124320600Y-73195500D01*
X113964900Y-77625400D02*
X119890700Y-77625400D01*
X113099500Y-76760000D02*
X113964900Y-77625400D01*
X119890700Y-77625400D02*
X119890700Y-78248900D01*
X128021600Y-114495900D02*
X127870100Y-114647400D01*
X144819800Y-114495900D02*
X128021600Y-114495900D01*
X145171900Y-114848000D02*
X144819800Y-114495900D01*
%TO.N,/AD0*%
X145897000Y-113848000D02*
X145171900Y-113848000D01*
X145171900Y-113848000D02*
X126943500Y-113848000D01*
X114924500Y-78666000D02*
X116384600Y-78666000D01*
X116540300Y-78821700D02*
X116786800Y-78821700D01*
X116384600Y-78666000D02*
X116540300Y-78821700D01*
X145897000Y-113848000D02*
X146622000Y-113848000D01*
X187598700Y-119200800D02*
X187795900Y-119398000D01*
X181812900Y-119200800D02*
X187598700Y-119200800D01*
X189121000Y-119398000D02*
X187795900Y-119398000D01*
X162799900Y-113848000D02*
X146622000Y-113848000D01*
X166551200Y-110096700D02*
X162799900Y-113848000D01*
X175831700Y-110096700D02*
X166551200Y-110096700D01*
X176090700Y-110355700D02*
X175831700Y-110096700D01*
X124226000Y-71831100D02*
X123805900Y-71831100D01*
X125045700Y-72650800D02*
X124226000Y-71831100D01*
X125045700Y-74175800D02*
X125045700Y-72650800D01*
X120246200Y-78975300D02*
X125045700Y-74175800D01*
X116940400Y-78975300D02*
X120246200Y-78975300D01*
X116786800Y-78821700D02*
X116940400Y-78975300D01*
%TO.N,/A0*%
X132622000Y-100848000D02*
X132622000Y-99397900D01*
X114924500Y-103462000D02*
X116384600Y-103462000D01*
X120533500Y-79934000D02*
X114924500Y-79934000D01*
X121972600Y-81373100D02*
X120533500Y-79934000D01*
X121972600Y-81935100D02*
X121972600Y-81373100D01*
X117897800Y-86009900D02*
X121972600Y-81935100D01*
X120331100Y-97634900D02*
X119773200Y-97077000D01*
X132317600Y-99397900D02*
X132622000Y-99397900D01*
X129374300Y-96454600D02*
X132317600Y-99397900D01*
X121511400Y-96454600D02*
X129374300Y-96454600D01*
X120331100Y-97634900D02*
X121511400Y-96454600D01*
X120331100Y-97944800D02*
X120331100Y-97634900D01*
X116384600Y-101891300D02*
X120331100Y-97944800D01*
X116384600Y-103462000D02*
X116384600Y-101891300D01*
%TO.N,/A1*%
X131622000Y-100848000D02*
X131622000Y-99397900D01*
X114924500Y-104733000D02*
X116384600Y-104733000D01*
X116728800Y-81549200D02*
X116384600Y-81205000D01*
X121104300Y-81549200D02*
X116728800Y-81549200D01*
X114924500Y-81205000D02*
X116384600Y-81205000D01*
X117334900Y-103782700D02*
X116384600Y-104733000D01*
X117334900Y-101887400D02*
X117334900Y-103782700D01*
X122133300Y-97089000D02*
X117334900Y-101887400D01*
X128160000Y-97089000D02*
X122133300Y-97089000D01*
X128291000Y-97220000D02*
X128160000Y-97089000D01*
X129444100Y-97220000D02*
X128291000Y-97220000D01*
X131622000Y-99397900D02*
X129444100Y-97220000D01*
%TO.N,/A2*%
X114049700Y-82473000D02*
X114923500Y-82473000D01*
X112980900Y-83541800D02*
X114049700Y-82473000D01*
X112939000Y-106001000D02*
X114923500Y-106001000D01*
X114923500Y-106001000D02*
X116383600Y-106001000D01*
X130622000Y-100848000D02*
X130622000Y-99397900D01*
X129169200Y-97945100D02*
X130622000Y-99397900D01*
X127990700Y-97945100D02*
X129169200Y-97945100D01*
X127599900Y-97554300D02*
X127990700Y-97945100D01*
X122304600Y-97554300D02*
X127599900Y-97554300D01*
X117785000Y-102073900D02*
X122304600Y-97554300D01*
X117785000Y-104059900D02*
X117785000Y-102073900D01*
X116383600Y-105461300D02*
X117785000Y-104059900D01*
X116383600Y-106001000D02*
X116383600Y-105461300D01*
%TO.N,/A3*%
X114926500Y-107312000D02*
X116386600Y-107312000D01*
X129622000Y-100848000D02*
X129622000Y-99397900D01*
X116553800Y-83951200D02*
X116386600Y-83784000D01*
X116777400Y-83951200D02*
X116553800Y-83951200D01*
X114926500Y-83784000D02*
X116386600Y-83784000D01*
X118320600Y-102563900D02*
X121235700Y-99648800D01*
X118320600Y-104235000D02*
X118320600Y-102563900D01*
X116981700Y-105573900D02*
X118320600Y-104235000D01*
X116981700Y-106716900D02*
X116981700Y-105573900D01*
X116386600Y-107312000D02*
X116981700Y-106716900D01*
X128619300Y-98395200D02*
X129622000Y-99397900D01*
X127804200Y-98395200D02*
X128619300Y-98395200D01*
X127416900Y-98007900D02*
X127804200Y-98395200D01*
X122876600Y-98007900D02*
X127416900Y-98007900D01*
X121235700Y-99648800D02*
X122876600Y-98007900D01*
%TO.N,/A4*%
X128622000Y-100848000D02*
X128622000Y-99397900D01*
X114924500Y-85016000D02*
X113464400Y-85016000D01*
X115654600Y-108544000D02*
X116384600Y-108544000D01*
X115654600Y-108544000D02*
X114924500Y-108544000D01*
X114924500Y-108544000D02*
X113464400Y-108544000D01*
X113464400Y-108070900D02*
X113190400Y-107796900D01*
X113464400Y-108544000D02*
X113464400Y-108070900D01*
X112437000Y-86043400D02*
X112437000Y-88513000D01*
X113464400Y-85016000D02*
X112437000Y-86043400D01*
X128069400Y-98845300D02*
X128622000Y-99397900D01*
X127617700Y-98845300D02*
X128069400Y-98845300D01*
X127230400Y-98458000D02*
X127617700Y-98845300D01*
X123451900Y-98458000D02*
X127230400Y-98458000D01*
X121536000Y-100373900D02*
X123451900Y-98458000D01*
X121177700Y-100373900D02*
X121536000Y-100373900D01*
X118770700Y-102780900D02*
X121177700Y-100373900D01*
X118770700Y-104421500D02*
X118770700Y-102780900D01*
X117431800Y-105760400D02*
X118770700Y-104421500D01*
X117431800Y-107496800D02*
X117431800Y-105760400D01*
X116384600Y-108544000D02*
X117431800Y-107496800D01*
%TO.N,/A5*%
X127622000Y-100848000D02*
X127622000Y-99397900D01*
X114923500Y-109815000D02*
X116383600Y-109815000D01*
X114923500Y-86287000D02*
X116383600Y-86287000D01*
X117726300Y-84944300D02*
X116383600Y-86287000D01*
X117878200Y-84944300D02*
X117726300Y-84944300D01*
X121227300Y-101099100D02*
X121502400Y-101099100D01*
X119220800Y-103105600D02*
X121227300Y-101099100D01*
X119220800Y-104608100D02*
X119220800Y-103105600D01*
X117881900Y-105947000D02*
X119220800Y-104608100D01*
X117881900Y-108316700D02*
X117881900Y-105947000D01*
X116383600Y-109815000D02*
X117881900Y-108316700D01*
X127533700Y-99397900D02*
X127622000Y-99397900D01*
X127043900Y-98908100D02*
X127533700Y-99397900D01*
X123693400Y-98908100D02*
X127043900Y-98908100D01*
X121502400Y-101099100D02*
X123693400Y-98908100D01*
%TO.N,/A6*%
X126622000Y-100848000D02*
X126622000Y-99397900D01*
X115541600Y-111122000D02*
X116385600Y-111122000D01*
X115541600Y-111122000D02*
X114925500Y-111122000D01*
X114925500Y-87594000D02*
X113465400Y-87594000D01*
X111217000Y-89268800D02*
X110942100Y-88993900D01*
X112714900Y-89268800D02*
X111217000Y-89268800D01*
X113162200Y-88821500D02*
X112714900Y-89268800D01*
X113162200Y-87897200D02*
X113162200Y-88821500D01*
X113465400Y-87594000D02*
X113162200Y-87897200D01*
X114925500Y-111122000D02*
X113465400Y-111122000D01*
X111284100Y-108940700D02*
X110500700Y-108940700D01*
X113465400Y-111122000D02*
X111284100Y-108940700D01*
X118332000Y-109175600D02*
X116385600Y-111122000D01*
X118332000Y-106145300D02*
X118332000Y-109175600D01*
X119670900Y-104806400D02*
X118332000Y-106145300D01*
X119670900Y-103328600D02*
X119670900Y-104806400D01*
X121175300Y-101824200D02*
X119670900Y-103328600D01*
X121802700Y-101824200D02*
X121175300Y-101824200D01*
X124229000Y-99397900D02*
X121802700Y-101824200D01*
X126622000Y-99397900D02*
X124229000Y-99397900D01*
%TO.N,/A7*%
X125622000Y-100848000D02*
X125622000Y-102298100D01*
X114922500Y-112352000D02*
X116382600Y-112352000D01*
X114922500Y-88824000D02*
X116382600Y-88824000D01*
X116682400Y-88824000D02*
X116751100Y-88892700D01*
X116382600Y-88824000D02*
X116682400Y-88824000D01*
X121838700Y-102298100D02*
X121587400Y-102549400D01*
X125622000Y-102298100D02*
X121838700Y-102298100D01*
X118782100Y-109952500D02*
X116382600Y-112352000D01*
X118782100Y-106331800D02*
X118782100Y-109952500D01*
X120133600Y-104980300D02*
X118782100Y-106331800D01*
X120133600Y-103522700D02*
X120133600Y-104980300D01*
X121106900Y-102549400D02*
X120133600Y-103522700D01*
X121587400Y-102549400D02*
X121106900Y-102549400D01*
%TO.N,/A12*%
X115192500Y-114257000D02*
X113059500Y-114257000D01*
X119264200Y-110185300D02*
X115192500Y-114257000D01*
X119264200Y-109412000D02*
X119264200Y-110185300D01*
X120828200Y-107848000D02*
X119264200Y-109412000D01*
X122622000Y-107848000D02*
X120828200Y-107848000D01*
X117480600Y-88394800D02*
X116978300Y-87892500D01*
X117480600Y-89188700D02*
X117480600Y-88394800D01*
X116913500Y-89755800D02*
X117480600Y-89188700D01*
X114032700Y-89755800D02*
X116913500Y-89755800D01*
X113059500Y-90729000D02*
X114032700Y-89755800D01*
X124127000Y-107848000D02*
X124351900Y-108072900D01*
X122622000Y-107848000D02*
X124127000Y-107848000D01*
%TO.N,/A15*%
X107293800Y-93777000D02*
X106104900Y-94965900D01*
X110201600Y-93777000D02*
X107293800Y-93777000D01*
X111789500Y-92189100D02*
X110201600Y-93777000D01*
X111789500Y-90729000D02*
X111789500Y-92189100D01*
X106136700Y-110559100D02*
X106136700Y-110559000D01*
X110155400Y-110559100D02*
X106136700Y-110559100D01*
X111789500Y-112193200D02*
X110155400Y-110559100D01*
X111789500Y-114257000D02*
X111789500Y-112193200D01*
X111789500Y-114931700D02*
X111789500Y-114257000D01*
X112574900Y-115717100D02*
X111789500Y-114931700D01*
X114514200Y-115717100D02*
X112574900Y-115717100D01*
X117383300Y-112848000D02*
X114514200Y-115717100D01*
X122622000Y-112848000D02*
X117383300Y-112848000D01*
%TO.N,/A16*%
X110199400Y-92190100D02*
X109916100Y-92473400D01*
X110479500Y-92190100D02*
X110199400Y-92190100D01*
X110479500Y-114258000D02*
X110479500Y-115718100D01*
X110479500Y-112001300D02*
X110479500Y-114258000D01*
X110492200Y-111988600D02*
X110479500Y-112001300D01*
X122622000Y-113848000D02*
X121171900Y-113848000D01*
X110479500Y-90730000D02*
X110479500Y-92190100D01*
X121171900Y-113848100D02*
X121171900Y-113848000D01*
X117338100Y-113848100D02*
X121171900Y-113848100D01*
X115019000Y-116167200D02*
X117338100Y-113848100D01*
X112388400Y-116167200D02*
X115019000Y-116167200D01*
X111939300Y-115718100D02*
X112388400Y-116167200D01*
X110479500Y-115718100D02*
X111939300Y-115718100D01*
%TO.N,/A18*%
X109210500Y-114259000D02*
X109210500Y-112798900D01*
X120896200Y-116123700D02*
X117149300Y-116123700D01*
X121171900Y-115848000D02*
X120896200Y-116123700D01*
X122622000Y-115848000D02*
X121171900Y-115848000D01*
X108915900Y-91025600D02*
X108915900Y-92472600D01*
X109210500Y-90731000D02*
X108915900Y-91025600D01*
X109263100Y-112798900D02*
X109538800Y-112523200D01*
X109210500Y-112798900D02*
X109263100Y-112798900D01*
%TD*%
M02*
