%TF.GenerationSoftware,KiCad,Pcbnew,(6.0.2)*%
%TF.CreationDate,2022-10-23T12:11:52-05:00*%
%TF.ProjectId,REF1329_Optimized,52454631-3332-4395-9f4f-7074696d697a,rev?*%
%TF.SameCoordinates,Original*%
%TF.FileFunction,Copper,L2,Bot*%
%TF.FilePolarity,Positive*%
%FSLAX46Y46*%
G04 Gerber Fmt 4.6, Leading zero omitted, Abs format (unit mm)*
G04 Created by KiCad (PCBNEW (6.0.2)) date 2022-10-23 12:11:52*
%MOMM*%
%LPD*%
G01*
G04 APERTURE LIST*
%TA.AperFunction,NonConductor*%
%ADD10C,0.000001*%
%TD*%
%TA.AperFunction,SMDPad,CuDef*%
%ADD11R,1.530000X6.250000*%
%TD*%
%TA.AperFunction,ComponentPad*%
%ADD12R,1.590000X1.590000*%
%TD*%
%TA.AperFunction,ComponentPad*%
%ADD13C,4.680000*%
%TD*%
%TA.AperFunction,SMDPad,CuDef*%
%ADD14R,1.530000X9.000000*%
%TD*%
%TA.AperFunction,ComponentPad*%
%ADD15R,1.600000X1.600000*%
%TD*%
%TA.AperFunction,ComponentPad*%
%ADD16C,1.600000*%
%TD*%
%TA.AperFunction,ViaPad*%
%ADD17C,0.800000*%
%TD*%
%TA.AperFunction,Conductor*%
%ADD18C,0.250000*%
%TD*%
%TA.AperFunction,Conductor*%
%ADD19C,0.500000*%
%TD*%
G04 APERTURE END LIST*
D10*
X180110200Y-69948700D02*
G75*
G03*
X180110200Y-69948700I0J0D01*
G01*
X180110200Y-70534700D02*
G75*
G03*
X180110200Y-70534700I0J0D01*
G01*
X180108200Y-66477700D02*
G75*
G03*
X180108200Y-66477700I0J0D01*
G01*
X180110200Y-68247700D02*
G75*
G03*
X180110200Y-68247700I0J0D01*
G01*
D11*
%TO.P,J3,26,Pin_1*%
%TO.N,/GND*%
X119026000Y-67712000D03*
%TO.P,J3,27,Pin_2*%
X121544000Y-67712000D03*
%TO.P,J3,28,Pin_3*%
%TO.N,/AD0*%
X124069000Y-67712000D03*
%TO.P,J3,29,Pin_4*%
%TO.N,/AD1*%
X126596000Y-67712000D03*
%TO.P,J3,30,Pin_5*%
%TO.N,/AD2*%
X129115000Y-67712000D03*
%TO.P,J3,31,Pin_6*%
%TO.N,/GND*%
X131634000Y-67712000D03*
%TO.P,J3,32,Pin_7*%
%TO.N,/AD3*%
X134157000Y-67712000D03*
%TO.P,J3,33,Pin_8*%
%TO.N,/ALE_L*%
X136676000Y-67712000D03*
%TO.P,J3,34,Pin_9*%
%TO.N,/VCC*%
X139195000Y-67712000D03*
%TO.P,J3,35,Pin_10*%
%TO.N,/ALE_H*%
X141723000Y-67712000D03*
%TO.P,J3,36,Pin_11*%
%TO.N,/AD4*%
X144248000Y-67712000D03*
%TO.P,J3,37,Pin_12*%
%TO.N,/AD5*%
X146769000Y-67712000D03*
%TO.P,J3,38,Pin_13*%
%TO.N,/12V_Rear*%
X149293000Y-67712000D03*
%TO.P,J3,39,Pin_14*%
%TO.N,/UNUSED_Rear*%
X151813000Y-67712000D03*
%TO.P,J3,40,Pin_15*%
%TO.N,/AD6*%
X154333000Y-67712000D03*
%TO.P,J3,41,Pin_16*%
%TO.N,/AD7*%
X156852000Y-67712000D03*
%TO.P,J3,42,Pin_17*%
%TO.N,/VCC*%
X159370000Y-67712000D03*
%TO.P,J3,43,Pin_18*%
%TO.N,/CIC_DATA2*%
X161894000Y-67712000D03*
%TO.P,J3,44,Pin_19*%
%TO.N,/Unknown_1*%
X164420000Y-67712000D03*
%TO.P,J3,45,Pin_20*%
%TO.N,/{slash}OS EVENT*%
X166938000Y-67712000D03*
%TO.P,J3,46,Pin_21*%
%TO.N,/Unknown_2*%
X169458000Y-67712000D03*
%TO.P,J3,47,Pin_22*%
%TO.N,/GND*%
X171977000Y-67712000D03*
%TO.P,J3,48,Pin_23*%
X174507000Y-67712000D03*
%TO.P,J3,49,Pin_24*%
%TO.N,/RAUDIO*%
X177033000Y-67712000D03*
%TO.P,J3,50,Pin_25*%
%TO.N,/GND*%
X179552000Y-67712000D03*
%TD*%
D12*
%TO.P,SW1,1,1*%
%TO.N,/GND*%
X193086500Y-95977500D03*
X193126500Y-89627500D03*
%TO.P,SW1,2,2*%
%TO.N,/Button*%
X197572500Y-95980500D03*
X197611500Y-89628500D03*
%TD*%
D13*
%TO.P,Hole1,1*%
%TO.N,N/C*%
X108395000Y-67879000D03*
%TD*%
D14*
%TO.P,J5,26,Pin_25*%
%TO.N,/GND*%
X119072000Y-130450000D03*
%TO.P,J5,27,Pin_24*%
X121590000Y-130464000D03*
%TO.P,J5,28,Pin_23*%
%TO.N,/AD0*%
X124115000Y-130452000D03*
%TO.P,J5,29,Pin_22*%
%TO.N,/AD1*%
X126642000Y-130446000D03*
%TO.P,J5,30,Pin_21*%
%TO.N,/AD2*%
X129161000Y-130460000D03*
%TO.P,J5,31,Pin_20*%
%TO.N,/GND*%
X131680000Y-130446000D03*
%TO.P,J5,32,Pin_19*%
%TO.N,/AD3*%
X134203000Y-130435000D03*
%TO.P,J5,33,Pin_18*%
%TO.N,/ALE_L*%
X136722000Y-130421000D03*
%TO.P,J5,34,Pin_17*%
%TO.N,/VCC*%
X139241000Y-130449000D03*
%TO.P,J5,35,Pin_16*%
%TO.N,/ALE_H*%
X141769000Y-130449000D03*
%TO.P,J5,36,Pin_15*%
%TO.N,/AD4*%
X144294000Y-130440000D03*
%TO.P,J5,37,Pin_14*%
%TO.N,/AD5*%
X146815000Y-130432000D03*
%TO.P,J5,38,Pin_13*%
%TO.N,/12V_Rear*%
X149339000Y-130416000D03*
%TO.P,J5,39,Pin_12*%
%TO.N,/UNUSED_Rear*%
X151859000Y-130389000D03*
%TO.P,J5,40,Pin_11*%
%TO.N,/AD6*%
X154379000Y-130401000D03*
%TO.P,J5,41,Pin_10*%
%TO.N,/AD7*%
X156898000Y-130387000D03*
%TO.P,J5,42,Pin_9*%
%TO.N,/VCC*%
X159416000Y-130453000D03*
%TO.P,J5,43,Pin_8*%
%TO.N,/CIC_DATA2*%
X161940000Y-130447000D03*
%TO.P,J5,44,Pin_7*%
%TO.N,/Unknown_1*%
X164466000Y-130437000D03*
%TO.P,J5,45,Pin_6*%
%TO.N,/{slash}OS EVENT*%
X166984000Y-130433000D03*
%TO.P,J5,46,Pin_5*%
%TO.N,/Unknown_2*%
X169504000Y-130418000D03*
%TO.P,J5,47,Pin_4*%
%TO.N,/GND*%
X172023000Y-130418000D03*
%TO.P,J5,48,Pin_3*%
X174553000Y-130402000D03*
%TO.P,J5,49,Pin_2*%
%TO.N,/RAUDIO*%
X177079000Y-130401000D03*
%TO.P,J5,50,Pin_1*%
%TO.N,/GND*%
X179598000Y-130460000D03*
%TD*%
D13*
%TO.P,Hole2,1*%
%TO.N,N/C*%
X104544000Y-121691000D03*
%TD*%
D15*
%TO.P,U3,1,CA*%
%TO.N,/VCC*%
X168639500Y-75512500D03*
D16*
%TO.P,U3,2,F*%
%TO.N,/F*%
X168639500Y-78052500D03*
%TO.P,U3,3,G*%
%TO.N,/G*%
X168639500Y-80592500D03*
%TO.P,U3,4,E*%
%TO.N,/E*%
X168639500Y-83132500D03*
%TO.P,U3,5,D*%
%TO.N,/D*%
X168639500Y-85672500D03*
%TO.P,U3,6,CA*%
%TO.N,/VCC*%
X173719500Y-85672500D03*
%TO.P,U3,7,DP*%
%TO.N,/DP*%
X173719500Y-83132500D03*
%TO.P,U3,8,C*%
%TO.N,/C*%
X173719500Y-80592500D03*
%TO.P,U3,9,B*%
%TO.N,/B*%
X173719500Y-78052500D03*
%TO.P,U3,10,A*%
%TO.N,/A*%
X173719500Y-75512500D03*
%TD*%
D13*
%TO.P,Hole3,1*%
%TO.N,N/C*%
X190826000Y-67918000D03*
%TD*%
%TO.P,Hole4,1*%
%TO.N,N/C*%
X194001000Y-121736000D03*
%TD*%
D15*
%TO.P,J1,1,1*%
%TO.N,unconnected-(J1-Pad1)*%
X166066000Y-91391700D03*
D16*
%TO.P,J1,2,2*%
%TO.N,/PPort_2*%
X163296000Y-91391700D03*
%TO.P,J1,3,3*%
%TO.N,/PPort_3*%
X160526000Y-91391700D03*
%TO.P,J1,4,4*%
%TO.N,/PPort_4*%
X157756000Y-91391700D03*
%TO.P,J1,5,5*%
%TO.N,/PPort_5*%
X154986000Y-91391700D03*
%TO.P,J1,6,6*%
%TO.N,/PPort_6*%
X152216000Y-91391700D03*
%TO.P,J1,7,7*%
%TO.N,unconnected-(J1-Pad7)*%
X149446000Y-91391700D03*
%TO.P,J1,8,8*%
%TO.N,unconnected-(J1-Pad8)*%
X146676000Y-91391700D03*
%TO.P,J1,9,9*%
%TO.N,unconnected-(J1-Pad9)*%
X143906000Y-91391700D03*
%TO.P,J1,10,10*%
%TO.N,/PPort_10*%
X141136000Y-91391700D03*
%TO.P,J1,11,11*%
%TO.N,/PPort_11*%
X138366000Y-91391700D03*
%TO.P,J1,12,12*%
%TO.N,/PPort_12*%
X135596000Y-91391700D03*
%TO.P,J1,13,13*%
%TO.N,/PPort_13*%
X132826000Y-91391700D03*
%TO.P,J1,14,P14*%
%TO.N,unconnected-(J1-Pad14)*%
X164681000Y-94231700D03*
%TO.P,J1,15,P15*%
%TO.N,/PPort_15*%
X161911000Y-94231700D03*
%TO.P,J1,16,P16*%
%TO.N,unconnected-(J1-Pad16)*%
X159141000Y-94231700D03*
%TO.P,J1,17,P17*%
%TO.N,unconnected-(J1-Pad17)*%
X156371000Y-94231700D03*
%TO.P,J1,18,P18*%
%TO.N,/GND*%
X153601000Y-94231700D03*
%TO.P,J1,19,P19*%
X150831000Y-94231700D03*
%TO.P,J1,20,P20*%
X148061000Y-94231700D03*
%TO.P,J1,21,P21*%
X145291000Y-94231700D03*
%TO.P,J1,22,P22*%
X142521000Y-94231700D03*
%TO.P,J1,23,P23*%
X139751000Y-94231700D03*
%TO.P,J1,24,P24*%
X136981000Y-94231700D03*
%TO.P,J1,25,P25*%
X134211000Y-94231700D03*
%TD*%
D17*
%TO.N,/Q2*%
X191067600Y-80594700D03*
X185806600Y-76881500D03*
%TO.N,/74HC04-374*%
X181738100Y-111180100D03*
X184482800Y-108965800D03*
%TO.N,/LAUDIO*%
X176692000Y-124916000D03*
X175982600Y-71408800D03*
%TO.N,/S_DAT*%
X168256800Y-72966900D03*
X170241800Y-125139500D03*
%TO.N,/1.6MHZ*%
X165188600Y-122987100D03*
X165136300Y-72235700D03*
%TO.N,/CIC_DATA1*%
X161657000Y-125338900D03*
X161260900Y-71576600D03*
%TO.N,/UNUSED_Front*%
X151802200Y-124836900D03*
X152414600Y-71601700D03*
%TO.N,/12V_Front*%
X143351100Y-124545300D03*
X143420200Y-73606400D03*
%TO.N,/PPort_15*%
X161368400Y-116588600D03*
%TO.N,/PPort_13*%
X183220000Y-88840300D03*
X190749600Y-119626800D03*
%TO.N,/PPort_12*%
X175894200Y-94752000D03*
X186925300Y-116623600D03*
%TO.N,/PPort_11*%
X177948900Y-89527700D03*
X186120600Y-111451800D03*
%TO.N,/PPort_10*%
X177150000Y-94336800D03*
X187093700Y-115160000D03*
%TO.N,/C*%
X174844700Y-73909600D03*
%TO.N,/E*%
X175188600Y-83110300D03*
%TO.N,/{slash}read_top*%
X139384000Y-98087600D03*
X141723000Y-71437500D03*
%TO.N,/74HC04*%
X177449800Y-102241100D03*
X182886200Y-109489600D03*
%TO.N,/74HC164_CP*%
X187123800Y-77932500D03*
X179124200Y-97439300D03*
%TO.N,/PPort_6*%
X148545600Y-102985500D03*
%TO.N,/PPort_5*%
X148545600Y-107057400D03*
%TO.N,/PPort_4*%
X149720800Y-107848000D03*
%TO.N,/PPort_3*%
X149211200Y-108779500D03*
%TO.N,/PPort_2*%
X148545600Y-111848000D03*
%TO.N,/ALE_H*%
X142547300Y-120585800D03*
%TO.N,/ALE_L*%
X138708800Y-117118200D03*
%TO.N,/{slash}COLD_RESET*%
X166574600Y-125326400D03*
X166574600Y-120759300D03*
X166739200Y-72518500D03*
%TO.N,/AD15*%
X123149400Y-118986100D03*
X103329100Y-100949300D03*
%TO.N,/AD14*%
X127622000Y-122356900D03*
X124788500Y-81770500D03*
%TO.N,/AD13*%
X128420300Y-121473900D03*
X123152600Y-85760200D03*
%TO.N,/AD12*%
X129901700Y-120795600D03*
X123602700Y-87134500D03*
%TO.N,/AD11*%
X132604100Y-116987100D03*
X127569200Y-92881800D03*
%TO.N,/AD10*%
X133706800Y-120579900D03*
X135594800Y-79929100D03*
X130823400Y-95685700D03*
%TO.N,/AD9*%
X134446200Y-116955500D03*
X136130000Y-81419900D03*
X132367500Y-98148900D03*
%TO.N,/AD8*%
X157453900Y-71764000D03*
X157788500Y-125255900D03*
X159852200Y-120102500D03*
X126008400Y-114732600D03*
X116192700Y-101057700D03*
%TO.N,/VCC*%
X159572000Y-125346900D03*
X159525800Y-71442900D03*
X139241000Y-125312900D03*
X107900500Y-92474800D03*
X174201400Y-107983000D03*
X174201400Y-121935000D03*
X139511600Y-110912600D03*
X139195000Y-71444700D03*
X120871300Y-108848000D03*
X109725200Y-74391400D03*
X108896600Y-117810800D03*
X141546500Y-75873700D03*
X107954300Y-112317100D03*
%TO.N,/{slash}write*%
X106887400Y-92490100D03*
X106629500Y-112498500D03*
X127772900Y-82307900D03*
X130995300Y-121493300D03*
%TO.N,/A17*%
X106183300Y-93277000D03*
X105398500Y-112511200D03*
%TO.N,/A13*%
X101180300Y-87596000D03*
X101745400Y-111124000D03*
X120005300Y-110729700D03*
%TO.N,/A8*%
X110950800Y-107766700D03*
X109272700Y-86045100D03*
X120860800Y-103873900D03*
%TO.N,/A9*%
X105959700Y-85015000D03*
X105887700Y-108543000D03*
X124523100Y-104686300D03*
X111082100Y-85015000D03*
%TO.N,/A11*%
X105232200Y-83783000D03*
X105232200Y-107541200D03*
X110571000Y-83783000D03*
X124565900Y-105940800D03*
%TO.N,/Output_Enable*%
X115114000Y-95583600D03*
X112988800Y-82508300D03*
X113089500Y-104543800D03*
%TO.N,/A10*%
X113037300Y-81493100D03*
X111162700Y-105220800D03*
X120015500Y-106123800D03*
%TO.N,/Chip_Enable*%
X111950800Y-103465000D03*
X108755800Y-79937000D03*
X113339800Y-97488400D03*
%TO.N,/AD7*%
X155928100Y-120050200D03*
X150850400Y-88906100D03*
X126896300Y-91114200D03*
X105367300Y-78665000D03*
X157242800Y-123313300D03*
%TO.N,/AD6*%
X150356000Y-122712500D03*
X115941000Y-71017300D03*
X128282900Y-88010000D03*
X151578900Y-75092000D03*
%TO.N,/AD5*%
X145127500Y-122321800D03*
X144644600Y-108782400D03*
X124404500Y-103217100D03*
X108874700Y-78742700D03*
%TO.N,/AD4*%
X113555900Y-71339400D03*
X127064900Y-88916200D03*
X142980600Y-88369500D03*
X144189700Y-121343800D03*
%TO.N,/AD3*%
X163800900Y-111735000D03*
X154927900Y-120465000D03*
X136970900Y-117072900D03*
X125509000Y-103621100D03*
X136032300Y-103683400D03*
X113166400Y-79033800D03*
%TO.N,/GND*%
X119169500Y-125342300D03*
X131634000Y-71479800D03*
X178817200Y-71444400D03*
X134882100Y-109848000D03*
X193463800Y-75127700D03*
X119629000Y-71439900D03*
X131680000Y-125315900D03*
X171878600Y-71479500D03*
X179125400Y-125122800D03*
X135337600Y-112822700D03*
X174239600Y-125246200D03*
%TO.N,/AD2*%
X130220600Y-115376600D03*
X119540700Y-76872800D03*
X123059100Y-73065400D03*
%TO.N,/AD1*%
X127870100Y-114647400D03*
X119890700Y-78248900D03*
X171629900Y-110821800D03*
X174520500Y-123062100D03*
X124320600Y-72972800D03*
%TO.N,/AD0*%
X126943500Y-113848000D03*
X116786800Y-78821700D03*
X123805900Y-71831100D03*
X176090700Y-110355700D03*
X181812900Y-119200800D03*
%TO.N,/A0*%
X119773200Y-97077000D03*
X117897800Y-86009900D03*
%TO.N,/A1*%
X128291000Y-97220000D03*
X121104300Y-81549200D03*
%TO.N,/A2*%
X112939000Y-106001000D03*
X112980900Y-83541800D03*
%TO.N,/A3*%
X121235700Y-99648800D03*
X116777400Y-83951200D03*
%TO.N,/A4*%
X112437000Y-88513000D03*
X113190400Y-107796900D03*
%TO.N,/A5*%
X121502400Y-101099100D03*
X117878200Y-84944300D03*
%TO.N,/A6*%
X110500700Y-108940700D03*
X110942100Y-88993900D03*
%TO.N,/A7*%
X121587400Y-102549400D03*
X116751100Y-88892700D03*
%TO.N,/A12*%
X116978300Y-87892500D03*
X124351900Y-108072900D03*
%TO.N,/A15*%
X106104900Y-94965900D03*
X106136700Y-110559000D03*
%TO.N,/A16*%
X110492200Y-111988600D03*
X109916100Y-92473400D03*
%TO.N,/A18*%
X109538800Y-112523200D03*
X117149300Y-116123700D03*
X108915900Y-92472600D03*
%TD*%
D18*
%TO.N,/Q2*%
X187354400Y-76881500D02*
X185806600Y-76881500D01*
X191067600Y-80594700D02*
X187354400Y-76881500D01*
%TO.N,/74HC04-374*%
X182268500Y-111180100D02*
X181738100Y-111180100D01*
X184482800Y-108965800D02*
X182268500Y-111180100D01*
%TO.N,/LAUDIO*%
X175982600Y-93001600D02*
X175982600Y-71408800D01*
X174719000Y-94265200D02*
X175982600Y-93001600D01*
X174719000Y-95238800D02*
X174719000Y-94265200D01*
X174969200Y-95489000D02*
X174719000Y-95238800D01*
X174969200Y-109815200D02*
X174969200Y-95489000D01*
X174915500Y-109868900D02*
X174969200Y-109815200D01*
X174915500Y-110842500D02*
X174915500Y-109868900D01*
X175130200Y-111057200D02*
X174915500Y-110842500D01*
X175130200Y-122646300D02*
X175130200Y-111057200D01*
X176692000Y-124208100D02*
X175130200Y-122646300D01*
X176692000Y-124916000D02*
X176692000Y-124208100D01*
%TO.N,/S_DAT*%
X167064300Y-74159400D02*
X168256800Y-72966900D01*
X167064300Y-83205400D02*
X167064300Y-74159400D01*
X168406300Y-84547400D02*
X167064300Y-83205400D01*
X169105500Y-84547400D02*
X168406300Y-84547400D01*
X170589600Y-86031500D02*
X169105500Y-84547400D01*
X170589600Y-124791700D02*
X170589600Y-86031500D01*
X170241800Y-125139500D02*
X170589600Y-124791700D01*
%TO.N,/1.6MHZ*%
X165188600Y-117447600D02*
X165188600Y-122987100D01*
X167129500Y-115506700D02*
X165188600Y-117447600D01*
X167129500Y-114870100D02*
X167129500Y-115506700D01*
X168626200Y-113373400D02*
X167129500Y-114870100D01*
X168626200Y-89972900D02*
X168626200Y-113373400D01*
X165136300Y-86483000D02*
X168626200Y-89972900D01*
X165136300Y-72235700D02*
X165136300Y-86483000D01*
%TO.N,/CIC_DATA1*%
X161657000Y-119069400D02*
X161657000Y-125338900D01*
X165779200Y-114947200D02*
X161657000Y-119069400D01*
X165779200Y-114310600D02*
X165779200Y-114947200D01*
X167212100Y-112877700D02*
X165779200Y-114310600D01*
X167212100Y-90468700D02*
X167212100Y-112877700D01*
X161260900Y-84517500D02*
X167212100Y-90468700D01*
X161260900Y-71576600D02*
X161260900Y-84517500D01*
%TO.N,/UNUSED_Front*%
X149652300Y-74364000D02*
X152414600Y-71601700D01*
X149652300Y-90006900D02*
X149652300Y-74364000D01*
X150571100Y-90925700D02*
X149652300Y-90006900D01*
X150571100Y-91857700D02*
X150571100Y-90925700D01*
X149636200Y-92792600D02*
X150571100Y-91857700D01*
X149636200Y-94884200D02*
X149636200Y-92792600D01*
X147370300Y-97150100D02*
X149636200Y-94884200D01*
X147370300Y-120802600D02*
X147370300Y-97150100D01*
X151404600Y-124836900D02*
X147370300Y-120802600D01*
X151802200Y-124836900D02*
X151404600Y-124836900D01*
%TO.N,/12V_Front*%
X143351100Y-108413900D02*
X143351100Y-124545300D01*
X143684400Y-108080600D02*
X143351100Y-108413900D01*
X143684400Y-93465700D02*
X143684400Y-108080600D01*
X142780800Y-92562100D02*
X143684400Y-93465700D01*
X142780800Y-89473300D02*
X142780800Y-92562100D01*
X142254500Y-88947000D02*
X142780800Y-89473300D01*
X142254500Y-87996900D02*
X142254500Y-88947000D01*
X143420200Y-86831200D02*
X142254500Y-87996900D01*
X143420200Y-73606400D02*
X143420200Y-86831200D01*
%TO.N,/RAUDIO*%
X177079000Y-130401000D02*
X177079000Y-125575900D01*
X177033000Y-67712000D02*
X177033000Y-71162100D01*
X177417100Y-125237800D02*
X177079000Y-125575900D01*
X177417100Y-124160700D02*
X177417100Y-125237800D01*
X175580300Y-122323900D02*
X177417100Y-124160700D01*
X175580300Y-110870700D02*
X175580300Y-122323900D01*
X175365600Y-110656000D02*
X175580300Y-110870700D01*
X175365600Y-110055400D02*
X175365600Y-110656000D01*
X175419300Y-110001700D02*
X175365600Y-110055400D01*
X175419300Y-95302500D02*
X175419300Y-110001700D01*
X175169100Y-95052300D02*
X175419300Y-95302500D01*
X175169100Y-94451700D02*
X175169100Y-95052300D01*
X177033000Y-92587800D02*
X175169100Y-94451700D01*
X177033000Y-71162100D02*
X177033000Y-92587800D01*
%TO.N,/Unknown_2*%
X169458000Y-67712000D02*
X169458000Y-71162100D01*
X168955800Y-71162100D02*
X169458000Y-71162100D01*
X167464300Y-72653600D02*
X168955800Y-71162100D01*
X167464300Y-72818900D02*
X167464300Y-72653600D01*
X166614200Y-73669000D02*
X167464300Y-72818900D01*
X166614200Y-85414600D02*
X166614200Y-73669000D01*
X170057200Y-88857600D02*
X166614200Y-85414600D01*
X170057200Y-115125400D02*
X170057200Y-88857600D01*
X169504000Y-115678600D02*
X170057200Y-115125400D01*
X169504000Y-130418000D02*
X169504000Y-115678600D01*
%TO.N,/{slash}OS EVENT*%
X166938000Y-67712000D02*
X166938000Y-71162100D01*
X165818500Y-129267500D02*
X166984000Y-130433000D01*
X165818500Y-123382700D02*
X165818500Y-129267500D01*
X165913700Y-123287500D02*
X165818500Y-123382700D01*
X165913700Y-122686700D02*
X165913700Y-123287500D01*
X165818500Y-122591500D02*
X165913700Y-122686700D01*
X165818500Y-117454300D02*
X165818500Y-122591500D01*
X167579600Y-115693200D02*
X165818500Y-117454300D01*
X167579600Y-115056600D02*
X167579600Y-115693200D01*
X169116100Y-113520100D02*
X167579600Y-115056600D01*
X169116100Y-89826100D02*
X169116100Y-113520100D01*
X165639000Y-86349000D02*
X169116100Y-89826100D01*
X165639000Y-72982100D02*
X165639000Y-86349000D01*
X166014100Y-72607000D02*
X165639000Y-72982100D01*
X166014100Y-72086000D02*
X166014100Y-72607000D01*
X166938000Y-71162100D02*
X166014100Y-72086000D01*
%TO.N,/Unknown_1*%
X164420000Y-67712000D02*
X164420000Y-71162100D01*
X164466000Y-130437000D02*
X164466000Y-125611900D01*
X164463500Y-125609400D02*
X164466000Y-125611900D01*
X164463500Y-117536100D02*
X164463500Y-125609400D01*
X166679400Y-115320200D02*
X164463500Y-117536100D01*
X166679400Y-114683600D02*
X166679400Y-115320200D01*
X168176100Y-113186900D02*
X166679400Y-114683600D01*
X168176100Y-90159400D02*
X168176100Y-113186900D01*
X164363700Y-86347000D02*
X168176100Y-90159400D01*
X164363700Y-71218400D02*
X164363700Y-86347000D01*
X164420000Y-71162100D02*
X164363700Y-71218400D01*
%TO.N,/CIC_DATA2*%
X161894000Y-67712000D02*
X161894000Y-71162100D01*
X162390100Y-129996900D02*
X161940000Y-130447000D01*
X162390100Y-118972900D02*
X162390100Y-129996900D01*
X166229300Y-115133700D02*
X162390100Y-118972900D01*
X166229300Y-114497100D02*
X166229300Y-115133700D01*
X167688800Y-113037600D02*
X166229300Y-114497100D01*
X167688800Y-90308800D02*
X167688800Y-113037600D01*
X161986000Y-84606000D02*
X167688800Y-90308800D01*
X161986000Y-71254100D02*
X161986000Y-84606000D01*
X161894000Y-71162100D02*
X161986000Y-71254100D01*
%TO.N,/UNUSED_Rear*%
X151859000Y-130389000D02*
X151859000Y-125563900D01*
X151813000Y-67712000D02*
X151813000Y-71162100D01*
X148309600Y-74665500D02*
X151813000Y-71162100D01*
X148309600Y-92889200D02*
X148309600Y-74665500D01*
X149186100Y-93765700D02*
X148309600Y-92889200D01*
X149186100Y-94697700D02*
X149186100Y-93765700D01*
X146881700Y-97002100D02*
X149186100Y-94697700D01*
X146881700Y-120984500D02*
X146881700Y-97002100D01*
X151461100Y-125563900D02*
X146881700Y-120984500D01*
X151859000Y-125563900D02*
X151461100Y-125563900D01*
%TO.N,/12V_Rear*%
X147859200Y-72595900D02*
X149293000Y-71162100D01*
X147859200Y-92504200D02*
X147859200Y-72595900D01*
X146866300Y-93497100D02*
X147859200Y-92504200D01*
X146866300Y-95857700D02*
X146866300Y-93497100D01*
X146418300Y-96305700D02*
X146866300Y-95857700D01*
X146418300Y-122292000D02*
X146418300Y-96305700D01*
X149339000Y-125212700D02*
X146418300Y-122292000D01*
X149339000Y-130416000D02*
X149339000Y-125212700D01*
X149293000Y-67712000D02*
X149293000Y-71162100D01*
%TO.N,/PPort_15*%
X164564200Y-113392800D02*
X161368400Y-116588600D01*
X164564200Y-96884900D02*
X164564200Y-113392800D01*
X161911000Y-94231700D02*
X164564200Y-96884900D01*
%TO.N,/PPort_13*%
X190749600Y-96369900D02*
X183220000Y-88840300D01*
X190749600Y-119626800D02*
X190749600Y-96369900D01*
%TO.N,/PPort_12*%
X186147500Y-116623600D02*
X186925300Y-116623600D01*
X175894200Y-106370300D02*
X186147500Y-116623600D01*
X175894200Y-94752000D02*
X175894200Y-106370300D01*
%TO.N,/PPort_11*%
X177948900Y-98564000D02*
X177948900Y-89527700D01*
X186120600Y-106735700D02*
X177948900Y-98564000D01*
X186120600Y-111451800D02*
X186120600Y-106735700D01*
%TO.N,/PPort_10*%
X185268400Y-113334700D02*
X187093700Y-115160000D01*
X185268400Y-108544200D02*
X185268400Y-113334700D01*
X177150000Y-100425800D02*
X185268400Y-108544200D01*
X177150000Y-94336800D02*
X177150000Y-100425800D01*
%TO.N,/C*%
X174844700Y-79467300D02*
X174844700Y-73909600D01*
X173719500Y-80592500D02*
X174844700Y-79467300D01*
%TO.N,/E*%
X175188600Y-82979200D02*
X175188600Y-83110300D01*
X173927100Y-81717700D02*
X175188600Y-82979200D01*
X173241500Y-81717700D02*
X173927100Y-81717700D01*
X170464800Y-78941000D02*
X173241500Y-81717700D01*
X170464800Y-75250100D02*
X170464800Y-78941000D01*
X169571600Y-74356900D02*
X170464800Y-75250100D01*
X167733100Y-74356900D02*
X169571600Y-74356900D01*
X167514400Y-74575600D02*
X167733100Y-74356900D01*
X167514400Y-82007400D02*
X167514400Y-74575600D01*
X168639500Y-83132500D02*
X167514400Y-82007400D01*
%TO.N,/{slash}read_top*%
X141723000Y-75024700D02*
X141723000Y-71437500D01*
X142271600Y-75573300D02*
X141723000Y-75024700D01*
X142271600Y-76174100D02*
X142271600Y-75573300D01*
X140010900Y-78434800D02*
X142271600Y-76174100D01*
X140010900Y-91857600D02*
X140010900Y-78434800D01*
X140887400Y-92734100D02*
X140010900Y-91857600D01*
X140887400Y-96584200D02*
X140887400Y-92734100D01*
X139384000Y-98087600D02*
X140887400Y-96584200D01*
%TO.N,/74HC04*%
X182886200Y-107677500D02*
X182886200Y-109489600D01*
X177449800Y-102241100D02*
X182886200Y-107677500D01*
%TO.N,/74HC164_CP*%
X179124200Y-85932100D02*
X179124200Y-97439300D01*
X187123800Y-77932500D02*
X179124200Y-85932100D01*
%TO.N,/PPort_6*%
X152406200Y-91581900D02*
X152216000Y-91391700D01*
X152406200Y-99124900D02*
X152406200Y-91581900D01*
X148545600Y-102985500D02*
X152406200Y-99124900D01*
%TO.N,/PPort_5*%
X154986000Y-100617000D02*
X148545600Y-107057400D01*
X154986000Y-91391700D02*
X154986000Y-100617000D01*
%TO.N,/PPort_4*%
X157756000Y-99812800D02*
X149720800Y-107848000D01*
X157756000Y-91391700D02*
X157756000Y-99812800D01*
%TO.N,/PPort_3*%
X149814900Y-108779500D02*
X149211200Y-108779500D01*
X160266100Y-98328300D02*
X149814900Y-108779500D01*
X160266100Y-91651600D02*
X160266100Y-98328300D01*
X160526000Y-91391700D02*
X160266100Y-91651600D01*
%TO.N,/PPort_2*%
X160751000Y-99642600D02*
X148545600Y-111848000D01*
X160751000Y-93799200D02*
X160751000Y-99642600D01*
X163158500Y-91391700D02*
X160751000Y-93799200D01*
X163296000Y-91391700D02*
X163158500Y-91391700D01*
%TO.N,/Button*%
X197611500Y-94821400D02*
X197572500Y-94860400D01*
X197611500Y-89628500D02*
X197611500Y-94821400D01*
X197572500Y-95980500D02*
X197572500Y-94860400D01*
%TO.N,/ALE_H*%
X141769000Y-130449000D02*
X141769000Y-125623900D01*
X142547300Y-124845600D02*
X142547300Y-120585800D01*
X141769000Y-125623900D02*
X142547300Y-124845600D01*
X142603200Y-68592200D02*
X141723000Y-67712000D01*
X142603200Y-75268300D02*
X142603200Y-68592200D01*
X142721700Y-75386800D02*
X142603200Y-75268300D01*
X142721700Y-85603200D02*
X142721700Y-75386800D01*
X141800600Y-86524300D02*
X142721700Y-85603200D01*
X141800600Y-89468300D02*
X141800600Y-86524300D01*
X142264800Y-89932500D02*
X141800600Y-89468300D01*
X142264800Y-92558600D02*
X142264800Y-89932500D01*
X141395300Y-93428100D02*
X142264800Y-92558600D01*
X141395300Y-119433800D02*
X141395300Y-93428100D01*
X142547300Y-120585800D02*
X141395300Y-119433800D01*
%TO.N,/ALE_L*%
X136722000Y-119105000D02*
X138708800Y-117118200D01*
X136722000Y-130421000D02*
X136722000Y-119105000D01*
X136676000Y-75365500D02*
X136676000Y-67712000D01*
X139504500Y-78194000D02*
X136676000Y-75365500D01*
X139504500Y-92499900D02*
X139504500Y-78194000D01*
X138623200Y-93381200D02*
X139504500Y-92499900D01*
X138623200Y-117032600D02*
X138623200Y-93381200D01*
X138708800Y-117118200D02*
X138623200Y-117032600D01*
%TO.N,/{slash}COLD_RESET*%
X166574600Y-125326400D02*
X166574600Y-120759300D01*
X166162500Y-73095200D02*
X166739200Y-72518500D01*
X166162500Y-86011100D02*
X166162500Y-73095200D01*
X169566300Y-89414900D02*
X166162500Y-86011100D01*
X169566300Y-114024700D02*
X169566300Y-89414900D01*
X168188700Y-115402300D02*
X169566300Y-114024700D01*
X168188700Y-119145200D02*
X168188700Y-115402300D01*
X166574600Y-120759300D02*
X168188700Y-119145200D01*
%TO.N,/AD15*%
X103329100Y-113303900D02*
X103329100Y-100949300D01*
X109011300Y-118986100D02*
X103329100Y-113303900D01*
X123149400Y-118986100D02*
X109011300Y-118986100D01*
%TO.N,/AD14*%
X127622000Y-117730900D02*
X127622000Y-122356900D01*
X129045400Y-116307500D02*
X127622000Y-117730900D01*
X129045400Y-100272900D02*
X129045400Y-116307500D01*
X126633300Y-97860800D02*
X129045400Y-100272900D01*
X126633300Y-97630600D02*
X126633300Y-97860800D01*
X122427400Y-93424700D02*
X126633300Y-97630600D01*
X122427400Y-83900600D02*
X122427400Y-93424700D01*
X120379200Y-81852400D02*
X122427400Y-83900600D01*
X120379200Y-81248900D02*
X120379200Y-81852400D01*
X120804000Y-80824100D02*
X120379200Y-81248900D01*
X123842100Y-80824100D02*
X120804000Y-80824100D01*
X124788500Y-81770500D02*
X123842100Y-80824100D01*
%TO.N,/AD13*%
X128420300Y-117569200D02*
X128420300Y-121473900D01*
X129495500Y-116494000D02*
X128420300Y-117569200D01*
X129495500Y-100086400D02*
X129495500Y-116494000D01*
X127083400Y-97674300D02*
X129495500Y-100086400D01*
X127083400Y-97444100D02*
X127083400Y-97674300D01*
X122877500Y-93238200D02*
X127083400Y-97444100D01*
X122877500Y-86035300D02*
X122877500Y-93238200D01*
X123152600Y-85760200D02*
X122877500Y-86035300D01*
%TO.N,/AD12*%
X130983500Y-119713800D02*
X129901700Y-120795600D01*
X130983500Y-100937800D02*
X130983500Y-119713800D01*
X127533500Y-97487800D02*
X130983500Y-100937800D01*
X127533500Y-97257600D02*
X127533500Y-97487800D01*
X123602700Y-93326800D02*
X127533500Y-97257600D01*
X123602700Y-87134500D02*
X123602700Y-93326800D01*
%TO.N,/AD11*%
X130098200Y-95410800D02*
X127569200Y-92881800D01*
X130098200Y-97989300D02*
X130098200Y-95410800D01*
X132604100Y-100495200D02*
X130098200Y-97989300D01*
X132604100Y-116987100D02*
X132604100Y-100495200D01*
%TO.N,/AD10*%
X131247500Y-95685700D02*
X130823400Y-95685700D01*
X131247500Y-84276400D02*
X135594800Y-79929100D01*
X131247500Y-95685700D02*
X131247500Y-84276400D01*
X131247500Y-98054200D02*
X131247500Y-95685700D01*
X133706800Y-100513500D02*
X131247500Y-98054200D01*
X133706800Y-120579900D02*
X133706800Y-100513500D01*
%TO.N,/AD9*%
X131700900Y-85849000D02*
X136130000Y-81419900D01*
X131700900Y-97482300D02*
X131700900Y-85849000D01*
X132367500Y-98148900D02*
X131700900Y-97482300D01*
X134156900Y-99938300D02*
X132367500Y-98148900D01*
X134156900Y-114604900D02*
X134156900Y-99938300D01*
X134584700Y-115032700D02*
X134156900Y-114604900D01*
X134584700Y-116817000D02*
X134584700Y-115032700D01*
X134446200Y-116955500D02*
X134584700Y-116817000D01*
%TO.N,/AD8*%
X159852200Y-123192200D02*
X159852200Y-120102500D01*
X157788500Y-125255900D02*
X159852200Y-123192200D01*
X119070200Y-101057700D02*
X116192700Y-101057700D01*
X122063100Y-104050600D02*
X119070200Y-101057700D01*
X122063100Y-110787300D02*
X122063100Y-104050600D01*
X126008400Y-114732600D02*
X122063100Y-110787300D01*
X165329100Y-114625600D02*
X159852200Y-120102500D01*
X165329100Y-114124100D02*
X165329100Y-114625600D01*
X166368900Y-113084300D02*
X165329100Y-114124100D01*
X166368900Y-93613700D02*
X166368900Y-113084300D01*
X165272000Y-92516800D02*
X166368900Y-93613700D01*
X165131400Y-92516800D02*
X165272000Y-92516800D01*
X164940900Y-92326300D02*
X165131400Y-92516800D01*
X164940900Y-90076100D02*
X164940900Y-92326300D01*
X157453900Y-82589100D02*
X164940900Y-90076100D01*
X157453900Y-71764000D02*
X157453900Y-82589100D01*
D19*
%TO.N,/VCC*%
X159416000Y-125502900D02*
X159572000Y-125346900D01*
X159416000Y-130453000D02*
X159416000Y-125502900D01*
X159370000Y-67712000D02*
X159370000Y-71287100D01*
X159370000Y-71287100D02*
X159525800Y-71442900D01*
X174201400Y-107983000D02*
X174201400Y-121935000D01*
X139241000Y-130449000D02*
X139241000Y-125312900D01*
X107900500Y-76216100D02*
X109725200Y-74391400D01*
X107900500Y-92474800D02*
X107900500Y-76216100D01*
X139576200Y-110977200D02*
X139511600Y-110912600D01*
X139576200Y-124977700D02*
X139576200Y-110977200D01*
X139241000Y-125312900D02*
X139576200Y-124977700D01*
X168639500Y-75512500D02*
X168639500Y-76762600D01*
X139195000Y-73522200D02*
X139195000Y-71444700D01*
X141546500Y-75873700D02*
X139195000Y-73522200D01*
X139195000Y-67712000D02*
X139195000Y-71444700D01*
X169889600Y-81842600D02*
X173719500Y-85672500D01*
X169889600Y-77465700D02*
X169889600Y-81842600D01*
X169186500Y-76762600D02*
X169889600Y-77465700D01*
X168639500Y-76762600D02*
X169186500Y-76762600D01*
X173719500Y-107501100D02*
X174201400Y-107983000D01*
X173719500Y-85672500D02*
X173719500Y-107501100D01*
X116696300Y-117810800D02*
X108896600Y-117810800D01*
X120871300Y-113635800D02*
X116696300Y-117810800D01*
X120871300Y-108848000D02*
X120871300Y-113635800D01*
X107900500Y-94285900D02*
X107900500Y-92474800D01*
X108100400Y-94485800D02*
X107900500Y-94285900D01*
X108100400Y-112317100D02*
X108100400Y-94485800D01*
X108100400Y-117014600D02*
X108100400Y-112317100D01*
X108896600Y-117810800D02*
X108100400Y-117014600D01*
X108100400Y-112317100D02*
X107954300Y-112317100D01*
D18*
%TO.N,/{slash}write*%
X106917800Y-92490100D02*
X106887400Y-92490100D01*
X127772900Y-81819600D02*
X127772900Y-82307900D01*
X116243600Y-70290300D02*
X127772900Y-81819600D01*
X112734300Y-70290300D02*
X116243600Y-70290300D01*
X106917800Y-76106800D02*
X112734300Y-70290300D01*
X106917800Y-92490100D02*
X106917800Y-76106800D01*
X106917800Y-94116700D02*
X106917800Y-92490100D01*
X107513400Y-94712300D02*
X106917800Y-94116700D01*
X107513400Y-111614600D02*
X107513400Y-94712300D01*
X106629500Y-112498500D02*
X107513400Y-111614600D01*
X131473800Y-121014800D02*
X130995300Y-121493300D01*
X131473800Y-100078400D02*
X131473800Y-121014800D01*
X129016100Y-97620700D02*
X131473800Y-100078400D01*
X129016100Y-96911800D02*
X129016100Y-97620700D01*
X126122600Y-94018300D02*
X129016100Y-96911800D01*
X126122600Y-90838800D02*
X126122600Y-94018300D01*
X126572300Y-90389100D02*
X126122600Y-90838800D01*
X126984800Y-90389100D02*
X126572300Y-90389100D01*
X129046600Y-88327300D02*
X126984800Y-90389100D01*
X129046600Y-83581600D02*
X129046600Y-88327300D01*
X127772900Y-82307900D02*
X129046600Y-83581600D01*
%TO.N,/A17*%
X106183300Y-94018800D02*
X106183300Y-93277000D01*
X107063300Y-94898800D02*
X106183300Y-94018800D01*
X107063300Y-110846400D02*
X107063300Y-94898800D01*
X105398500Y-112511200D02*
X107063300Y-110846400D01*
%TO.N,/A13*%
X101180300Y-110558900D02*
X101745400Y-111124000D01*
X101180300Y-87596000D02*
X101180300Y-110558900D01*
X101745400Y-112364700D02*
X101745400Y-111124000D01*
X109131800Y-119751100D02*
X101745400Y-112364700D01*
X123416800Y-119751100D02*
X109131800Y-119751100D01*
X123890000Y-119277900D02*
X123416800Y-119751100D01*
X123890000Y-117362300D02*
X123890000Y-119277900D01*
X121605500Y-115077800D02*
X123890000Y-117362300D01*
X121605500Y-108501600D02*
X121605500Y-115077800D01*
X121187100Y-108083200D02*
X121605500Y-108501600D01*
X120597100Y-108083200D02*
X121187100Y-108083200D01*
X120005300Y-108675000D02*
X120597100Y-108083200D01*
X120005300Y-110729700D02*
X120005300Y-108675000D01*
%TO.N,/A8*%
X110437600Y-107253500D02*
X110950800Y-107766700D01*
X110437600Y-102845800D02*
X110437600Y-107253500D01*
X111692200Y-101591200D02*
X110437600Y-102845800D01*
X111692200Y-88464600D02*
X111692200Y-101591200D01*
X109272700Y-86045100D02*
X111692200Y-88464600D01*
X120860800Y-106359000D02*
X120860800Y-103873900D01*
X118200000Y-109019800D02*
X120860800Y-106359000D01*
X112203900Y-109019800D02*
X118200000Y-109019800D01*
X110950800Y-107766700D02*
X112203900Y-109019800D01*
%TO.N,/A9*%
X105999300Y-108431400D02*
X105887700Y-108543000D01*
X105999300Y-107282700D02*
X105999300Y-108431400D01*
X105379800Y-106663200D02*
X105999300Y-107282700D01*
X105379800Y-85594900D02*
X105379800Y-106663200D01*
X105959700Y-85015000D02*
X105379800Y-85594900D01*
X111699700Y-84397400D02*
X111082100Y-85015000D01*
X111699700Y-81770500D02*
X111699700Y-84397400D01*
X112710300Y-80759900D02*
X111699700Y-81770500D01*
X114719300Y-80759900D02*
X112710300Y-80759900D01*
X119276700Y-85317300D02*
X114719300Y-80759900D01*
X119276700Y-94730300D02*
X119276700Y-85317300D01*
X123122000Y-98575600D02*
X119276700Y-94730300D01*
X123122000Y-105569800D02*
X123122000Y-98575600D01*
X124218100Y-106665900D02*
X123122000Y-105569800D01*
X124866300Y-106665900D02*
X124218100Y-106665900D01*
X125291000Y-106241200D02*
X124866300Y-106665900D01*
X125291000Y-105454200D02*
X125291000Y-106241200D01*
X124523100Y-104686300D02*
X125291000Y-105454200D01*
%TO.N,/A11*%
X104929700Y-107238700D02*
X105232200Y-107541200D01*
X104929700Y-84085500D02*
X104929700Y-107238700D01*
X105232200Y-83783000D02*
X104929700Y-84085500D01*
X110571000Y-82256700D02*
X110571000Y-83783000D01*
X112530100Y-80297600D02*
X110571000Y-82256700D01*
X114893600Y-80297600D02*
X112530100Y-80297600D01*
X119726800Y-85130800D02*
X114893600Y-80297600D01*
X119726800Y-94543800D02*
X119726800Y-85130800D01*
X123572100Y-98389100D02*
X119726800Y-94543800D01*
X123572100Y-104947000D02*
X123572100Y-98389100D01*
X124565900Y-105940800D02*
X123572100Y-104947000D01*
%TO.N,/Output_Enable*%
X115114000Y-84633500D02*
X115114000Y-95583600D01*
X112988800Y-82508300D02*
X115114000Y-84633500D01*
X114984400Y-102648900D02*
X113089500Y-104543800D01*
X114984400Y-95713200D02*
X114984400Y-102648900D01*
X115114000Y-95583600D02*
X114984400Y-95713200D01*
%TO.N,/A10*%
X115434500Y-105664800D02*
X115893500Y-106123800D01*
X115434500Y-100649500D02*
X115434500Y-105664800D01*
X115859300Y-100224700D02*
X115434500Y-100649500D01*
X115859300Y-84315100D02*
X115859300Y-100224700D01*
X113037300Y-81493100D02*
X115859300Y-84315100D01*
X120015500Y-106123800D02*
X115893500Y-106123800D01*
X111162700Y-106807200D02*
X111162700Y-105220800D01*
X112925100Y-108569600D02*
X111162700Y-106807200D01*
X113447700Y-108569600D02*
X112925100Y-108569600D01*
X115893500Y-106123800D02*
X113447700Y-108569600D01*
%TO.N,/Chip_Enable*%
X113339800Y-88378600D02*
X113339800Y-97488400D01*
X108755800Y-83794600D02*
X113339800Y-88378600D01*
X108755800Y-79937000D02*
X108755800Y-83794600D01*
X113339800Y-102076000D02*
X111950800Y-103465000D01*
X113339800Y-97488400D02*
X113339800Y-102076000D01*
%TO.N,/AD7*%
X156898000Y-130387000D02*
X156898000Y-125561900D01*
X156852000Y-67712000D02*
X156852000Y-71162100D01*
X156728800Y-83027700D02*
X156629700Y-83126800D01*
X156728800Y-71285300D02*
X156728800Y-83027700D01*
X156852000Y-71162100D02*
X156728800Y-71285300D01*
X129530900Y-88479600D02*
X126896300Y-91114200D01*
X129530900Y-82941000D02*
X129530900Y-88479600D01*
X116389100Y-69799200D02*
X129530900Y-82941000D01*
X112581100Y-69799200D02*
X116389100Y-69799200D01*
X105367300Y-77013000D02*
X112581100Y-69799200D01*
X105367300Y-78665000D02*
X105367300Y-77013000D01*
X157211000Y-121333100D02*
X155928100Y-120050200D01*
X157211000Y-123313300D02*
X157211000Y-121333100D01*
X156898000Y-123626300D02*
X157211000Y-123313300D01*
X156898000Y-125561900D02*
X156898000Y-123626300D01*
X157211000Y-123313300D02*
X157242800Y-123313300D01*
X161230400Y-117313700D02*
X157211000Y-121333100D01*
X161668800Y-117313700D02*
X161230400Y-117313700D01*
X164879000Y-114103500D02*
X161668800Y-117313700D01*
X164879000Y-113937600D02*
X164879000Y-114103500D01*
X165859700Y-112956900D02*
X164879000Y-113937600D01*
X165859700Y-93744700D02*
X165859700Y-112956900D01*
X165081900Y-92966900D02*
X165859700Y-93744700D01*
X164944900Y-92966900D02*
X165081900Y-92966900D01*
X164490800Y-92512800D02*
X164944900Y-92966900D01*
X164490800Y-90988000D02*
X164490800Y-92512800D01*
X156629700Y-83126800D02*
X164490800Y-90988000D01*
X156629700Y-83126800D02*
X150850400Y-88906100D01*
%TO.N,/AD6*%
X154379000Y-130401000D02*
X154379000Y-125575900D01*
X154333000Y-72337900D02*
X151578900Y-75092000D01*
X154333000Y-67712000D02*
X154333000Y-72337900D01*
X151515600Y-122712500D02*
X150356000Y-122712500D01*
X154379000Y-125575900D02*
X151515600Y-122712500D01*
X126413800Y-86140900D02*
X128282900Y-88010000D01*
X126413800Y-81490100D02*
X126413800Y-86140900D01*
X115941000Y-71017300D02*
X126413800Y-81490100D01*
X150125300Y-76545600D02*
X151578900Y-75092000D01*
X150125300Y-89206300D02*
X150125300Y-76545600D01*
X151021200Y-90102200D02*
X150125300Y-89206300D01*
X151021200Y-92830800D02*
X151021200Y-90102200D01*
X151956100Y-93765700D02*
X151021200Y-92830800D01*
X151956100Y-94697700D02*
X151956100Y-93765700D01*
X147820400Y-98833400D02*
X151956100Y-94697700D01*
X147820400Y-120176900D02*
X147820400Y-98833400D01*
X150356000Y-122712500D02*
X147820400Y-120176900D01*
%TO.N,/AD5*%
X146815000Y-130432000D02*
X146815000Y-125606900D01*
X146769000Y-67712000D02*
X146769000Y-71162100D01*
X146815000Y-124009300D02*
X145127500Y-122321800D01*
X146815000Y-125606900D02*
X146815000Y-124009300D01*
X144859700Y-108782400D02*
X144644600Y-108782400D01*
X145202100Y-109124800D02*
X144859700Y-108782400D01*
X145202100Y-122247200D02*
X145202100Y-109124800D01*
X145127500Y-122321800D02*
X145202100Y-122247200D01*
X145539600Y-72391500D02*
X146769000Y-71162100D01*
X145539600Y-92889100D02*
X145539600Y-72391500D01*
X146416100Y-93765600D02*
X145539600Y-92889100D01*
X146416100Y-94697700D02*
X146416100Y-93765600D01*
X144859700Y-96254100D02*
X146416100Y-94697700D01*
X144859700Y-108782400D02*
X144859700Y-96254100D01*
X124382800Y-103195400D02*
X124404500Y-103217100D01*
X124382800Y-98563200D02*
X124382800Y-103195400D01*
X120176900Y-94357300D02*
X124382800Y-98563200D01*
X120176900Y-84944300D02*
X120176900Y-94357300D01*
X115080000Y-79847400D02*
X120176900Y-84944300D01*
X109979400Y-79847400D02*
X115080000Y-79847400D01*
X108874700Y-78742700D02*
X109979400Y-79847400D01*
%TO.N,/AD4*%
X144248000Y-67712000D02*
X144248000Y-71162100D01*
X117722900Y-75506400D02*
X113555900Y-71339400D01*
X119570600Y-75506400D02*
X117722900Y-75506400D01*
X125963700Y-81899500D02*
X119570600Y-75506400D01*
X125963700Y-87815000D02*
X125963700Y-81899500D01*
X127064900Y-88916200D02*
X125963700Y-87815000D01*
X144294000Y-130440000D02*
X144294000Y-125614900D01*
X144248000Y-87102100D02*
X142980600Y-88369500D01*
X144248000Y-71162100D02*
X144248000Y-87102100D01*
X144294000Y-121448100D02*
X144294000Y-125614900D01*
X144189700Y-121343800D02*
X144294000Y-121448100D01*
X145031100Y-90420000D02*
X142980600Y-88369500D01*
X145031100Y-91857700D02*
X145031100Y-90420000D01*
X144134600Y-92754200D02*
X145031100Y-91857700D01*
X144134600Y-108267000D02*
X144134600Y-92754200D01*
X143919500Y-108482100D02*
X144134600Y-108267000D01*
X143919500Y-121073600D02*
X143919500Y-108482100D01*
X144189700Y-121343800D02*
X143919500Y-121073600D01*
%TO.N,/AD3*%
X135631800Y-124181100D02*
X134203000Y-125609900D01*
X135631800Y-118412000D02*
X135631800Y-124181100D01*
X136970900Y-117072900D02*
X135631800Y-118412000D01*
X134203000Y-130435000D02*
X134203000Y-125609900D01*
X136970900Y-104622000D02*
X136032300Y-103683400D01*
X136970900Y-117072900D02*
X136970900Y-104622000D01*
X134157000Y-73483200D02*
X134157000Y-67712000D01*
X137570500Y-76896700D02*
X134157000Y-73483200D01*
X137570500Y-90596200D02*
X137570500Y-76896700D01*
X137240900Y-90925800D02*
X137570500Y-90596200D01*
X137240900Y-91857600D02*
X137240900Y-90925800D01*
X138106100Y-92722800D02*
X137240900Y-91857600D01*
X138106100Y-101609600D02*
X138106100Y-92722800D01*
X136032300Y-103683400D02*
X138106100Y-101609600D01*
X163800900Y-111735100D02*
X163800900Y-111735000D01*
X163217800Y-111735100D02*
X163800900Y-111735100D01*
X154928000Y-120024900D02*
X163217800Y-111735100D01*
X154928000Y-120465000D02*
X154928000Y-120024900D01*
X154927900Y-120465000D02*
X154928000Y-120465000D01*
X125509000Y-99283000D02*
X125509000Y-103621100D01*
X124832900Y-98606900D02*
X125509000Y-99283000D01*
X124832900Y-98376700D02*
X124832900Y-98606900D01*
X120627000Y-94170800D02*
X124832900Y-98376700D01*
X120627000Y-84757800D02*
X120627000Y-94170800D01*
X114903000Y-79033800D02*
X120627000Y-84757800D01*
X113166400Y-79033800D02*
X114903000Y-79033800D01*
D19*
%TO.N,/GND*%
X172023000Y-130418000D02*
X172023000Y-125467900D01*
X174553000Y-130402000D02*
X174553000Y-127926900D01*
X131680000Y-130446000D02*
X131680000Y-126504900D01*
X121590000Y-130464000D02*
X121590000Y-125513900D01*
X119072000Y-130450000D02*
X119072000Y-127974900D01*
X121590000Y-125513900D02*
X119169500Y-125513900D01*
X119169500Y-127877400D02*
X119169500Y-125513900D01*
X119072000Y-127974900D02*
X119169500Y-127877400D01*
X119169500Y-125513900D02*
X119169500Y-125342300D01*
X193086500Y-90912600D02*
X193086500Y-95977500D01*
X193126500Y-90872600D02*
X193086500Y-90912600D01*
X174507000Y-67712000D02*
X171977000Y-67712000D01*
X121544000Y-67712000D02*
X119026000Y-67712000D01*
X131634000Y-71479800D02*
X131634000Y-67712000D01*
X178974500Y-71287100D02*
X178817200Y-71444400D01*
X179552000Y-71287100D02*
X178974500Y-71287100D01*
X179552000Y-67712000D02*
X179552000Y-71287100D01*
X193126500Y-90250000D02*
X193126500Y-90872600D01*
X193126500Y-90250000D02*
X193126500Y-89627500D01*
X193126500Y-80769000D02*
X190474500Y-78117000D01*
X193126500Y-89627500D02*
X193126500Y-80769000D01*
X183644600Y-71287100D02*
X190474500Y-78117000D01*
X179552000Y-71287100D02*
X183644600Y-71287100D01*
X190474500Y-78117000D02*
X193463800Y-75127700D01*
X134882100Y-94902800D02*
X134211000Y-94231700D01*
X134882100Y-109848000D02*
X134882100Y-94902800D01*
X119476200Y-71287100D02*
X119629000Y-71439900D01*
X119026000Y-71287100D02*
X119476200Y-71287100D01*
X119026000Y-67712000D02*
X119026000Y-71287100D01*
X136981000Y-94231600D02*
X136981000Y-94231700D01*
X136668100Y-94231600D02*
X136981000Y-94231600D01*
X134345900Y-91909400D02*
X136668100Y-94231600D01*
X134345900Y-90874000D02*
X134345900Y-91909400D01*
X136980900Y-88239000D02*
X134345900Y-90874000D01*
X136980900Y-79994100D02*
X136980900Y-88239000D01*
X131360900Y-74374100D02*
X136980900Y-79994100D01*
X131634000Y-74101000D02*
X131634000Y-71479800D01*
X131360900Y-74374100D02*
X131634000Y-74101000D01*
X131680000Y-126504900D02*
X131680000Y-125315900D01*
X171878600Y-71385500D02*
X171977000Y-71287100D01*
X171878600Y-71479500D02*
X171878600Y-71385500D01*
X171977000Y-67712000D02*
X171977000Y-71287100D01*
X179512500Y-125509900D02*
X179598000Y-125509900D01*
X179125400Y-125122800D02*
X179512500Y-125509900D01*
X179598000Y-130460000D02*
X179598000Y-125509900D01*
X135337600Y-117269600D02*
X135337600Y-112822700D01*
X134929300Y-117677900D02*
X135337600Y-117269600D01*
X134929300Y-122066600D02*
X134929300Y-117677900D01*
X131680000Y-125315900D02*
X134929300Y-122066600D01*
X135337600Y-110303500D02*
X134882100Y-109848000D01*
X135337600Y-112822700D02*
X135337600Y-110303500D01*
X123165600Y-74374100D02*
X131360900Y-74374100D01*
X122209000Y-73417500D02*
X123165600Y-74374100D01*
X122209000Y-73183500D02*
X122209000Y-73417500D01*
X120099700Y-71074200D02*
X122209000Y-73183500D01*
X120099700Y-71074100D02*
X120099700Y-71074200D01*
X120098300Y-71072700D02*
X120099700Y-71074100D01*
X119996200Y-71072700D02*
X120098300Y-71072700D01*
X119629000Y-71439900D02*
X119996200Y-71072700D01*
X174553000Y-125781300D02*
X174239600Y-125467900D01*
X174553000Y-127926900D02*
X174553000Y-125781300D01*
X174239600Y-125467900D02*
X172023000Y-125467900D01*
X174239600Y-125246200D02*
X174239600Y-125467900D01*
D18*
%TO.N,/AD2*%
X129161000Y-130460000D02*
X129161000Y-123112600D01*
X129115000Y-67712000D02*
X129115000Y-71162100D01*
X126579200Y-73697900D02*
X129115000Y-71162100D01*
X123691600Y-73697900D02*
X126579200Y-73697900D01*
X123059100Y-73065400D02*
X123691600Y-73697900D01*
X127326600Y-123112600D02*
X129161000Y-123112600D01*
X126867000Y-122653000D02*
X127326600Y-123112600D01*
X126867000Y-117212700D02*
X126867000Y-122653000D01*
X128595300Y-115484400D02*
X126867000Y-117212700D01*
X128595300Y-100459400D02*
X128595300Y-115484400D01*
X126183200Y-98047300D02*
X128595300Y-100459400D01*
X126183200Y-97817100D02*
X126183200Y-98047300D01*
X121977300Y-93611200D02*
X126183200Y-97817100D01*
X121977300Y-84198300D02*
X121977300Y-93611200D01*
X119929100Y-82150100D02*
X121977300Y-84198300D01*
X119929100Y-81062400D02*
X119929100Y-82150100D01*
X120617500Y-80374000D02*
X119929100Y-81062400D01*
X120617500Y-77949600D02*
X120617500Y-80374000D01*
X119540700Y-76872800D02*
X120617500Y-77949600D01*
X129161000Y-119497700D02*
X129161000Y-123112600D01*
X130220600Y-118438100D02*
X129161000Y-119497700D01*
X130220600Y-115376600D02*
X130220600Y-118438100D01*
%TO.N,/AD1*%
X126642000Y-130446000D02*
X126642000Y-125620900D01*
X174302000Y-123062100D02*
X174520500Y-123062100D01*
X171629900Y-120390000D02*
X174302000Y-123062100D01*
X171629900Y-110821800D02*
X171629900Y-120390000D01*
X126131300Y-71162100D02*
X126596000Y-71162100D01*
X124320600Y-72972800D02*
X126131300Y-71162100D01*
X126596000Y-67712000D02*
X126596000Y-71162100D01*
X127870100Y-100370800D02*
X127870100Y-114647400D01*
X125733100Y-98233800D02*
X127870100Y-100370800D01*
X125733100Y-98003600D02*
X125733100Y-98233800D01*
X121527200Y-93797700D02*
X125733100Y-98003600D01*
X121527200Y-84384800D02*
X121527200Y-93797700D01*
X119479000Y-82336600D02*
X121527200Y-84384800D01*
X119479000Y-78660600D02*
X119479000Y-82336600D01*
X119890700Y-78248900D02*
X119479000Y-78660600D01*
X126389600Y-125368500D02*
X126642000Y-125620900D01*
X126389600Y-116127900D02*
X126389600Y-125368500D01*
X127870100Y-114647400D02*
X126389600Y-116127900D01*
%TO.N,/AD0*%
X124115000Y-130452000D02*
X124115000Y-125626900D01*
X124069000Y-67712000D02*
X124069000Y-71162100D01*
X123805900Y-71425200D02*
X123805900Y-71831100D01*
X124069000Y-71162100D02*
X123805900Y-71425200D01*
X176090700Y-113478600D02*
X181812900Y-119200800D01*
X176090700Y-110355700D02*
X176090700Y-113478600D01*
X126733500Y-115033000D02*
X126733500Y-113848000D01*
X124565000Y-117201500D02*
X126733500Y-115033000D01*
X124565000Y-125176900D02*
X124565000Y-117201500D01*
X124115000Y-125626900D02*
X124565000Y-125176900D01*
X126733500Y-99870900D02*
X126733500Y-113848000D01*
X125283000Y-98420400D02*
X126733500Y-99870900D01*
X125283000Y-98190100D02*
X125283000Y-98420400D01*
X121077100Y-93984200D02*
X125283000Y-98190100D01*
X121077100Y-84571300D02*
X121077100Y-93984200D01*
X116786800Y-80281000D02*
X121077100Y-84571300D01*
X116786800Y-78821700D02*
X116786800Y-80281000D01*
X126733500Y-113848000D02*
X126943500Y-113848000D01*
%TO.N,/A0*%
X118376500Y-86488600D02*
X117897800Y-86009900D01*
X118376500Y-95680300D02*
X118376500Y-86488600D01*
X119773200Y-97077000D02*
X118376500Y-95680300D01*
%TO.N,/A1*%
X124698200Y-93627200D02*
X128291000Y-97220000D01*
X124698200Y-85143100D02*
X124698200Y-93627200D01*
X121104300Y-81549200D02*
X124698200Y-85143100D01*
%TO.N,/A2*%
X114093600Y-84654500D02*
X112980900Y-83541800D01*
X114093600Y-102514100D02*
X114093600Y-84654500D01*
X112364400Y-104243300D02*
X114093600Y-102514100D01*
X112364400Y-105426400D02*
X112364400Y-104243300D01*
X112939000Y-106001000D02*
X112364400Y-105426400D01*
%TO.N,/A3*%
X117926400Y-96339500D02*
X121235700Y-99648800D01*
X117926400Y-87574800D02*
X117926400Y-96339500D01*
X116777400Y-86425800D02*
X117926400Y-87574800D01*
X116777400Y-83951200D02*
X116777400Y-86425800D01*
%TO.N,/A4*%
X112437000Y-101483000D02*
X112437000Y-88513000D01*
X111204700Y-102715300D02*
X112437000Y-101483000D01*
X111204700Y-103854100D02*
X111204700Y-102715300D01*
X111914300Y-104563700D02*
X111204700Y-103854100D01*
X111914300Y-106520800D02*
X111914300Y-104563700D01*
X113190400Y-107796900D02*
X111914300Y-106520800D01*
%TO.N,/A5*%
X118826600Y-85892700D02*
X117878200Y-84944300D01*
X118826600Y-94916800D02*
X118826600Y-85892700D01*
X121960800Y-98051000D02*
X118826600Y-94916800D01*
X121960800Y-100640700D02*
X121960800Y-98051000D01*
X121502400Y-101099100D02*
X121960800Y-100640700D01*
%TO.N,/A6*%
X109987500Y-108427500D02*
X110500700Y-108940700D01*
X109987500Y-102659300D02*
X109987500Y-108427500D01*
X110942100Y-101704700D02*
X109987500Y-102659300D01*
X110942100Y-88993900D02*
X110942100Y-101704700D01*
%TO.N,/A7*%
X121290700Y-102549400D02*
X121587400Y-102549400D01*
X116751100Y-98009800D02*
X121290700Y-102549400D01*
X116751100Y-88892700D02*
X116751100Y-98009800D01*
%TO.N,/A12*%
X117476300Y-88390500D02*
X116978300Y-87892500D01*
X117476300Y-98098400D02*
X117476300Y-88390500D01*
X121202100Y-101824200D02*
X117476300Y-98098400D01*
X121922700Y-101824200D02*
X121202100Y-101824200D01*
X122671900Y-102573400D02*
X121922700Y-101824200D01*
X122671900Y-106392900D02*
X122671900Y-102573400D01*
X124351900Y-108072900D02*
X122671900Y-106392900D01*
%TO.N,/A15*%
X106613200Y-110082500D02*
X106136700Y-110559000D01*
X106613200Y-95474200D02*
X106613200Y-110082500D01*
X106104900Y-94965900D02*
X106613200Y-95474200D01*
%TO.N,/A16*%
X109525800Y-111022200D02*
X110492200Y-111988600D01*
X109525800Y-101211200D02*
X109525800Y-111022200D01*
X109916100Y-100820900D02*
X109525800Y-101211200D01*
X109916100Y-92473400D02*
X109916100Y-100820900D01*
%TO.N,/A18*%
X113139300Y-116123700D02*
X109538800Y-112523200D01*
X117149300Y-116123700D02*
X113139300Y-116123700D01*
X108915900Y-111900300D02*
X109538800Y-112523200D01*
X108915900Y-92472600D02*
X108915900Y-111900300D01*
%TD*%
M02*
