%TF.GenerationSoftware,KiCad,Pcbnew,(6.0.2)*%
%TF.CreationDate,2022-10-23T15:32:59-05:00*%
%TF.ProjectId,REF1329_Optimized,52454631-3332-4395-9f4f-7074696d697a,rev?*%
%TF.SameCoordinates,Original*%
%TF.FileFunction,Soldermask,Bot*%
%TF.FilePolarity,Negative*%
%FSLAX46Y46*%
G04 Gerber Fmt 4.6, Leading zero omitted, Abs format (unit mm)*
G04 Created by KiCad (PCBNEW (6.0.2)) date 2022-10-23 15:32:59*
%MOMM*%
%LPD*%
G01*
G04 APERTURE LIST*
%ADD10C,0.000000*%
%ADD11C,0.795000*%
%ADD12R,1.590000X1.590000*%
%ADD13C,4.680000*%
%ADD14R,1.530000X9.000000*%
%ADD15R,1.600000X1.600000*%
%ADD16C,1.600000*%
%ADD17R,1.530000X6.250000*%
G04 APERTURE END LIST*
D10*
G36*
X193925800Y-90424500D02*
G01*
X192335800Y-90424500D01*
X192335800Y-88834500D01*
X193925800Y-88834500D01*
X193925800Y-90424500D01*
G37*
D11*
X169041100Y-80580700D02*
G75*
G03*
X169041100Y-80580700I-397500J0D01*
G01*
X174121100Y-75500700D02*
G75*
G03*
X174121100Y-75500700I-397500J0D01*
G01*
D10*
G36*
X198410500Y-90424500D02*
G01*
X196820500Y-90424500D01*
X196820500Y-88834500D01*
X198410500Y-88834500D01*
X198410500Y-90424500D01*
G37*
D11*
X174121100Y-80580700D02*
G75*
G03*
X174121100Y-80580700I-397500J0D01*
G01*
X174121100Y-83120700D02*
G75*
G03*
X174121100Y-83120700I-397500J0D01*
G01*
X169041100Y-83120700D02*
G75*
G03*
X169041100Y-83120700I-397500J0D01*
G01*
X174121100Y-85660700D02*
G75*
G03*
X174121100Y-85660700I-397500J0D01*
G01*
X174121100Y-78040700D02*
G75*
G03*
X174121100Y-78040700I-397500J0D01*
G01*
X169041100Y-75500700D02*
G75*
G03*
X169041100Y-75500700I-397500J0D01*
G01*
D10*
G36*
X198370800Y-96774500D02*
G01*
X196780800Y-96774500D01*
X196780800Y-95184500D01*
X198370800Y-95184500D01*
X198370800Y-96774500D01*
G37*
G36*
X193886100Y-96774500D02*
G01*
X192296100Y-96774500D01*
X192296100Y-95184500D01*
X193886100Y-95184500D01*
X193886100Y-96774500D01*
G37*
D11*
X169041100Y-85660700D02*
G75*
G03*
X169041100Y-85660700I-397500J0D01*
G01*
X169041100Y-78040700D02*
G75*
G03*
X169041100Y-78040700I-397500J0D01*
G01*
D12*
%TO.C,SW1*%
X193086500Y-95977500D03*
X193126500Y-89627500D03*
X197572500Y-95980500D03*
X197611500Y-89628500D03*
%TD*%
D13*
%TO.C,Hole1*%
X108395000Y-67879000D03*
%TD*%
D14*
%TO.C,J5*%
X119072000Y-130450000D03*
X121590000Y-130464000D03*
X124115000Y-130452000D03*
X126642000Y-130446000D03*
X129161000Y-130460000D03*
X131680000Y-130446000D03*
X134203000Y-130435000D03*
X136722000Y-130421000D03*
X139241000Y-130449000D03*
X141769000Y-130449000D03*
X144294000Y-130440000D03*
X146815000Y-130432000D03*
X149339000Y-130416000D03*
X151859000Y-130389000D03*
X154379000Y-130401000D03*
X156898000Y-130387000D03*
X159416000Y-130453000D03*
X161940000Y-130447000D03*
X164466000Y-130437000D03*
X166984000Y-130433000D03*
X169504000Y-130418000D03*
X172023000Y-130418000D03*
X174553000Y-130402000D03*
X177079000Y-130401000D03*
X179598000Y-130460000D03*
%TD*%
D13*
%TO.C,Hole2*%
X104544000Y-121691000D03*
%TD*%
D15*
%TO.C,U3*%
X168639500Y-75512500D03*
D16*
X168639500Y-78052500D03*
X168639500Y-80592500D03*
X168639500Y-83132500D03*
X168639500Y-85672500D03*
X173719500Y-85672500D03*
X173719500Y-83132500D03*
X173719500Y-80592500D03*
X173719500Y-78052500D03*
X173719500Y-75512500D03*
%TD*%
D13*
%TO.C,Hole3*%
X190826000Y-67918000D03*
%TD*%
%TO.C,Hole4*%
X194001000Y-121736000D03*
%TD*%
D17*
%TO.C,J3*%
X119026000Y-67712000D03*
X121544000Y-67712000D03*
X124069000Y-67712000D03*
X126596000Y-67712000D03*
X129115000Y-67712000D03*
X131634000Y-67712000D03*
X134157000Y-67712000D03*
X136676000Y-67712000D03*
X139195000Y-67712000D03*
X141723000Y-67712000D03*
X144248000Y-67712000D03*
X146769000Y-67712000D03*
X149293000Y-67712000D03*
X151813000Y-67712000D03*
X154333000Y-67712000D03*
X156852000Y-67712000D03*
X159370000Y-67712000D03*
X161894000Y-67712000D03*
X164420000Y-67712000D03*
X166938000Y-67712000D03*
X169458000Y-67712000D03*
X171977000Y-67712000D03*
X174507000Y-67712000D03*
X177033000Y-67712000D03*
X179552000Y-67712000D03*
%TD*%
D15*
%TO.C,J1*%
X166066000Y-91391700D03*
D16*
X163296000Y-91391700D03*
X160526000Y-91391700D03*
X157756000Y-91391700D03*
X154986000Y-91391700D03*
X152216000Y-91391700D03*
X149446000Y-91391700D03*
X146676000Y-91391700D03*
X143906000Y-91391700D03*
X141136000Y-91391700D03*
X138366000Y-91391700D03*
X135596000Y-91391700D03*
X132826000Y-91391700D03*
X164681000Y-94231700D03*
X161911000Y-94231700D03*
X159141000Y-94231700D03*
X156371000Y-94231700D03*
X153601000Y-94231700D03*
X150831000Y-94231700D03*
X148061000Y-94231700D03*
X145291000Y-94231700D03*
X142521000Y-94231700D03*
X139751000Y-94231700D03*
X136981000Y-94231700D03*
X134211000Y-94231700D03*
%TD*%
M02*
