M48
; DRILL file {KiCad (6.0.2)} date Fri Oct 21 17:36:19 2022
; FORMAT={-:-/ absolute / metric / decimal}
; #@! TF.CreationDate,2022-10-21T17:36:19-05:00
; #@! TF.GenerationSoftware,Kicad,Pcbnew,(6.0.2)
; #@! TF.FileFunction,Plated,1,2,PTH
FMAT,2
METRIC
; #@! TA.AperFunction,Plated,PTH,ViaDrill
T1C0.400
; #@! TA.AperFunction,Plated,PTH,ComponentDrill
T2C0.800
; #@! TA.AperFunction,Plated,PTH,ComponentDrill
T3C1.000
; #@! TA.AperFunction,Plated,PTH,ComponentDrill
T4C4.450
%
G90
G05
T1
X101.746Y-108.543
X102.561Y-96.407
X102.885Y-101.227
X104.225Y-113.904
X104.462Y-99.015
X104.845Y-92.482
X105.255Y-107.311
X105.313Y-84.531
X105.412Y-95.697
X105.534Y-112.454
X105.614Y-106.267
X105.81Y-104.366
X106.236Y-85.789
X106.352Y-102.064
X106.865Y-112.477
X107.006Y-92.472
X107.632Y-73.621
X107.731Y-88.292
X108.426Y-112.442
X109.265Y-92.485
X109.285Y-111.852
X109.352Y-88.955
X109.572Y-78.753
X110.155Y-93.186
X110.157Y-94.558
X110.468Y-112.515
X110.53Y-109.746
X110.911Y-102.201
X110.961Y-121.665
X111.134Y-84.648
X111.467Y-103.132
X111.478Y-108.988
X111.973Y-118.248
X112.067Y-80.578
X112.268Y-79.087
X112.291Y-111.341
X112.391Y-92.512
X112.505Y-86.984
X112.613Y-84.831
X112.642Y-104.673
X113.165Y-108.544
X113.184Y-109.815
X113.26Y-79.939
X113.267Y-86.287
X114.024Y-114.655
X114.709Y-77.233
X114.723Y-99.255
X115.522Y-99.87
X116.23Y-75.36
X116.324Y-98.601
X116.407Y-69.08
X116.725Y-73.945
X116.967Y-108.104
X116.98Y-101.16
X117.306Y-106.654
X117.361Y-103.146
X117.722Y-99.843
X117.968Y-108.104
X118.754Y-87.251
X119.174Y-105.928
X119.388Y-110.899
X119.514Y-82.114
X119.908Y-125.342
X120.754Y-79.11
X120.846Y-74.933
X121.362Y-83.522
X121.561Y-98.192
X121.694Y-78.487
X121.773Y-117.82
X122.713Y-96.007
X123.07Y-87.992
X123.368Y-86.935
X124.303Y-91.527
X124.516Y-111.349
X124.823Y-104.079
X124.876Y-109.737
X125.76Y-112.729
X125.842Y-76.964
X126.2Y-104.387
X126.21Y-111.319
X126.717Y-115.847
X127.032Y-103.533
X127.141Y-75.924
X127.358Y-121.527
X127.367Y-74.209
X127.813Y-89.947
X128.455Y-114.042
X128.871Y-120.63
X129.185Y-123.382
X129.829Y-114.801
X129.883Y-74.274
X130.697Y-79.663
X131.309Y-114.738
X131.634Y-74.206
X131.714Y-125.315
X131.902Y-110.472
X132.561Y-78.53
X135.34Y-108.489
X137.631Y-116.23
X138.344Y-116.999
X138.821Y-109.262
X138.921Y-122.047
X138.964Y-85.879
X139.195Y-74.248
X139.236Y-125.342
X139.871Y-110.812
X140.292Y-112.907
X141.546Y-86.758
X141.722Y-77.536
X142.376Y-117.119
X142.421Y-74.205
X144.264Y-79.718
X144.548Y-120.003
X146.096Y-118.326
X146.451Y-83.522
X148.767Y-105.935
X149.173Y-124.415
X149.911Y-74.338
X151.543Y-79.109
X151.813Y-74.94
X152.594Y-124.71
X152.959Y-77.108
X154.374Y-120.76
X154.452Y-103.545
X155.21Y-101.442
X155.473Y-123.509
X155.882Y-115.478
X155.945Y-103.171
X156.852Y-76.829
X158.911Y-119.397
X158.989Y-112.237
X159.635Y-125.308
X159.689Y-74.244
X160.589Y-100.187
X160.589Y-112.54
X162.671Y-74.573
X162.962Y-113.443
X163.125Y-125.446
X163.706Y-74.459
X163.77Y-103.574
X164.712Y-124.865
X166.371Y-74.358
X168.099Y-124.006
X168.404Y-115.223
X170.696Y-124.884
X170.808Y-74.695
X173.259Y-125.462
X174.822Y-74.297
X175.487Y-77.645
X176.093Y-125.292
X176.342Y-74.236
X177.065Y-79.031
X177.897Y-112.422
X178.004Y-88.745
X178.004Y-93.254
X178.719Y-87.005
X179.214Y-74.316
X179.273Y-92.517
X179.516Y-89.624
X179.611Y-108.97
X179.756Y-85.638
X181.207Y-110.465
X183.153Y-116.097
X183.746Y-106.719
X183.845Y-99.541
X185.761Y-74.62
X185.979Y-78.614
X186.006Y-116.828
X186.816Y-110.659
X187.043Y-116.697
X187.51Y-115.427
X192.91Y-74.408
X196.068Y-79.894
T2
X168.639Y-75.513
X168.639Y-78.052
X168.639Y-80.593
X168.639Y-83.132
X168.639Y-85.672
X173.719Y-75.513
X173.719Y-78.052
X173.719Y-80.593
X173.719Y-83.132
X173.719Y-85.672
T3
X132.826Y-91.392
X134.211Y-94.232
X135.596Y-91.392
X136.981Y-94.232
X138.366Y-91.392
X139.751Y-94.232
X141.136Y-91.392
X142.521Y-94.232
X143.906Y-91.392
X145.291Y-94.232
X146.676Y-91.392
X148.061Y-94.232
X149.446Y-91.392
X150.831Y-94.232
X152.216Y-91.392
X153.601Y-94.232
X154.986Y-91.392
X156.371Y-94.232
X157.756Y-91.392
X159.141Y-94.232
X160.526Y-91.392
X161.911Y-94.232
X163.296Y-91.392
X164.681Y-94.232
X166.066Y-91.392
X193.087Y-95.977
X193.126Y-89.627
X197.572Y-95.98
X197.611Y-89.629
T4
X104.544Y-121.691
X108.395Y-67.879
X190.826Y-67.918
X194.001Y-121.736
T0
M30
