%TF.GenerationSoftware,KiCad,Pcbnew,(6.0.2)*%
%TF.CreationDate,2022-05-11T16:43:43-05:00*%
%TF.ProjectId,REF1329_Optimised,52454631-3332-4395-9f4f-7074696d6973,rev?*%
%TF.SameCoordinates,Original*%
%TF.FileFunction,Copper,L2,Bot*%
%TF.FilePolarity,Positive*%
%FSLAX46Y46*%
G04 Gerber Fmt 4.6, Leading zero omitted, Abs format (unit mm)*
G04 Created by KiCad (PCBNEW (6.0.2)) date 2022-05-11 16:43:43*
%MOMM*%
%LPD*%
G01*
G04 APERTURE LIST*
%TA.AperFunction,NonConductor*%
%ADD10C,2.340000*%
%TD*%
%TA.AperFunction,NonConductor*%
%ADD11C,2.225000*%
%TD*%
%TA.AperFunction,NonConductor*%
%ADD12C,0.000001*%
%TD*%
%TA.AperFunction,ComponentPad*%
%ADD13C,1.600000*%
%TD*%
%TA.AperFunction,ComponentPad*%
%ADD14R,1.600000X1.600000*%
%TD*%
%TA.AperFunction,ComponentPad*%
%ADD15R,1.590000X1.590000*%
%TD*%
%TA.AperFunction,SMDPad,CuDef*%
%ADD16R,1.530000X9.000000*%
%TD*%
%TA.AperFunction,ViaPad*%
%ADD17C,4.450010*%
%TD*%
%TA.AperFunction,ViaPad*%
%ADD18C,0.800000*%
%TD*%
%TA.AperFunction,Conductor*%
%ADD19C,0.250000*%
%TD*%
%TA.AperFunction,Conductor*%
%ADD20C,0.700000*%
%TD*%
G04 APERTURE END LIST*
D10*
X109577000Y-67876000D02*
G75*
G03*
X109577000Y-67876000I-1170000J0D01*
G01*
D11*
X109519500Y-67876000D02*
G75*
G03*
X109519500Y-67876000I-1112500J0D01*
G01*
D10*
X105719000Y-121695000D02*
G75*
G03*
X105719000Y-121695000I-1170000J0D01*
G01*
D11*
X105661500Y-121695000D02*
G75*
G03*
X105661500Y-121695000I-1112500J0D01*
G01*
D10*
X195179000Y-121736000D02*
G75*
G03*
X195179000Y-121736000I-1170000J0D01*
G01*
D11*
X195121500Y-121736000D02*
G75*
G03*
X195121500Y-121736000I-1112500J0D01*
G01*
D10*
X191997000Y-67921000D02*
G75*
G03*
X191997000Y-67921000I-1170000J0D01*
G01*
D11*
X191939500Y-67921000D02*
G75*
G03*
X191939500Y-67921000I-1112500J0D01*
G01*
X105660800Y-121696900D02*
G75*
G03*
X105660800Y-121696900I-1112500J0D01*
G01*
D12*
X180110200Y-69948700D02*
G75*
G03*
X180110200Y-69948700I0J0D01*
G01*
X180110200Y-70534700D02*
G75*
G03*
X180110200Y-70534700I0J0D01*
G01*
D11*
X195116500Y-121736600D02*
G75*
G03*
X195116500Y-121736600I-1112500J0D01*
G01*
D10*
X195174000Y-121736600D02*
G75*
G03*
X195174000Y-121736600I-1170000J0D01*
G01*
D12*
X180108200Y-66477700D02*
G75*
G03*
X180108200Y-66477700I0J0D01*
G01*
D10*
X191999000Y-67920400D02*
G75*
G03*
X191999000Y-67920400I-1170000J0D01*
G01*
D12*
X180110200Y-68247700D02*
G75*
G03*
X180110200Y-68247700I0J0D01*
G01*
D11*
X191941500Y-67920400D02*
G75*
G03*
X191941500Y-67920400I-1112500J0D01*
G01*
D10*
X105718300Y-121696900D02*
G75*
G03*
X105718300Y-121696900I-1170000J0D01*
G01*
D11*
X109510500Y-67880700D02*
G75*
G03*
X109510500Y-67880700I-1112500J0D01*
G01*
D10*
X109568000Y-67880700D02*
G75*
G03*
X109568000Y-67880700I-1170000J0D01*
G01*
D13*
%TO.P,J1,25,P25*%
%TO.N,GND*%
X134211000Y-94231700D03*
%TO.P,J1,24,P24*%
X136981000Y-94231700D03*
%TO.P,J1,23,P23*%
X139751000Y-94231700D03*
%TO.P,J1,22,P22*%
X142521000Y-94231700D03*
%TO.P,J1,21,P21*%
X145291000Y-94231700D03*
%TO.P,J1,20,P20*%
X148061000Y-94231700D03*
%TO.P,J1,19,P19*%
X150831000Y-94231700D03*
%TO.P,J1,18,P18*%
X153601000Y-94231700D03*
%TO.P,J1,17,P17*%
%TO.N,unconnected-(J1-Pad17)*%
X156371000Y-94231700D03*
%TO.P,J1,16,P16*%
%TO.N,unconnected-(J1-Pad16)*%
X159141000Y-94231700D03*
%TO.P,J1,15,P15*%
%TO.N,Net-(J1-Pad15)*%
X161911000Y-94231700D03*
%TO.P,J1,14,P14*%
%TO.N,unconnected-(J1-Pad14)*%
X164681000Y-94231700D03*
%TO.P,J1,13,13*%
%TO.N,Net-(J1-Pad13)*%
X132826000Y-91391700D03*
%TO.P,J1,12,12*%
%TO.N,Net-(J1-Pad12)*%
X135596000Y-91391700D03*
%TO.P,J1,11,11*%
%TO.N,Net-(J1-Pad11)*%
X138366000Y-91391700D03*
%TO.P,J1,10,10*%
%TO.N,Net-(J1-Pad10)*%
X141136000Y-91391700D03*
%TO.P,J1,9,9*%
%TO.N,unconnected-(J1-Pad9)*%
X143906000Y-91391700D03*
%TO.P,J1,8,8*%
%TO.N,unconnected-(J1-Pad8)*%
X146676000Y-91391700D03*
%TO.P,J1,7,7*%
%TO.N,unconnected-(J1-Pad7)*%
X149446000Y-91391700D03*
%TO.P,J1,6,6*%
%TO.N,Net-(J1-Pad6)*%
X152216000Y-91391700D03*
%TO.P,J1,5,5*%
%TO.N,Net-(J1-Pad5)*%
X154986000Y-91391700D03*
%TO.P,J1,4,4*%
%TO.N,Net-(J1-Pad4)*%
X157756000Y-91391700D03*
%TO.P,J1,3,3*%
%TO.N,Net-(J1-Pad3)*%
X160526000Y-91391700D03*
%TO.P,J1,2,2*%
%TO.N,Net-(J1-Pad2)*%
X163296000Y-91391700D03*
D14*
%TO.P,J1,1,1*%
%TO.N,unconnected-(J1-Pad1)*%
X166066000Y-91391700D03*
%TD*%
D15*
%TO.P,SW1,1,1*%
%TO.N,GND*%
X193086500Y-95977500D03*
X193126500Y-89627500D03*
%TO.P,SW1,2,2*%
%TO.N,Net-(R1-Pad1)*%
X197572500Y-95980500D03*
X197611500Y-89628500D03*
%TD*%
D16*
%TO.P,J5,26,Pin_25*%
%TO.N,GND*%
X119067000Y-130450000D03*
%TO.P,J5,27,Pin_24*%
X121585000Y-130464000D03*
%TO.P,J5,28,Pin_23*%
%TO.N,Net-(J3-Pad48)*%
X124110000Y-130452000D03*
%TO.P,J5,29,Pin_22*%
%TO.N,Net-(J3-Pad47)*%
X126637000Y-130446000D03*
%TO.P,J5,30,Pin_21*%
%TO.N,Net-(J3-Pad46)*%
X129156000Y-130460000D03*
%TO.P,J5,31,Pin_20*%
%TO.N,GND*%
X131675000Y-130446000D03*
%TO.P,J5,32,Pin_19*%
%TO.N,Net-(J3-Pad44)*%
X134198000Y-130435000D03*
%TO.P,J5,33,Pin_18*%
%TO.N,Net-(J3-Pad43)*%
X136717000Y-130421000D03*
%TO.P,J5,34,Pin_17*%
%TO.N,VCC*%
X139236000Y-130449000D03*
%TO.P,J5,35,Pin_16*%
%TO.N,Net-(J3-Pad41)*%
X141764000Y-130449000D03*
%TO.P,J5,36,Pin_15*%
%TO.N,Net-(J3-Pad40)*%
X144289000Y-130440000D03*
%TO.P,J5,37,Pin_14*%
%TO.N,Net-(J3-Pad39)*%
X146810000Y-130432000D03*
%TO.P,J5,38,Pin_13*%
%TO.N,Net-(J3-Pad38)*%
X149334000Y-130416000D03*
%TO.P,J5,39,Pin_12*%
%TO.N,Net-(J3-Pad37)*%
X151854000Y-130389000D03*
%TO.P,J5,40,Pin_11*%
%TO.N,Net-(J3-Pad36)*%
X154374000Y-130401000D03*
%TO.P,J5,41,Pin_10*%
%TO.N,Net-(J3-Pad35)*%
X156893000Y-130387000D03*
%TO.P,J5,42,Pin_9*%
%TO.N,VCC*%
X159411000Y-130453000D03*
%TO.P,J5,43,Pin_8*%
%TO.N,Net-(J3-Pad33)*%
X161935000Y-130447000D03*
%TO.P,J5,44,Pin_7*%
%TO.N,Net-(J3-Pad32)*%
X164461000Y-130437000D03*
%TO.P,J5,45,Pin_6*%
%TO.N,Net-(J3-Pad31)*%
X166979000Y-130433000D03*
%TO.P,J5,46,Pin_5*%
%TO.N,Net-(J3-Pad30)*%
X169499000Y-130418000D03*
%TO.P,J5,47,Pin_4*%
%TO.N,GND*%
X172018000Y-130418000D03*
%TO.P,J5,48,Pin_3*%
X174548000Y-130402000D03*
%TO.P,J5,49,Pin_2*%
%TO.N,Net-(J3-Pad27)*%
X177074000Y-130401000D03*
%TO.P,J5,50,Pin_1*%
%TO.N,GND*%
X179593000Y-130460000D03*
%TD*%
D14*
%TO.P,U3,1,CA*%
%TO.N,VCC*%
X168639500Y-75512500D03*
D13*
%TO.P,U3,2,F*%
%TO.N,Net-(R8-Pad1)*%
X168639500Y-78052500D03*
%TO.P,U3,3,G*%
%TO.N,Net-(R9-Pad1)*%
X168639500Y-80592500D03*
%TO.P,U3,4,E*%
%TO.N,Net-(R10-Pad1)*%
X168639500Y-83132500D03*
%TO.P,U3,5,D*%
%TO.N,Net-(R11-Pad1)*%
X168639500Y-85672500D03*
%TO.P,U3,6,CA*%
%TO.N,VCC*%
X173719500Y-85672500D03*
%TO.P,U3,7,DP*%
%TO.N,Net-(R4-Pad1)*%
X173719500Y-83132500D03*
%TO.P,U3,8,C*%
%TO.N,Net-(R5-Pad1)*%
X173719500Y-80592500D03*
%TO.P,U3,9,B*%
%TO.N,Net-(R6-Pad1)*%
X173719500Y-78052500D03*
%TO.P,U3,10,A*%
%TO.N,Net-(R7-Pad1)*%
X173719500Y-75512500D03*
%TD*%
D16*
%TO.P,J3,26,Pin_1*%
%TO.N,GND*%
X179549000Y-69091000D03*
%TO.P,J3,27,Pin_2*%
%TO.N,Net-(J3-Pad27)*%
X177031000Y-69077000D03*
%TO.P,J3,28,Pin_3*%
%TO.N,GND*%
X174506000Y-69089000D03*
%TO.P,J3,29,Pin_4*%
X171979000Y-69095000D03*
%TO.P,J3,30,Pin_5*%
%TO.N,Net-(J3-Pad30)*%
X169460000Y-69081000D03*
%TO.P,J3,31,Pin_6*%
%TO.N,Net-(J3-Pad31)*%
X166941000Y-69095000D03*
%TO.P,J3,32,Pin_7*%
%TO.N,Net-(J3-Pad32)*%
X164418000Y-69106000D03*
%TO.P,J3,33,Pin_8*%
%TO.N,Net-(J3-Pad33)*%
X161899000Y-69120000D03*
%TO.P,J3,34,Pin_9*%
%TO.N,VCC*%
X159380000Y-69092000D03*
%TO.P,J3,35,Pin_10*%
%TO.N,Net-(J3-Pad35)*%
X156852000Y-69092000D03*
%TO.P,J3,36,Pin_11*%
%TO.N,Net-(J3-Pad36)*%
X154327000Y-69101000D03*
%TO.P,J3,37,Pin_12*%
%TO.N,Net-(J3-Pad37)*%
X151806000Y-69109000D03*
%TO.P,J3,38,Pin_13*%
%TO.N,Net-(J3-Pad38)*%
X149282000Y-69125000D03*
%TO.P,J3,39,Pin_14*%
%TO.N,Net-(J3-Pad39)*%
X146762000Y-69152000D03*
%TO.P,J3,40,Pin_15*%
%TO.N,Net-(J3-Pad40)*%
X144242000Y-69140000D03*
%TO.P,J3,41,Pin_16*%
%TO.N,Net-(J3-Pad41)*%
X141723000Y-69154000D03*
%TO.P,J3,42,Pin_17*%
%TO.N,VCC*%
X139205000Y-69088000D03*
%TO.P,J3,43,Pin_18*%
%TO.N,Net-(J3-Pad43)*%
X136681000Y-69094000D03*
%TO.P,J3,44,Pin_19*%
%TO.N,Net-(J3-Pad44)*%
X134155000Y-69104000D03*
%TO.P,J3,45,Pin_20*%
%TO.N,GND*%
X131637000Y-69108000D03*
%TO.P,J3,46,Pin_21*%
%TO.N,Net-(J3-Pad46)*%
X129117000Y-69123000D03*
%TO.P,J3,47,Pin_22*%
%TO.N,Net-(J3-Pad47)*%
X126598000Y-69123000D03*
%TO.P,J3,48,Pin_23*%
%TO.N,Net-(J3-Pad48)*%
X124068000Y-69139000D03*
%TO.P,J3,49,Pin_24*%
%TO.N,GND*%
X121542000Y-69140000D03*
%TO.P,J3,50,Pin_25*%
X119023000Y-69081000D03*
%TD*%
D17*
%TO.N,*%
X108408200Y-67871300D03*
X104550200Y-121690300D03*
X194010200Y-121731300D03*
X190828200Y-67916300D03*
D18*
%TO.N,Net-(U1-Pad1)*%
X109464700Y-110384600D03*
X108163400Y-94313800D03*
%TO.N,Net-(U1-Pad2)*%
X110747800Y-109579100D03*
X110540700Y-93467000D03*
%TO.N,Net-(U1-Pad3)*%
X112262700Y-112372200D03*
X111189700Y-92696400D03*
%TO.N,Net-(U1-Pad5)*%
X124554300Y-100804000D03*
X118124800Y-110468100D03*
%TO.N,Net-(U1-Pad6)*%
X124399000Y-99594100D03*
X117086700Y-110465000D03*
%TO.N,Net-(U1-Pad7)*%
X118332500Y-108159600D03*
X124519400Y-98436000D03*
%TO.N,Net-(U1-Pad8)*%
X118371200Y-107148600D03*
X124793800Y-97177800D03*
%TO.N,Net-(U1-Pad9)*%
X117310300Y-106911400D03*
X124972000Y-96145800D03*
%TO.N,Net-(U1-Pad10)*%
X117401500Y-103793800D03*
X125336500Y-95093500D03*
%TO.N,Net-(U1-Pad11)*%
X116672600Y-104486800D03*
X123672200Y-92594600D03*
%TO.N,Net-(U1-Pad12)*%
X116670100Y-102912300D03*
X124915800Y-92865400D03*
%TO.N,Net-(J3-Pad48)*%
X122893700Y-79193800D03*
X130294200Y-111880900D03*
%TO.N,Net-(J3-Pad47)*%
X125274100Y-78570400D03*
X131294600Y-111906200D03*
%TO.N,Net-(J3-Pad46)*%
X131803300Y-112812300D03*
X184772400Y-114457200D03*
X175572700Y-114286000D03*
X127743400Y-77845100D03*
%TO.N,GND*%
X131475600Y-74234400D03*
X131654700Y-110308300D03*
X110102700Y-98515300D03*
X113197200Y-80752500D03*
X124583300Y-110586900D03*
X175974200Y-74381000D03*
X131675000Y-125212500D03*
X117656500Y-70042900D03*
X119299500Y-125267200D03*
X179598000Y-124901200D03*
X173337500Y-125367700D03*
%TO.N,Net-(J3-Pad44)*%
X134155000Y-77976900D03*
X185641200Y-112672000D03*
X176897800Y-113708400D03*
X117491100Y-79924000D03*
X113266800Y-81926000D03*
X136703000Y-115460300D03*
%TO.N,Net-(J3-Pad40)*%
X144634400Y-119686000D03*
X139260200Y-76854300D03*
%TO.N,Net-(J3-Pad39)*%
X139923200Y-76090200D03*
X146978700Y-119514800D03*
%TO.N,Net-(J3-Pad36)*%
X154374000Y-119965100D03*
X113240700Y-82928300D03*
X129873700Y-85132200D03*
X151656700Y-75339000D03*
%TO.N,Net-(J3-Pad35)*%
X155660500Y-120506400D03*
X129606400Y-112607900D03*
X112694400Y-83835300D03*
%TO.N,Net-(U1-Pad22)*%
X111049600Y-85489700D03*
X112970800Y-103465000D03*
X116272500Y-94277900D03*
%TO.N,Net-(U1-Pad23)*%
X112622400Y-104733000D03*
X119177900Y-104052600D03*
X111497400Y-88448100D03*
%TO.N,Net-(U1-Pad24)*%
X101835300Y-82476000D03*
X125673000Y-108293600D03*
X102300700Y-101223700D03*
%TO.N,Net-(U1-Pad25)*%
X106119300Y-86961600D03*
X105205200Y-97910400D03*
%TO.N,Net-(U1-Pad26)*%
X104671300Y-96885500D03*
X104380900Y-91107200D03*
%TO.N,Net-(U1-Pad27)*%
X105108900Y-95423400D03*
X105332000Y-86284000D03*
%TO.N,Net-(U1-Pad28)*%
X119794300Y-111189700D03*
X110487700Y-88754900D03*
X112403300Y-109071800D03*
%TO.N,Net-(U1-Pad29)*%
X119365000Y-112503500D03*
X106310700Y-111048500D03*
X103896800Y-89797700D03*
%TO.N,Net-(U1-Pad30)*%
X106229400Y-92719400D03*
X118604600Y-114911400D03*
X107705300Y-111755900D03*
%TO.N,Net-(J2-Pad8)*%
X116195700Y-75396400D03*
X108705700Y-111751100D03*
X114286700Y-117385600D03*
X106732200Y-88990900D03*
%TO.N,VCC*%
X139512900Y-125332400D03*
X119536900Y-118762500D03*
X139132800Y-83023200D03*
X139479900Y-112367500D03*
X161404000Y-120640500D03*
X158749700Y-112506900D03*
X159411000Y-125312500D03*
X159482300Y-74245500D03*
X139083800Y-74240500D03*
X124577000Y-108612400D03*
%TO.N,Net-(J2-Pad16)*%
X126804700Y-92851700D03*
X117450400Y-101947800D03*
X127249200Y-111924000D03*
%TO.N,Net-(J2-Pad15)*%
X127154100Y-91842800D03*
X128138300Y-114220700D03*
X114070800Y-100288000D03*
%TO.N,Net-(J2-Pad12)*%
X127025300Y-87802000D03*
X128868000Y-115005800D03*
X114372800Y-98814800D03*
%TO.N,Net-(J2-Pad11)*%
X126878900Y-86757300D03*
X113540900Y-98076600D03*
X129666000Y-115931300D03*
%TO.N,Net-(J2-Pad7)*%
X116106500Y-116816800D03*
X109358600Y-102056200D03*
X118466300Y-75599800D03*
%TO.N,Net-(J2-Pad5)*%
X107701600Y-102503300D03*
X115293100Y-117418100D03*
X117489600Y-75130200D03*
%TO.N,Net-(J2-Pad4)*%
X116330700Y-74396000D03*
X104478500Y-100551200D03*
X122056300Y-120758400D03*
%TO.N,Net-(J2-Pad3)*%
X114988200Y-120604100D03*
X103474400Y-100898500D03*
X115633900Y-73670700D03*
%TO.N,Net-(J2-Pad20)*%
X166194000Y-74417800D03*
X167255900Y-122128600D03*
%TO.N,Net-(J3-Pad43)*%
X138162900Y-116834700D03*
%TO.N,Net-(J3-Pad41)*%
X141859300Y-116537800D03*
%TO.N,Net-(J1-Pad2)*%
X163238100Y-109536900D03*
%TO.N,Net-(J1-Pad6)*%
X152387600Y-102630700D03*
%TO.N,Net-(U5-Pad1)*%
X146737200Y-121415800D03*
X141298400Y-107281000D03*
%TO.N,Net-(R11-Pad1)*%
X176106600Y-85380600D03*
%TO.N,Net-(R4-Pad1)*%
X176678300Y-76594100D03*
%TO.N,Net-(R5-Pad1)*%
X174973600Y-77318900D03*
%TO.N,Net-(R7-Pad1)*%
X175787300Y-78617600D03*
%TO.N,Net-(J1-Pad10)*%
X186405600Y-115108300D03*
X175588300Y-89742500D03*
%TO.N,Net-(J1-Pad11)*%
X187519900Y-111553600D03*
X177181500Y-89428400D03*
%TO.N,Net-(J1-Pad12)*%
X189986700Y-109503100D03*
X178695500Y-91162000D03*
%TO.N,Net-(J1-Pad13)*%
X187136800Y-116020200D03*
X176427800Y-88347400D03*
%TO.N,Net-(J1-Pad15)*%
X164790000Y-112132800D03*
%TO.N,Net-(J2-Pad13)*%
X149084700Y-124808200D03*
X149293000Y-75007500D03*
%TO.N,Net-(J2-Pad14)*%
X145667200Y-79237500D03*
X148341200Y-123803100D03*
%TO.N,Net-(J2-Pad18)*%
X162887700Y-125041700D03*
X162644900Y-74269000D03*
%TO.N,Net-(J2-Pad19)*%
X164369400Y-74705200D03*
X165543600Y-123479800D03*
%TO.N,Net-(J2-Pad21)*%
X168985100Y-87075800D03*
X170224500Y-125072400D03*
%TO.N,Net-(J2-Pad24)*%
X176800900Y-124694500D03*
X178226400Y-74039800D03*
%TO.N,Net-(R4-Pad2)*%
X192687100Y-81358800D03*
X185709300Y-72962000D03*
%TO.N,Net-(R5-Pad2)*%
X191979800Y-77984100D03*
X185785900Y-74989500D03*
%TO.N,Net-(R6-Pad2)*%
X192839900Y-78714000D03*
X185698300Y-76768000D03*
%TD*%
D19*
%TO.N,Net-(U1-Pad1)*%
X108427000Y-94577400D02*
X108427000Y-109346900D01*
X108427000Y-109346900D02*
X109464700Y-110384600D01*
X108163400Y-94313800D02*
X108427000Y-94577400D01*
%TO.N,Net-(U1-Pad2)*%
X110842000Y-109484900D02*
X110842000Y-93768300D01*
X110747800Y-109579100D02*
X110842000Y-109484900D01*
X110842000Y-93768300D02*
X110540700Y-93467000D01*
%TO.N,Net-(U1-Pad3)*%
X112262700Y-110068200D02*
X111292400Y-109097900D01*
X111292400Y-109097900D02*
X111292400Y-92799100D01*
X112262700Y-112372200D02*
X112262700Y-110068200D01*
X111292400Y-92799100D02*
X111189700Y-92696400D01*
%TO.N,Net-(U1-Pad5)*%
X124554300Y-104038600D02*
X124554300Y-100804000D01*
X118124800Y-110468100D02*
X124554300Y-104038600D01*
%TO.N,Net-(U1-Pad6)*%
X124399000Y-99594100D02*
X123297700Y-100695400D01*
X123297700Y-104254000D02*
X117086700Y-110465000D01*
X123297700Y-100695400D02*
X123297700Y-104254000D01*
%TO.N,Net-(U1-Pad7)*%
X124519400Y-98436000D02*
X122528500Y-100426900D01*
X118405400Y-108159600D02*
X118332500Y-108159600D01*
X122528500Y-100426900D02*
X122528500Y-104036500D01*
X122528500Y-104036500D02*
X118405400Y-108159600D01*
%TO.N,Net-(U1-Pad8)*%
X121254100Y-104265700D02*
X118371200Y-107148600D01*
X124718100Y-97177800D02*
X121254100Y-100641800D01*
X124793800Y-97177800D02*
X124718100Y-97177800D01*
X121254100Y-100641800D02*
X121254100Y-104265700D01*
%TO.N,Net-(U1-Pad9)*%
X124777500Y-96145800D02*
X119903300Y-101020000D01*
X119903300Y-104435300D02*
X117427200Y-106911400D01*
X119903300Y-101020000D02*
X119903300Y-104435300D01*
X117427200Y-106911400D02*
X117310300Y-106911400D01*
X124972000Y-96145800D02*
X124777500Y-96145800D01*
%TO.N,Net-(U1-Pad10)*%
X117401500Y-103793800D02*
X118749800Y-102445500D01*
X124998200Y-95093500D02*
X125336500Y-95093500D01*
X118749800Y-102445500D02*
X118749800Y-101341900D01*
X118749800Y-101341900D02*
X124998200Y-95093500D01*
%TO.N,Net-(U1-Pad11)*%
X123672200Y-92594600D02*
X115944800Y-100322000D01*
X115944800Y-100322000D02*
X115944800Y-103759000D01*
X115944800Y-103759000D02*
X116672600Y-104486800D01*
%TO.N,Net-(U1-Pad12)*%
X116670100Y-101111100D02*
X124915800Y-92865400D01*
X116670100Y-102912300D02*
X116670100Y-101111100D01*
%TO.N,Net-(J3-Pad48)*%
X130391300Y-111978000D02*
X130294200Y-111880900D01*
X124068000Y-69139000D02*
X124068000Y-73964300D01*
X124110000Y-130452000D02*
X124110000Y-125626700D01*
X129875500Y-86156200D02*
X129875500Y-111462200D01*
X129875500Y-111462200D02*
X130294200Y-111880900D01*
X130599000Y-84831700D02*
X130599000Y-85432700D01*
X130391300Y-119345400D02*
X130391300Y-111978000D01*
X130599000Y-85432700D02*
X129875500Y-86156200D01*
X122995600Y-79295700D02*
X125063000Y-79295700D01*
X124068000Y-73964300D02*
X122893700Y-75138600D01*
X124110000Y-125626700D02*
X130391300Y-119345400D01*
X122893700Y-79193800D02*
X122995600Y-79295700D01*
X122893700Y-75138600D02*
X122893700Y-79193800D01*
X125063000Y-79295700D02*
X130599000Y-84831700D01*
%TO.N,Net-(J3-Pad47)*%
X131049300Y-84345600D02*
X125274100Y-78570400D01*
X126598000Y-69123000D02*
X126598000Y-73948300D01*
X130335200Y-110896100D02*
X130335200Y-86333400D01*
X126637000Y-125620700D02*
X131019500Y-121238200D01*
X125274100Y-78570400D02*
X125274100Y-75272200D01*
X125274100Y-75272200D02*
X126598000Y-73948300D01*
X131049300Y-85619300D02*
X131049300Y-84345600D01*
X131019500Y-111580400D02*
X130335200Y-110896100D01*
X126637000Y-130446000D02*
X126637000Y-125620700D01*
X131019500Y-111906200D02*
X131019500Y-111580400D01*
X131019500Y-121238200D02*
X131019500Y-111906200D01*
X130335200Y-86333400D02*
X131049300Y-85619300D01*
X131019500Y-111906200D02*
X131294600Y-111906200D01*
%TO.N,Net-(J3-Pad46)*%
X127743400Y-75321900D02*
X129117000Y-73948300D01*
X175743900Y-114457200D02*
X175572700Y-114286000D01*
X131499600Y-85805900D02*
X131499600Y-81601300D01*
X131803300Y-112812300D02*
X132019900Y-112595700D01*
X131803300Y-122987400D02*
X131803300Y-112812300D01*
X184772400Y-114457200D02*
X175743900Y-114457200D01*
X132019900Y-112595700D02*
X132019900Y-111605700D01*
X129117000Y-69123000D02*
X129117000Y-73948300D01*
X130785800Y-110515200D02*
X130785800Y-86519700D01*
X129156000Y-125634700D02*
X131803300Y-122987400D01*
X129156000Y-130460000D02*
X129156000Y-125634700D01*
X131595100Y-111180900D02*
X131451500Y-111180900D01*
X131451500Y-111180900D02*
X130785800Y-110515200D01*
X127743400Y-77845100D02*
X127743400Y-75321900D01*
X130785800Y-86519700D02*
X131499600Y-85805900D01*
X132019900Y-111605700D02*
X131595100Y-111180900D01*
X131499600Y-81601300D02*
X127743400Y-77845100D01*
D20*
%TO.N,GND*%
X179599800Y-124901200D02*
X191741200Y-112759800D01*
X109537400Y-89148500D02*
X109564000Y-89175100D01*
X113197200Y-80752500D02*
X114657600Y-80752500D01*
X193086500Y-95977500D02*
X193086500Y-94632200D01*
X134211000Y-94231700D02*
X131654700Y-96788000D01*
X131677600Y-110308300D02*
X131654700Y-110308300D01*
X133746400Y-94231700D02*
X134211000Y-94231700D01*
X131637000Y-74158300D02*
X131560900Y-74234400D01*
X131560900Y-74234400D02*
X131475600Y-74234400D01*
X121585000Y-130464000D02*
X121585000Y-125632800D01*
X193126500Y-88954800D02*
X193126500Y-88282200D01*
X132753600Y-124133900D02*
X132753600Y-111384300D01*
X191741200Y-112759800D02*
X191741200Y-95977500D01*
X180389500Y-74141300D02*
X179549000Y-74141300D01*
X109537400Y-84249500D02*
X109537400Y-89148500D01*
X131475600Y-74234400D02*
X132174900Y-74933700D01*
X193126500Y-88282200D02*
X193126500Y-86878300D01*
X172018000Y-130418000D02*
X172018000Y-125367700D01*
X121585000Y-125413700D02*
X121571000Y-125399700D01*
X174506000Y-69095000D02*
X171979000Y-69095000D01*
X174506000Y-72912800D02*
X175974200Y-74381000D01*
X131475600Y-86785000D02*
X131475600Y-91960900D01*
X114657600Y-80752500D02*
X119416600Y-75993500D01*
X119416600Y-74524900D02*
X119023000Y-74131300D01*
X179549000Y-69091000D02*
X179549000Y-73909200D01*
X179593000Y-130460000D02*
X179593000Y-125409700D01*
X109564000Y-89175100D02*
X109564000Y-97976600D01*
X179593000Y-124906200D02*
X179598000Y-124901200D01*
X174548000Y-130402000D02*
X174548000Y-127876800D01*
X119023000Y-71004800D02*
X119023000Y-71872400D01*
X113034400Y-80752500D02*
X109537400Y-84249500D01*
X119023000Y-69081000D02*
X119023000Y-70042900D01*
X131637000Y-69108000D02*
X131637000Y-74158300D01*
X131675000Y-125212500D02*
X132753600Y-124133900D01*
X109564000Y-97976600D02*
X110102700Y-98515300D01*
X119299500Y-125399700D02*
X119067000Y-125399700D01*
X119023000Y-72740000D02*
X120473300Y-74190300D01*
X119023000Y-71872400D02*
X119023000Y-74131300D01*
X131654700Y-96788000D02*
X131654700Y-110308300D01*
X179593000Y-125409700D02*
X179593000Y-124906200D01*
X131675000Y-125212500D02*
X131675000Y-125395700D01*
X174506000Y-69095000D02*
X174506000Y-72912800D01*
X131675000Y-130446000D02*
X131675000Y-125395700D01*
X174548000Y-126578200D02*
X173337500Y-125367700D01*
X121571000Y-125399700D02*
X119299500Y-125399700D01*
X119067000Y-130450000D02*
X119067000Y-125399700D01*
X113197200Y-80752500D02*
X113034400Y-80752500D01*
X121571000Y-125399700D02*
X124583300Y-122387400D01*
X119416600Y-75993500D02*
X119416600Y-74524900D01*
X172018000Y-125367700D02*
X173337500Y-125367700D01*
X132174900Y-86085700D02*
X131475600Y-86785000D01*
X132753600Y-111384300D02*
X131677600Y-110308300D01*
X124583300Y-122387400D02*
X124583300Y-110586900D01*
X120473300Y-74190300D02*
X121542000Y-74190300D01*
X119023000Y-70042900D02*
X119023000Y-71004800D01*
X121542000Y-69140000D02*
X121542000Y-74190300D01*
X193126500Y-86878300D02*
X180389500Y-74141300D01*
X174548000Y-127876800D02*
X174548000Y-126578200D01*
X193086500Y-88994800D02*
X193086500Y-94632200D01*
X193126500Y-88954800D02*
X193086500Y-88994800D01*
X179598000Y-124901200D02*
X179599800Y-124901200D01*
X119299500Y-125399700D02*
X119299500Y-125267200D01*
X119023000Y-71872400D02*
X119023000Y-72740000D01*
X121585000Y-125632800D02*
X121585000Y-125413700D01*
X131475600Y-91960900D02*
X133746400Y-94231700D01*
X193126500Y-89627500D02*
X193126500Y-88954800D01*
X174506000Y-69095000D02*
X174506000Y-69089000D01*
X179549000Y-74127400D02*
X179549000Y-74141300D01*
X119023000Y-70042900D02*
X117656500Y-70042900D01*
X132174900Y-74933700D02*
X132174900Y-86085700D01*
X179549000Y-73909200D02*
X179549000Y-74127400D01*
X193086500Y-95977500D02*
X191741200Y-95977500D01*
D19*
%TO.N,Net-(J3-Pad44)*%
X134198000Y-130435000D02*
X134198000Y-125609700D01*
X136703000Y-115460300D02*
X136703000Y-123104700D01*
X135715500Y-93673100D02*
X135715500Y-114472800D01*
X134155000Y-69104000D02*
X134155000Y-77976900D01*
X185641200Y-112672000D02*
X184604800Y-113708400D01*
X115489100Y-81926000D02*
X117491100Y-79924000D01*
X184604800Y-113708400D02*
X176897800Y-113708400D01*
X135715500Y-114472800D02*
X136703000Y-115460300D01*
X134155000Y-92112600D02*
X135715500Y-93673100D01*
X136703000Y-123104700D02*
X134198000Y-125609700D01*
X113266800Y-81926000D02*
X115489100Y-81926000D01*
X134155000Y-77976900D02*
X134155000Y-92112600D01*
%TO.N,Net-(J3-Pad40)*%
X142306200Y-79900300D02*
X139260200Y-76854300D01*
X144289000Y-130440000D02*
X144289000Y-125614700D01*
X141372900Y-106180800D02*
X141372900Y-93450700D01*
X142959100Y-75248200D02*
X144242000Y-73965300D01*
X144289000Y-119686000D02*
X144634400Y-119686000D01*
X139169400Y-75818300D02*
X139739500Y-75248200D01*
X144289000Y-119686000D02*
X144289000Y-125614700D01*
X142306200Y-92517400D02*
X142306200Y-79900300D01*
X139260200Y-76854300D02*
X139169400Y-76763500D01*
X140785200Y-107793500D02*
X140573100Y-107581400D01*
X144242000Y-69140000D02*
X144242000Y-73965300D01*
X144289000Y-119686000D02*
X144289000Y-117941600D01*
X141372900Y-93450700D02*
X142306200Y-92517400D01*
X139169400Y-76763500D02*
X139169400Y-75818300D01*
X140573100Y-106980600D02*
X141372900Y-106180800D01*
X140785200Y-114437800D02*
X140785200Y-107793500D01*
X139739500Y-75248200D02*
X142959100Y-75248200D01*
X140573100Y-107581400D02*
X140573100Y-106980600D01*
X144289000Y-117941600D02*
X140785200Y-114437800D01*
%TO.N,Net-(J3-Pad39)*%
X142756600Y-77982700D02*
X146762000Y-73977300D01*
X147468100Y-120004200D02*
X146978700Y-119514800D01*
X146762000Y-69152000D02*
X146762000Y-73977300D01*
X146810000Y-130432000D02*
X146810000Y-125606700D01*
X146810000Y-125606700D02*
X147468100Y-124948600D01*
X143704800Y-112921900D02*
X146978700Y-116195800D01*
X147468100Y-124948600D02*
X147468100Y-120004200D01*
X146978700Y-116195800D02*
X146978700Y-119514800D01*
X142756600Y-77982700D02*
X142756600Y-92538100D01*
X141815700Y-77982700D02*
X139923200Y-76090200D01*
X142756600Y-77982700D02*
X141815700Y-77982700D01*
X143704800Y-93486300D02*
X143704800Y-112921900D01*
X142756600Y-92538100D02*
X143704800Y-93486300D01*
%TO.N,Net-(J3-Pad36)*%
X153341300Y-92380400D02*
X153341300Y-77023600D01*
X154374000Y-119965100D02*
X154737200Y-119601900D01*
X153341300Y-77023600D02*
X151656700Y-75339000D01*
X154737200Y-93776300D02*
X153341300Y-92380400D01*
X154374000Y-125575700D02*
X154374000Y-119965100D01*
X154737200Y-119601900D02*
X154737200Y-93776300D01*
X154327000Y-69101000D02*
X154327000Y-73926300D01*
X153069400Y-73926300D02*
X151656700Y-75339000D01*
X154374000Y-130401000D02*
X154374000Y-125575700D01*
X154327000Y-73926300D02*
X153069400Y-73926300D01*
X113240700Y-82928300D02*
X127669800Y-82928300D01*
X127669800Y-82928300D02*
X129873700Y-85132200D01*
%TO.N,Net-(J3-Pad35)*%
X129422600Y-112424100D02*
X129606400Y-112607900D01*
X125011100Y-83835300D02*
X129422600Y-88246800D01*
X155239500Y-93067400D02*
X155239500Y-120085400D01*
X156852000Y-69092000D02*
X156852000Y-73917300D01*
X129422600Y-88246800D02*
X129422600Y-112424100D01*
X155239500Y-120085400D02*
X155660500Y-120506400D01*
X155660500Y-124329200D02*
X156893000Y-125561700D01*
X156530400Y-91776500D02*
X155239500Y-93067400D01*
X155660500Y-120506400D02*
X155660500Y-124329200D01*
X156852000Y-73917300D02*
X156530400Y-74238900D01*
X156530400Y-74238900D02*
X156530400Y-91776500D01*
X112694400Y-83835300D02*
X125011100Y-83835300D01*
X156893000Y-130387000D02*
X156893000Y-125561700D01*
%TO.N,Net-(U1-Pad22)*%
X112944800Y-94277900D02*
X112944800Y-87384900D01*
X112970800Y-103465000D02*
X112815500Y-103309700D01*
X112944800Y-87384900D02*
X111049600Y-85489700D01*
X112815500Y-103309700D02*
X112815500Y-94407200D01*
X112815500Y-94407200D02*
X112944800Y-94277900D01*
X112944800Y-94277900D02*
X116272500Y-94277900D01*
%TO.N,Net-(U1-Pad23)*%
X112245400Y-104356000D02*
X112245400Y-94162300D01*
X112245400Y-94162300D02*
X112431900Y-93975800D01*
X112431900Y-89382600D02*
X111497400Y-88448100D01*
X113151700Y-105262300D02*
X117968200Y-105262300D01*
X112431900Y-93975800D02*
X112431900Y-89382600D01*
X117968200Y-105262300D02*
X119177900Y-104052600D01*
X112622400Y-104733000D02*
X113151700Y-105262300D01*
X112622400Y-104733000D02*
X112245400Y-104356000D01*
%TO.N,Net-(U1-Pad24)*%
X102300700Y-101223700D02*
X102300700Y-109453800D01*
X124806800Y-109337700D02*
X124889000Y-109337700D01*
X114385200Y-121538300D02*
X122302200Y-121538300D01*
X101835300Y-82476000D02*
X101835300Y-100758300D01*
X122302200Y-121538300D02*
X123442700Y-120397800D01*
X123442700Y-110701800D02*
X124806800Y-109337700D01*
X125673000Y-108553700D02*
X125673000Y-108293600D01*
X124889000Y-109337700D02*
X125673000Y-108553700D01*
X123442700Y-120397800D02*
X123442700Y-110701800D01*
X102300700Y-109453800D02*
X114385200Y-121538300D01*
X101835300Y-100758300D02*
X102300700Y-101223700D01*
%TO.N,Net-(U1-Pad25)*%
X105504100Y-92419000D02*
X105726500Y-92196600D01*
X105504100Y-93019800D02*
X105504100Y-92419000D01*
X105726500Y-92196600D02*
X105726500Y-87354400D01*
X105834200Y-93349900D02*
X105504100Y-93019800D01*
X105834200Y-97281400D02*
X105834200Y-93349900D01*
X105726500Y-87354400D02*
X106119300Y-86961600D01*
X105205200Y-97910400D02*
X105834200Y-97281400D01*
%TO.N,Net-(U1-Pad26)*%
X104380900Y-96595100D02*
X104671300Y-96885500D01*
X104380900Y-91107200D02*
X104380900Y-96595100D01*
%TO.N,Net-(U1-Pad27)*%
X105276100Y-86339900D02*
X105276100Y-91624000D01*
X105332000Y-86284000D02*
X105276100Y-86339900D01*
X105276100Y-91624000D02*
X105020000Y-91880100D01*
X105020000Y-91880100D02*
X105020000Y-95334500D01*
X105020000Y-95334500D02*
X105108900Y-95423400D01*
%TO.N,Net-(U1-Pad28)*%
X111964000Y-90231200D02*
X111964000Y-93581500D01*
X119721400Y-111262600D02*
X119794300Y-111189700D01*
X111964000Y-93581500D02*
X111742800Y-93802700D01*
X110487700Y-88754900D02*
X111964000Y-90231200D01*
X111742800Y-93802700D02*
X111742800Y-108411300D01*
X111742800Y-108411300D02*
X112403300Y-109071800D01*
X114594100Y-111262600D02*
X119721400Y-111262600D01*
X112403300Y-109071800D02*
X114594100Y-111262600D01*
%TO.N,Net-(U1-Pad29)*%
X106310700Y-111048500D02*
X106310700Y-111387000D01*
X103655600Y-98354200D02*
X105744200Y-100442800D01*
X103896800Y-89797700D02*
X103655600Y-90038900D01*
X113517500Y-118593800D02*
X115992200Y-118593800D01*
X115992200Y-118593800D02*
X119365000Y-115221000D01*
X105744200Y-100442800D02*
X105744200Y-110482000D01*
X103655600Y-90038900D02*
X103655600Y-98354200D01*
X119365000Y-115221000D02*
X119365000Y-112503500D01*
X105744200Y-110482000D02*
X106310700Y-111048500D01*
X106310700Y-111387000D02*
X113517500Y-118593800D01*
%TO.N,Net-(U1-Pad30)*%
X106284500Y-92774500D02*
X106229400Y-92719400D01*
X107705300Y-111755900D02*
X107705300Y-111893200D01*
X106284500Y-109627600D02*
X106284500Y-92774500D01*
X118604600Y-115344500D02*
X118604600Y-114911400D01*
X113955500Y-118143400D02*
X115805700Y-118143400D01*
X115805700Y-118143400D02*
X118604600Y-115344500D01*
X107705300Y-111755900D02*
X107705300Y-111048400D01*
X107705300Y-111048400D02*
X106284500Y-109627600D01*
X107705300Y-111893200D02*
X113955500Y-118143400D01*
%TO.N,Net-(J2-Pad8)*%
X116195700Y-75396400D02*
X116149200Y-75396400D01*
X116149200Y-75396400D02*
X106904100Y-84641500D01*
X108705700Y-111751100D02*
X108705700Y-111804600D01*
X108705700Y-111288200D02*
X108705700Y-111751100D01*
X106904100Y-88819000D02*
X106732200Y-88990900D01*
X108705700Y-111804600D02*
X114286700Y-117385600D01*
X106954700Y-109537200D02*
X108705700Y-111288200D01*
X106904100Y-84641500D02*
X106904100Y-88819000D01*
X106732200Y-88990900D02*
X106954700Y-89213400D01*
X106954700Y-89213400D02*
X106954700Y-109537200D01*
D20*
%TO.N,VCC*%
X139236000Y-130449000D02*
X139236000Y-125398700D01*
X171179500Y-83132500D02*
X173719500Y-85672500D01*
X161404000Y-115161200D02*
X161404000Y-120640500D01*
X139512900Y-112400500D02*
X139479900Y-112367500D01*
X139186000Y-74138300D02*
X139083800Y-74240500D01*
X159380000Y-69092000D02*
X159380000Y-74142300D01*
X168639500Y-75512500D02*
X171179500Y-78052500D01*
X171179500Y-78052500D02*
X171179500Y-83132500D01*
X159175600Y-91905800D02*
X157756000Y-93325400D01*
X139083800Y-74240500D02*
X137859600Y-75464700D01*
X139302300Y-125332400D02*
X139512900Y-125332400D01*
X139205000Y-69088000D02*
X139205000Y-74138300D01*
X159411000Y-122633500D02*
X161404000Y-120640500D01*
X139205000Y-74138300D02*
X139186000Y-74138300D01*
X159411000Y-125312500D02*
X159411000Y-130453000D01*
X158749700Y-112506900D02*
X161404000Y-115161200D01*
X119536900Y-118762500D02*
X122651500Y-115647900D01*
X157756000Y-111513200D02*
X158749700Y-112506900D01*
X137859600Y-81750000D02*
X139132800Y-83023200D01*
X122651500Y-110537900D02*
X124577000Y-108612400D01*
X137859600Y-75464700D02*
X137859600Y-81750000D01*
X159175600Y-74552200D02*
X159175600Y-91905800D01*
X159380000Y-74142300D02*
X159482300Y-74244600D01*
X122651500Y-115647900D02*
X122651500Y-110537900D01*
X157756000Y-93325400D02*
X157756000Y-111513200D01*
X139512900Y-125332400D02*
X139512900Y-112400500D01*
X159482300Y-74244600D02*
X159482300Y-74245500D01*
X139236000Y-125398700D02*
X139302300Y-125332400D01*
X159482300Y-74245500D02*
X159175600Y-74552200D01*
X159411000Y-125312500D02*
X159411000Y-122633500D01*
D19*
%TO.N,Net-(J2-Pad16)*%
X117450400Y-101947800D02*
X125035700Y-94362500D01*
X126348500Y-93307900D02*
X126804700Y-92851700D01*
X126615500Y-94629500D02*
X126615500Y-111290300D01*
X126348500Y-94362500D02*
X126615500Y-94629500D01*
X126348500Y-94362500D02*
X126348500Y-93307900D01*
X125035700Y-94362500D02*
X126348500Y-94362500D01*
X126615500Y-111290300D02*
X127249200Y-111924000D01*
%TO.N,Net-(J2-Pad15)*%
X127980400Y-114062800D02*
X127980400Y-96326400D01*
X127154100Y-91859900D02*
X122498900Y-91859900D01*
X128138300Y-114220700D02*
X127980400Y-114062800D01*
X127530100Y-95876100D02*
X127530100Y-92235900D01*
X127980400Y-96326400D02*
X127530100Y-95876100D01*
X127530100Y-92235900D02*
X127154100Y-91859900D01*
X122498900Y-91859900D02*
X114070800Y-100288000D01*
X127154100Y-91859900D02*
X127154100Y-91842800D01*
%TO.N,Net-(J2-Pad12)*%
X122542500Y-90645100D02*
X127025300Y-90645100D01*
X127025300Y-90645100D02*
X127980500Y-91600300D01*
X128430700Y-96139700D02*
X128430700Y-113487300D01*
X127980500Y-91600300D02*
X127980500Y-95689500D01*
X114372800Y-98814800D02*
X122542500Y-90645100D01*
X128868000Y-113924600D02*
X128868000Y-115005800D01*
X127025300Y-87802000D02*
X127025300Y-90645100D01*
X128430700Y-113487300D02*
X128868000Y-113924600D01*
X127980500Y-95689500D02*
X128430700Y-96139700D01*
%TO.N,Net-(J2-Pad11)*%
X129666000Y-115931300D02*
X129666000Y-113907500D01*
X128881000Y-113122500D02*
X128881000Y-88631900D01*
X128881000Y-88631900D02*
X127006400Y-86757300D01*
X129666000Y-113907500D02*
X128881000Y-113122500D01*
X127006400Y-86757300D02*
X126878900Y-86757300D01*
X124860200Y-86757300D02*
X126878900Y-86757300D01*
X113540900Y-98076600D02*
X124860200Y-86757300D01*
%TO.N,Net-(J2-Pad7)*%
X116025500Y-76797200D02*
X108862100Y-83960600D01*
X108862100Y-89428300D02*
X108888700Y-89454900D01*
X109358600Y-109215600D02*
X110203200Y-110060200D01*
X117268900Y-76797200D02*
X116025500Y-76797200D01*
X115881200Y-116591500D02*
X116106500Y-116816800D01*
X115450400Y-116591500D02*
X115881200Y-116591500D01*
X110203200Y-110060200D02*
X110203200Y-111344300D01*
X108888700Y-89454900D02*
X108888700Y-101586300D01*
X109358600Y-102056200D02*
X109358600Y-109215600D01*
X118466300Y-75599800D02*
X117268900Y-76797200D01*
X110203200Y-111344300D02*
X115450400Y-116591500D01*
X108888700Y-101586300D02*
X109358600Y-102056200D01*
X108862100Y-83960600D02*
X108862100Y-89428300D01*
%TO.N,Net-(J2-Pad5)*%
X107438000Y-89310900D02*
X107438000Y-102239700D01*
X117489600Y-75130200D02*
X116498000Y-76121800D01*
X107701600Y-102503300D02*
X107701600Y-109647200D01*
X107457500Y-89291400D02*
X107438000Y-89310900D01*
X116063800Y-76121800D02*
X107457500Y-84728100D01*
X107701600Y-109647200D02*
X115293100Y-117238700D01*
X116498000Y-76121800D02*
X116063800Y-76121800D01*
X107457500Y-84728100D02*
X107457500Y-89291400D01*
X115293100Y-117238700D02*
X115293100Y-117418100D01*
X107438000Y-102239700D02*
X107701600Y-102503300D01*
%TO.N,Net-(J2-Pad4)*%
X103088800Y-99161500D02*
X104478500Y-100551200D01*
X113846100Y-119655500D02*
X120953400Y-119655500D01*
X116167300Y-74396000D02*
X103088800Y-87474500D01*
X116330700Y-74396000D02*
X116167300Y-74396000D01*
X120953400Y-119655500D02*
X122056300Y-120758400D01*
X103088800Y-87474500D02*
X103088800Y-99161500D01*
X104478500Y-100551200D02*
X104478500Y-110287900D01*
X104478500Y-110287900D02*
X113846100Y-119655500D01*
%TO.N,Net-(J2-Pad3)*%
X114157700Y-120604000D02*
X114988200Y-120604000D01*
X102603900Y-100028000D02*
X102603900Y-86700700D01*
X103474400Y-100898500D02*
X103474400Y-109920700D01*
X103474400Y-100898500D02*
X102603900Y-100028000D01*
X103474400Y-109920700D02*
X114157700Y-120604000D01*
X102603900Y-86700700D02*
X115633900Y-73670700D01*
X114988200Y-120604000D02*
X114988200Y-120604100D01*
%TO.N,Net-(J2-Pad20)*%
X167656800Y-88365600D02*
X166194000Y-86902800D01*
X167255900Y-122128600D02*
X167656800Y-121727700D01*
X166194000Y-86902800D02*
X166194000Y-74417800D01*
X167656800Y-121727700D02*
X167656800Y-88365600D01*
%TO.N,Net-(J3-Pad43)*%
X136717000Y-130421000D02*
X136717000Y-125595700D01*
X138162900Y-116834700D02*
X138162900Y-124149800D01*
X139525800Y-90214400D02*
X136681000Y-87369600D01*
X136681000Y-69094000D02*
X136681000Y-73919300D01*
X136681000Y-87369600D02*
X136681000Y-73919300D01*
X138162900Y-93777500D02*
X139525800Y-92414600D01*
X138162900Y-124149800D02*
X136717000Y-125595700D01*
X138162900Y-116834700D02*
X138162900Y-93777500D01*
X139525800Y-92414600D02*
X139525800Y-90214400D01*
%TO.N,Net-(J3-Pad41)*%
X140334900Y-107980100D02*
X140334900Y-115013400D01*
X140371500Y-73979300D02*
X138534900Y-75815900D01*
X138534900Y-77251300D02*
X140010600Y-78727000D01*
X141723000Y-73979300D02*
X140371500Y-73979300D01*
X140010600Y-78727000D02*
X140010600Y-91876500D01*
X141764000Y-125623700D02*
X141764000Y-116633100D01*
X140922500Y-92788400D02*
X140922500Y-105957800D01*
X141764000Y-130449000D02*
X141764000Y-125623700D01*
X141723000Y-69154000D02*
X141723000Y-73979300D01*
X140010600Y-91876500D02*
X140922500Y-92788400D01*
X141764000Y-116633100D02*
X141859300Y-116537800D01*
X138534900Y-75815900D02*
X138534900Y-77251300D01*
X140922500Y-105957800D02*
X140122800Y-106757500D01*
X140122800Y-106757500D02*
X140122800Y-107768000D01*
X140122800Y-107768000D02*
X140334900Y-107980100D01*
X140334900Y-115013400D02*
X141859300Y-116537800D01*
%TO.N,Net-(R1-Pad1)*%
X197572500Y-94860200D02*
X197611500Y-94821200D01*
X197611500Y-94821200D02*
X197611500Y-89628500D01*
X197572500Y-95980500D02*
X197572500Y-94860200D01*
%TO.N,Net-(J1-Pad2)*%
X163105300Y-91582400D02*
X163105300Y-109404100D01*
X163296000Y-91391700D02*
X163105300Y-91582400D01*
X163105300Y-109404100D02*
X163238100Y-109536900D01*
%TO.N,Net-(J1-Pad6)*%
X152387600Y-102630700D02*
X152410800Y-102607500D01*
X152410800Y-91586500D02*
X152216000Y-91391700D01*
X152410800Y-102607500D02*
X152410800Y-91586500D01*
%TO.N,Net-(U5-Pad1)*%
X146239100Y-116093100D02*
X146239100Y-120917700D01*
X141298400Y-107281000D02*
X141298400Y-111152400D01*
X141298400Y-111152400D02*
X146239100Y-116093100D01*
X146239100Y-120917700D02*
X146737200Y-121415800D01*
%TO.N,Net-(R11-Pad1)*%
X176106600Y-85380600D02*
X174671200Y-86816000D01*
X169783000Y-86816000D02*
X168639500Y-85672500D01*
X174671200Y-86816000D02*
X169783000Y-86816000D01*
%TO.N,Net-(R4-Pad1)*%
X173719500Y-83132500D02*
X176678300Y-80173700D01*
X176678300Y-80173700D02*
X176678300Y-76594100D01*
%TO.N,Net-(R5-Pad1)*%
X174973600Y-79338400D02*
X174973600Y-77318900D01*
X173719500Y-80592500D02*
X174973600Y-79338400D01*
%TO.N,Net-(R7-Pad1)*%
X175787300Y-77039500D02*
X175787300Y-78617600D01*
X173719500Y-75512500D02*
X174260300Y-75512500D01*
X174260300Y-75512500D02*
X175787300Y-77039500D01*
%TO.N,Net-(J1-Pad10)*%
X175588300Y-101299000D02*
X186405600Y-112116300D01*
X186405600Y-112116300D02*
X186405600Y-115108300D01*
X175588300Y-89742500D02*
X175588300Y-101299000D01*
%TO.N,Net-(J1-Pad11)*%
X177181500Y-101215200D02*
X177181500Y-89428400D01*
X187519900Y-111553600D02*
X177181500Y-101215200D01*
%TO.N,Net-(J1-Pad12)*%
X178695500Y-98211900D02*
X189986700Y-109503100D01*
X178695500Y-91162000D02*
X178695500Y-98211900D01*
%TO.N,Net-(J1-Pad13)*%
X187136800Y-112196500D02*
X176427800Y-101487500D01*
X187136800Y-116020200D02*
X187136800Y-112196500D01*
X176427800Y-101487500D02*
X176427800Y-88347400D01*
%TO.N,Net-(J1-Pad15)*%
X161911000Y-94231700D02*
X161911000Y-109253800D01*
X161911000Y-109253800D02*
X164790000Y-112132800D01*
%TO.N,Net-(J3-Pad27)*%
X174379300Y-88601800D02*
X174379300Y-123426100D01*
X177409300Y-85571800D02*
X174379300Y-88601800D01*
X177074000Y-130401000D02*
X177074000Y-125575700D01*
X174379300Y-123426100D02*
X176528900Y-125575700D01*
X177031000Y-73902300D02*
X177409300Y-74280600D01*
X177031000Y-69077000D02*
X177031000Y-73902300D01*
X177409300Y-74280600D02*
X177409300Y-85571800D01*
X176528900Y-125575700D02*
X177074000Y-125575700D01*
%TO.N,Net-(J3-Pad30)*%
X169460000Y-69081000D02*
X169460000Y-73906300D01*
X167509200Y-74558000D02*
X168160900Y-73906300D01*
X167509200Y-86625900D02*
X167509200Y-74558000D01*
X169499000Y-130418000D02*
X169499000Y-125592700D01*
X168160900Y-73906300D02*
X169460000Y-73906300D01*
X169499000Y-125592700D02*
X169499000Y-88615700D01*
X169499000Y-88615700D02*
X167509200Y-86625900D01*
%TO.N,Net-(J3-Pad31)*%
X168149800Y-87957900D02*
X166941000Y-86749100D01*
X166979000Y-125607700D02*
X168149800Y-124436900D01*
X166941000Y-86749100D02*
X166941000Y-73920300D01*
X168149800Y-124436900D02*
X168149800Y-87957900D01*
X166979000Y-130433000D02*
X166979000Y-125607700D01*
X166941000Y-69095000D02*
X166941000Y-73920300D01*
%TO.N,Net-(J3-Pad32)*%
X167191400Y-108530000D02*
X166528600Y-109192800D01*
X164418000Y-69106000D02*
X164418000Y-73931300D01*
X164418000Y-73931300D02*
X164646800Y-73931300D01*
X166528600Y-109192800D02*
X166528600Y-123544100D01*
X166528600Y-123544100D02*
X164461000Y-125611700D01*
X165332800Y-87383800D02*
X167191400Y-89242400D01*
X164646800Y-73931300D02*
X165332800Y-74617300D01*
X167191400Y-89242400D02*
X167191400Y-108530000D01*
X165332800Y-74617300D02*
X165332800Y-87383800D01*
X164461000Y-130437000D02*
X164461000Y-125611700D01*
%TO.N,Net-(J3-Pad33)*%
X161935000Y-125621700D02*
X162161500Y-125395200D01*
X161899000Y-91947900D02*
X161899000Y-73945300D01*
X161899000Y-69120000D02*
X161899000Y-73945300D01*
X160775000Y-93071900D02*
X161899000Y-91947900D01*
X161935000Y-130447000D02*
X161935000Y-125621700D01*
X162161500Y-125395200D02*
X162161500Y-113830800D01*
X160775000Y-112444300D02*
X160775000Y-93071900D01*
X162161500Y-113830800D02*
X160775000Y-112444300D01*
%TO.N,Net-(J3-Pad37)*%
X151069800Y-76267200D02*
X151069800Y-92063700D01*
X151806000Y-69109000D02*
X151806000Y-73934300D01*
X151660200Y-125369900D02*
X151854000Y-125563700D01*
X150929800Y-74810500D02*
X150929800Y-76127200D01*
X151806000Y-73934300D02*
X150929800Y-74810500D01*
X151960400Y-102032200D02*
X151660200Y-102332400D01*
X151660200Y-102332400D02*
X151660200Y-125369900D01*
X151854000Y-130389000D02*
X151854000Y-125563700D01*
X151069800Y-92063700D02*
X151960400Y-92954300D01*
X150929800Y-76127200D02*
X151069800Y-76267200D01*
X151960400Y-92954300D02*
X151960400Y-102032200D01*
%TO.N,Net-(J3-Pad38)*%
X149282000Y-69125000D02*
X149282000Y-73950300D01*
X149628300Y-93461800D02*
X149628300Y-113898300D01*
X150619400Y-92470700D02*
X149628300Y-93461800D01*
X150169100Y-74837400D02*
X150169100Y-76806900D01*
X149282000Y-73950300D02*
X150169100Y-74837400D01*
X149334000Y-130416000D02*
X149334000Y-125590700D01*
X149810100Y-125114600D02*
X149334000Y-125590700D01*
X150619400Y-77257200D02*
X150619400Y-92470700D01*
X150169100Y-76806900D02*
X150619400Y-77257200D01*
X149628300Y-113898300D02*
X149810100Y-114080100D01*
X149810100Y-114080100D02*
X149810100Y-125114600D01*
%TO.N,Net-(J2-Pad13)*%
X148220400Y-76080100D02*
X149293000Y-75007500D01*
X148220400Y-91776500D02*
X148220400Y-76080100D01*
X146869000Y-113330900D02*
X146869000Y-93127900D01*
X146869000Y-93127900D02*
X148220400Y-91776500D01*
X149084700Y-124808200D02*
X149084700Y-115546600D01*
X149084700Y-115546600D02*
X146869000Y-113330900D01*
%TO.N,Net-(J2-Pad14)*%
X148341200Y-115980500D02*
X144155200Y-111794500D01*
X144155200Y-111794500D02*
X144155200Y-93071700D01*
X145096300Y-92130600D02*
X145096300Y-79808400D01*
X145096300Y-79808400D02*
X145667200Y-79237500D01*
X144155200Y-93071700D02*
X145096300Y-92130600D01*
X148341200Y-123803100D02*
X148341200Y-115980500D01*
%TO.N,Net-(J2-Pad18)*%
X164432000Y-76056100D02*
X164432000Y-92889300D01*
X162644900Y-74269000D02*
X164432000Y-76056100D01*
X164432000Y-92889300D02*
X163555700Y-93765600D01*
X165515400Y-122414000D02*
X162887700Y-125041700D01*
X163555700Y-103939600D02*
X165515400Y-105899300D01*
X163555700Y-93765600D02*
X163555700Y-103939600D01*
X165515400Y-105899300D02*
X165515400Y-122414000D01*
%TO.N,Net-(J2-Pad19)*%
X164369400Y-74705200D02*
X164882400Y-75218200D01*
X164882400Y-75218200D02*
X164882400Y-92342400D01*
X164882400Y-92342400D02*
X165965700Y-93425700D01*
X165965700Y-123057700D02*
X165543600Y-123479800D01*
X165965700Y-93425700D02*
X165965700Y-123057700D01*
%TO.N,Net-(J2-Pad21)*%
X170224500Y-125072400D02*
X170224500Y-88315200D01*
X170224500Y-88315200D02*
X168985100Y-87075800D01*
%TO.N,Net-(J2-Pad24)*%
X174829600Y-122723200D02*
X176800900Y-124694500D01*
X178226400Y-85409000D02*
X174829600Y-88805800D01*
X178226400Y-74039800D02*
X178226400Y-85409000D01*
X174829600Y-88805800D02*
X174829600Y-122723200D01*
%TO.N,Net-(R4-Pad2)*%
X192687100Y-81358800D02*
X189199200Y-81358800D01*
X189199200Y-81358800D02*
X184961800Y-77121400D01*
X184961800Y-77121400D02*
X184961800Y-73709500D01*
X184961800Y-73709500D02*
X185709300Y-72962000D01*
%TO.N,Net-(R5-Pad2)*%
X188985200Y-74989500D02*
X191979800Y-77984100D01*
X185785900Y-74989500D02*
X188985200Y-74989500D01*
%TO.N,Net-(R6-Pad2)*%
X187644300Y-78714000D02*
X192839900Y-78714000D01*
X185698300Y-76768000D02*
X187644300Y-78714000D01*
%TD*%
M02*
