M48
; DRILL file {KiCad (6.0.2)} date Fri Jul 22 23:45:14 2022
; FORMAT={-:-/ absolute / metric / decimal}
; #@! TF.CreationDate,2022-07-22T23:45:14-05:00
; #@! TF.GenerationSoftware,Kicad,Pcbnew,(6.0.2)
; #@! TF.FileFunction,Plated,1,2,PTH
FMAT,2
METRIC
; #@! TA.AperFunction,Plated,PTH,ViaDrill
T1C0.400
; #@! TA.AperFunction,Plated,PTH,ComponentDrill
T2C0.800
; #@! TA.AperFunction,Plated,PTH,ComponentDrill
T3C1.000
; #@! TA.AperFunction,Plated,PTH,ComponentDrill
T4C4.450
%
G90
G05
T1
X101.835Y-82.476
X102.301Y-101.224
X103.474Y-100.898
X103.897Y-89.798
X104.381Y-91.107
X104.478Y-100.551
X104.671Y-96.885
X105.109Y-95.423
X105.205Y-97.91
X105.332Y-86.284
X106.119Y-86.962
X106.229Y-92.719
X106.311Y-111.048
X106.732Y-88.991
X107.702Y-102.503
X107.705Y-111.756
X108.163Y-94.314
X108.706Y-111.751
X109.359Y-102.056
X109.465Y-110.385
X110.103Y-98.515
X110.488Y-88.755
X110.541Y-93.467
X110.748Y-109.579
X111.05Y-85.49
X111.19Y-92.696
X111.497Y-88.448
X112.263Y-112.372
X112.403Y-109.072
X112.622Y-104.733
X112.694Y-83.835
X112.971Y-103.465
X113.197Y-80.752
X113.241Y-82.928
X113.267Y-81.926
X113.541Y-98.077
X114.071Y-100.288
X114.287Y-117.386
X114.373Y-98.815
X114.988Y-120.604
X115.293Y-117.418
X115.634Y-73.671
X116.106Y-116.817
X116.196Y-75.396
X116.272Y-94.278
X116.331Y-74.396
X116.67Y-102.912
X116.673Y-104.487
X117.087Y-110.465
X117.31Y-106.911
X117.401Y-103.794
X117.45Y-101.948
X117.49Y-75.13
X117.491Y-79.924
X117.656Y-70.043
X118.125Y-110.468
X118.332Y-108.16
X118.371Y-107.149
X118.466Y-75.6
X118.605Y-114.911
X119.178Y-104.053
X119.299Y-125.267
X119.365Y-112.503
X119.537Y-118.762
X119.794Y-111.19
X122.056Y-120.758
X122.894Y-79.194
X123.672Y-92.595
X124.399Y-99.594
X124.519Y-98.436
X124.554Y-100.804
X124.577Y-108.612
X124.583Y-110.587
X124.794Y-97.178
X124.916Y-92.865
X124.972Y-96.146
X125.274Y-78.57
X125.337Y-95.093
X125.673Y-108.294
X126.805Y-92.852
X126.879Y-86.757
X127.025Y-87.802
X127.154Y-91.843
X127.249Y-111.924
X127.743Y-77.845
X128.138Y-114.221
X128.868Y-115.006
X129.606Y-112.608
X129.666Y-115.931
X129.874Y-85.132
X130.294Y-111.881
X131.295Y-111.906
X131.476Y-74.234
X131.655Y-110.308
X131.675Y-125.212
X131.803Y-112.812
X134.155Y-77.977
X136.703Y-115.46
X138.163Y-116.835
X139.084Y-74.24
X139.133Y-83.023
X139.26Y-76.854
X139.48Y-112.367
X139.513Y-125.332
X139.923Y-76.09
X141.298Y-107.281
X141.859Y-116.538
X144.634Y-119.686
X145.667Y-79.237
X146.737Y-121.416
X146.979Y-119.515
X148.341Y-123.803
X149.085Y-124.808
X149.293Y-75.007
X151.657Y-75.339
X152.388Y-102.631
X154.374Y-119.965
X155.66Y-120.506
X158.75Y-112.507
X159.411Y-125.312
X159.482Y-74.245
X161.404Y-120.64
X162.645Y-74.269
X162.888Y-125.042
X163.238Y-109.537
X164.369Y-74.705
X164.79Y-112.133
X165.544Y-123.48
X166.194Y-74.418
X167.256Y-122.129
X168.985Y-87.076
X170.225Y-125.072
X173.338Y-125.368
X174.974Y-77.319
X175.573Y-114.286
X175.588Y-89.742
X175.787Y-78.618
X175.974Y-74.381
X176.107Y-85.381
X176.428Y-88.347
X176.678Y-76.594
X176.801Y-124.694
X176.898Y-113.708
X177.181Y-89.428
X178.226Y-74.04
X178.695Y-91.162
X179.598Y-124.901
X184.772Y-114.457
X185.641Y-112.672
X185.698Y-76.768
X185.709Y-72.962
X185.786Y-74.989
X186.406Y-115.108
X187.137Y-116.02
X187.52Y-111.554
X189.987Y-109.503
X191.98Y-77.984
X192.687Y-81.359
X192.84Y-78.714
T2
X168.639Y-75.513
X168.639Y-78.052
X168.639Y-80.593
X168.639Y-83.132
X168.639Y-85.672
X173.719Y-75.513
X173.719Y-78.052
X173.719Y-80.593
X173.719Y-83.132
X173.719Y-85.672
T3
X132.826Y-91.392
X134.211Y-94.232
X135.596Y-91.392
X136.981Y-94.232
X138.366Y-91.392
X139.751Y-94.232
X141.136Y-91.392
X142.521Y-94.232
X143.906Y-91.392
X145.291Y-94.232
X146.676Y-91.392
X148.061Y-94.232
X149.446Y-91.392
X150.831Y-94.232
X152.216Y-91.392
X153.601Y-94.232
X154.986Y-91.392
X156.371Y-94.232
X157.756Y-91.392
X159.141Y-94.232
X160.526Y-91.392
X161.911Y-94.232
X163.296Y-91.392
X164.681Y-94.232
X166.066Y-91.392
X193.087Y-95.977
X193.126Y-89.627
X197.572Y-95.98
X197.611Y-89.629
T4
X104.544Y-121.696
X108.406Y-67.875
X190.836Y-67.917
X194.003Y-121.736
T0
M30
