%TF.GenerationSoftware,KiCad,Pcbnew,(6.0.2)*%
%TF.CreationDate,2022-05-11T16:43:43-05:00*%
%TF.ProjectId,REF1329_Optimised,52454631-3332-4395-9f4f-7074696d6973,rev?*%
%TF.SameCoordinates,Original*%
%TF.FileFunction,Soldermask,Top*%
%TF.FilePolarity,Negative*%
%FSLAX46Y46*%
G04 Gerber Fmt 4.6, Leading zero omitted, Abs format (unit mm)*
G04 Created by KiCad (PCBNEW (6.0.2)) date 2022-05-11 16:43:43*
%MOMM*%
%LPD*%
G01*
G04 APERTURE LIST*
%ADD10C,0.000000*%
%ADD11C,0.795000*%
%ADD12C,2.340000*%
%ADD13C,1.600000*%
%ADD14R,1.600000X1.600000*%
%ADD15R,1.310000X1.390000*%
%ADD16R,1.530000X9.000000*%
%ADD17R,1.710000X1.630000*%
%ADD18R,1.590000X1.590000*%
%ADD19R,1.700000X1.630000*%
%ADD20R,0.700000X2.270000*%
%ADD21R,2.270000X0.700000*%
%ADD22R,2.000000X0.700000*%
%ADD23R,0.600000X2.220000*%
%ADD24R,2.220000X0.600000*%
G04 APERTURE END LIST*
D10*
G36*
X110160800Y-73775700D02*
G01*
X108460800Y-73775700D01*
X108460800Y-72145700D01*
X110160800Y-72145700D01*
X110160800Y-73775700D01*
G37*
G36*
X190122400Y-113395100D02*
G01*
X188122400Y-113395100D01*
X188122400Y-112695100D01*
X190122400Y-112695100D01*
X190122400Y-113395100D01*
G37*
G36*
X127906800Y-101971000D02*
G01*
X127306800Y-101971000D01*
X127306800Y-99751000D01*
X127906800Y-99751000D01*
X127906800Y-101971000D01*
G37*
G36*
X116081400Y-103790700D02*
G01*
X113811400Y-103790700D01*
X113811400Y-103090700D01*
X116081400Y-103090700D01*
X116081400Y-103790700D01*
G37*
G36*
X195440500Y-81605400D02*
G01*
X193440500Y-81605400D01*
X193440500Y-80905400D01*
X195440500Y-80905400D01*
X195440500Y-81605400D01*
G37*
G36*
X125922400Y-101971000D02*
G01*
X125322400Y-101971000D01*
X125322400Y-99751000D01*
X125922400Y-99751000D01*
X125922400Y-101971000D01*
G37*
G36*
X157673200Y-134885700D02*
G01*
X156143200Y-134885700D01*
X156143200Y-125885700D01*
X157673200Y-125885700D01*
X157673200Y-134885700D01*
G37*
G36*
X180597400Y-114665100D02*
G01*
X178597400Y-114665100D01*
X178597400Y-113965100D01*
X180597400Y-113965100D01*
X180597400Y-114665100D01*
G37*
G36*
X108430500Y-77905700D02*
G01*
X107730500Y-77905700D01*
X107730500Y-75635700D01*
X108430500Y-75635700D01*
X108430500Y-77905700D01*
G37*
G36*
X109660800Y-91875700D02*
G01*
X108960800Y-91875700D01*
X108960800Y-89605700D01*
X109660800Y-89605700D01*
X109660800Y-91875700D01*
G37*
G36*
X190122400Y-121015100D02*
G01*
X188122400Y-121015100D01*
X188122400Y-120315100D01*
X190122400Y-120315100D01*
X190122400Y-121015100D01*
G37*
G36*
X129891100Y-119830400D02*
G01*
X129291100Y-119830400D01*
X129291100Y-117610400D01*
X129891100Y-117610400D01*
X129891100Y-119830400D01*
G37*
G36*
X116081400Y-112720400D02*
G01*
X113811400Y-112720400D01*
X113811400Y-112020400D01*
X116081400Y-112020400D01*
X116081400Y-112720400D01*
G37*
G36*
X127867100Y-119830400D02*
G01*
X127267100Y-119830400D01*
X127267100Y-117610400D01*
X127867100Y-117610400D01*
X127867100Y-119830400D01*
G37*
G36*
X195440500Y-84185100D02*
G01*
X193440500Y-84185100D01*
X193440500Y-83485100D01*
X195440500Y-83485100D01*
X195440500Y-84185100D01*
G37*
G36*
X106962100Y-115410400D02*
G01*
X106262100Y-115410400D01*
X106262100Y-113140400D01*
X106962100Y-113140400D01*
X106962100Y-115410400D01*
G37*
G36*
X185094300Y-81275700D02*
G01*
X183784300Y-81275700D01*
X183784300Y-79885700D01*
X185094300Y-79885700D01*
X185094300Y-81275700D01*
G37*
G36*
X180676800Y-103235100D02*
G01*
X178676800Y-103235100D01*
X178676800Y-102535100D01*
X180676800Y-102535100D01*
X180676800Y-103235100D01*
G37*
G36*
X104730800Y-79025700D02*
G01*
X102460800Y-79025700D01*
X102460800Y-78325700D01*
X104730800Y-78325700D01*
X104730800Y-79025700D01*
G37*
G36*
X113510500Y-77905700D02*
G01*
X112810500Y-77905700D01*
X112810500Y-75635700D01*
X113510500Y-75635700D01*
X113510500Y-77905700D01*
G37*
G36*
X123795500Y-109098500D02*
G01*
X121575500Y-109098500D01*
X121575500Y-108498500D01*
X123795500Y-108498500D01*
X123795500Y-109098500D01*
G37*
G36*
X180597400Y-122285100D02*
G01*
X178597400Y-122285100D01*
X178597400Y-121585100D01*
X180597400Y-121585100D01*
X180597400Y-122285100D01*
G37*
G36*
X142035500Y-119830400D02*
G01*
X141435500Y-119830400D01*
X141435500Y-117610400D01*
X142035500Y-117610400D01*
X142035500Y-119830400D01*
G37*
G36*
X116200500Y-79025700D02*
G01*
X113930500Y-79025700D01*
X113930500Y-78325700D01*
X116200500Y-78325700D01*
X116200500Y-79025700D01*
G37*
G36*
X104730800Y-86645700D02*
G01*
X102460800Y-86645700D01*
X102460800Y-85945700D01*
X104730800Y-85945700D01*
X104730800Y-86645700D01*
G37*
D11*
X169041100Y-85660700D02*
G75*
G03*
X169041100Y-85660700I-397500J0D01*
G01*
D10*
G36*
X185094300Y-77465700D02*
G01*
X183784300Y-77465700D01*
X183784300Y-76075700D01*
X185094300Y-76075700D01*
X185094300Y-77465700D01*
G37*
G36*
X112161100Y-101440400D02*
G01*
X111461100Y-101440400D01*
X111461100Y-99170400D01*
X112161100Y-99170400D01*
X112161100Y-101440400D01*
G37*
G36*
X189725500Y-76485700D02*
G01*
X187725500Y-76485700D01*
X187725500Y-75785700D01*
X189725500Y-75785700D01*
X189725500Y-76485700D01*
G37*
G36*
X195440500Y-82915100D02*
G01*
X193440500Y-82915100D01*
X193440500Y-82215100D01*
X195440500Y-82215100D01*
X195440500Y-82915100D01*
G37*
G36*
X147766800Y-113146600D02*
G01*
X145546800Y-113146600D01*
X145546800Y-112546600D01*
X147766800Y-112546600D01*
X147766800Y-113146600D01*
G37*
G36*
X132455200Y-134947700D02*
G01*
X130925200Y-134947700D01*
X130925200Y-125947700D01*
X132455200Y-125947700D01*
X132455200Y-134947700D01*
G37*
G36*
X104730800Y-87915700D02*
G01*
X102460800Y-87915700D01*
X102460800Y-87215700D01*
X104730800Y-87215700D01*
X104730800Y-87915700D01*
G37*
G36*
X140051100Y-101971000D02*
G01*
X139451100Y-101971000D01*
X139451100Y-99751000D01*
X140051100Y-99751000D01*
X140051100Y-101971000D01*
G37*
G36*
X122368200Y-134956700D02*
G01*
X120838200Y-134956700D01*
X120838200Y-125956700D01*
X122368200Y-125956700D01*
X122368200Y-134956700D01*
G37*
G36*
X116081400Y-102560400D02*
G01*
X113811400Y-102560400D01*
X113811400Y-101860400D01*
X116081400Y-101860400D01*
X116081400Y-102560400D01*
G37*
G36*
X188583300Y-73815400D02*
G01*
X186883300Y-73815400D01*
X186883300Y-72185400D01*
X188583300Y-72185400D01*
X188583300Y-73815400D01*
G37*
G36*
X193886100Y-96774500D02*
G01*
X192296100Y-96774500D01*
X192296100Y-95184500D01*
X193886100Y-95184500D01*
X193886100Y-96774500D01*
G37*
G36*
X132986800Y-101971000D02*
G01*
X132386800Y-101971000D01*
X132386800Y-99751000D01*
X132986800Y-99751000D01*
X132986800Y-101971000D01*
G37*
G36*
X104651400Y-102560400D02*
G01*
X102381400Y-102560400D01*
X102381400Y-101860400D01*
X104651400Y-101860400D01*
X104651400Y-102560400D01*
G37*
G36*
X147766800Y-109098500D02*
G01*
X145546800Y-109098500D01*
X145546800Y-108498500D01*
X147766800Y-108498500D01*
X147766800Y-109098500D01*
G37*
G36*
X160193900Y-134953900D02*
G01*
X158663900Y-134953900D01*
X158663900Y-125953900D01*
X160193900Y-125953900D01*
X160193900Y-134953900D01*
G37*
G36*
X130883300Y-119830400D02*
G01*
X130283300Y-119830400D01*
X130283300Y-117610400D01*
X130883300Y-117610400D01*
X130883300Y-119830400D01*
G37*
G36*
X147806400Y-105090100D02*
G01*
X145586400Y-105090100D01*
X145586400Y-104490100D01*
X147806400Y-104490100D01*
X147806400Y-105090100D01*
G37*
D12*
X191999000Y-67920400D02*
G75*
G03*
X191999000Y-67920400I-1170000J0D01*
G01*
D11*
X174121100Y-80580700D02*
G75*
G03*
X174121100Y-80580700I-397500J0D01*
G01*
D10*
G36*
X112280200Y-77905700D02*
G01*
X111580200Y-77905700D01*
X111580200Y-75635700D01*
X112280200Y-75635700D01*
X112280200Y-77905700D01*
G37*
G36*
X119845900Y-134952900D02*
G01*
X118315900Y-134952900D01*
X118315900Y-125952900D01*
X119845900Y-125952900D01*
X119845900Y-134952900D01*
G37*
G36*
X116200500Y-87915700D02*
G01*
X113930500Y-87915700D01*
X113930500Y-87215700D01*
X116200500Y-87215700D01*
X116200500Y-87915700D01*
G37*
G36*
X141003600Y-119830400D02*
G01*
X140403600Y-119830400D01*
X140403600Y-117610400D01*
X141003600Y-117610400D01*
X141003600Y-119830400D01*
G37*
G36*
X182749300Y-90960400D02*
G01*
X181049300Y-90960400D01*
X181049300Y-89330400D01*
X182749300Y-89330400D01*
X182749300Y-90960400D01*
G37*
G36*
X138979600Y-119830400D02*
G01*
X138379600Y-119830400D01*
X138379600Y-117610400D01*
X138979600Y-117610400D01*
X138979600Y-119830400D01*
G37*
G36*
X107081100Y-91875700D02*
G01*
X106381100Y-91875700D01*
X106381100Y-89605700D01*
X107081100Y-89605700D01*
X107081100Y-91875700D01*
G37*
G36*
X123795500Y-113146600D02*
G01*
X121575500Y-113146600D01*
X121575500Y-112546600D01*
X123795500Y-112546600D01*
X123795500Y-113146600D01*
G37*
G36*
X180676800Y-100695100D02*
G01*
X178676800Y-100695100D01*
X178676800Y-99995100D01*
X180676800Y-99995100D01*
X180676800Y-100695100D01*
G37*
G36*
X116081400Y-108910400D02*
G01*
X113811400Y-108910400D01*
X113811400Y-108210400D01*
X116081400Y-108210400D01*
X116081400Y-108910400D01*
G37*
G36*
X126874900Y-119830400D02*
G01*
X126274900Y-119830400D01*
X126274900Y-117610400D01*
X126874900Y-117610400D01*
X126874900Y-119830400D01*
G37*
G36*
X108311400Y-101440400D02*
G01*
X107611400Y-101440400D01*
X107611400Y-99170400D01*
X108311400Y-99170400D01*
X108311400Y-101440400D01*
G37*
G36*
X191798000Y-73815400D02*
G01*
X190098000Y-73815400D01*
X190098000Y-72185400D01*
X191798000Y-72185400D01*
X191798000Y-73815400D01*
G37*
G36*
X147806400Y-106121900D02*
G01*
X145586400Y-106121900D01*
X145586400Y-105521900D01*
X147806400Y-105521900D01*
X147806400Y-106121900D01*
G37*
G36*
X185094300Y-79370700D02*
G01*
X183784300Y-79370700D01*
X183784300Y-77980700D01*
X185094300Y-77980700D01*
X185094300Y-79370700D01*
G37*
G36*
X189725500Y-81605400D02*
G01*
X187725500Y-81605400D01*
X187725500Y-80905400D01*
X189725500Y-80905400D01*
X189725500Y-81605400D01*
G37*
G36*
X143067400Y-101971000D02*
G01*
X142467400Y-101971000D01*
X142467400Y-99751000D01*
X143067400Y-99751000D01*
X143067400Y-101971000D01*
G37*
G36*
X109581400Y-101440400D02*
G01*
X108881400Y-101440400D01*
X108881400Y-99170400D01*
X109581400Y-99170400D01*
X109581400Y-101440400D01*
G37*
G36*
X185094300Y-75560700D02*
G01*
X183784300Y-75560700D01*
X183784300Y-74170700D01*
X185094300Y-74170700D01*
X185094300Y-75560700D01*
G37*
G36*
X143027700Y-119830400D02*
G01*
X142427700Y-119830400D01*
X142427700Y-117610400D01*
X143027700Y-117610400D01*
X143027700Y-119830400D01*
G37*
G36*
X109700500Y-77905700D02*
G01*
X109000500Y-77905700D01*
X109000500Y-75635700D01*
X109700500Y-75635700D01*
X109700500Y-77905700D01*
G37*
G36*
X185094300Y-83180700D02*
G01*
X183784300Y-83180700D01*
X183784300Y-81790700D01*
X185094300Y-81790700D01*
X185094300Y-83180700D01*
G37*
G36*
X180597400Y-115935100D02*
G01*
X178597400Y-115935100D01*
X178597400Y-115235100D01*
X180597400Y-115235100D01*
X180597400Y-115935100D01*
G37*
D12*
X195174000Y-121736600D02*
G75*
G03*
X195174000Y-121736600I-1170000J0D01*
G01*
D10*
G36*
X155150900Y-134890900D02*
G01*
X153620900Y-134890900D01*
X153620900Y-125890900D01*
X155150900Y-125890900D01*
X155150900Y-134890900D01*
G37*
G36*
X190122400Y-112085400D02*
G01*
X188122400Y-112085400D01*
X188122400Y-111385400D01*
X190122400Y-111385400D01*
X190122400Y-112085400D01*
G37*
G36*
X162716200Y-134948700D02*
G01*
X161186200Y-134948700D01*
X161186200Y-125948700D01*
X162716200Y-125948700D01*
X162716200Y-134948700D01*
G37*
G36*
X180597400Y-113395100D02*
G01*
X178597400Y-113395100D01*
X178597400Y-112695100D01*
X180597400Y-112695100D01*
X180597400Y-113395100D01*
G37*
G36*
X124889900Y-134951900D02*
G01*
X123359900Y-134951900D01*
X123359900Y-125951900D01*
X124889900Y-125951900D01*
X124889900Y-134951900D01*
G37*
G36*
X116200500Y-86645700D02*
G01*
X113930500Y-86645700D01*
X113930500Y-85945700D01*
X116200500Y-85945700D01*
X116200500Y-86645700D01*
G37*
G36*
X134976900Y-134937900D02*
G01*
X133446900Y-134937900D01*
X133446900Y-125937900D01*
X134976900Y-125937900D01*
X134976900Y-134937900D01*
G37*
G36*
X129930800Y-101971000D02*
G01*
X129330800Y-101971000D01*
X129330800Y-99751000D01*
X129930800Y-99751000D01*
X129930800Y-101971000D01*
G37*
G36*
X104651400Y-105100400D02*
G01*
X102381400Y-105100400D01*
X102381400Y-104400400D01*
X104651400Y-104400400D01*
X104651400Y-105100400D01*
G37*
G36*
X127412200Y-134946700D02*
G01*
X125882200Y-134946700D01*
X125882200Y-125946700D01*
X127412200Y-125946700D01*
X127412200Y-134946700D01*
G37*
G36*
X142542200Y-134940700D02*
G01*
X141012200Y-134940700D01*
X141012200Y-125940700D01*
X142542200Y-125940700D01*
X142542200Y-134940700D01*
G37*
G36*
X147586200Y-134925700D02*
G01*
X146056200Y-134925700D01*
X146056200Y-125925700D01*
X147586200Y-125925700D01*
X147586200Y-134925700D01*
G37*
G36*
X123795500Y-114178500D02*
G01*
X121575500Y-114178500D01*
X121575500Y-113578500D01*
X123795500Y-113578500D01*
X123795500Y-114178500D01*
G37*
G36*
X104730800Y-84066000D02*
G01*
X102460800Y-84066000D01*
X102460800Y-83366000D01*
X104730800Y-83366000D01*
X104730800Y-84066000D01*
G37*
G36*
X104651400Y-103790700D02*
G01*
X102381400Y-103790700D01*
X102381400Y-103090700D01*
X104651400Y-103090700D01*
X104651400Y-103790700D01*
G37*
G36*
X147806400Y-104097900D02*
G01*
X145586400Y-104097900D01*
X145586400Y-103497900D01*
X147806400Y-103497900D01*
X147806400Y-104097900D01*
G37*
G36*
X136042700Y-101971000D02*
G01*
X135442700Y-101971000D01*
X135442700Y-99751000D01*
X136042700Y-99751000D01*
X136042700Y-101971000D01*
G37*
G36*
X180597400Y-118514800D02*
G01*
X178597400Y-118514800D01*
X178597400Y-117814800D01*
X180597400Y-117814800D01*
X180597400Y-118514800D01*
G37*
G36*
X161635500Y-111915400D02*
G01*
X159935500Y-111915400D01*
X159935500Y-110285400D01*
X161635500Y-110285400D01*
X161635500Y-111915400D01*
G37*
G36*
X113470800Y-91875700D02*
G01*
X112770800Y-91875700D01*
X112770800Y-89605700D01*
X113470800Y-89605700D01*
X113470800Y-91875700D01*
G37*
G36*
X195440500Y-79065400D02*
G01*
X193440500Y-79065400D01*
X193440500Y-78365400D01*
X195440500Y-78365400D01*
X195440500Y-79065400D01*
G37*
G36*
X155642700Y-111915400D02*
G01*
X153942700Y-111915400D01*
X153942700Y-110285400D01*
X155642700Y-110285400D01*
X155642700Y-111915400D01*
G37*
G36*
X110891100Y-101440400D02*
G01*
X110191100Y-101440400D01*
X110191100Y-99170400D01*
X110891100Y-99170400D01*
X110891100Y-101440400D01*
G37*
G36*
X185094300Y-73655700D02*
G01*
X183784300Y-73655700D01*
X183784300Y-72265700D01*
X185094300Y-72265700D01*
X185094300Y-73655700D01*
G37*
G36*
X112121400Y-115410400D02*
G01*
X111421400Y-115410400D01*
X111421400Y-113140400D01*
X112121400Y-113140400D01*
X112121400Y-115410400D01*
G37*
G36*
X142075200Y-101971000D02*
G01*
X141475200Y-101971000D01*
X141475200Y-99751000D01*
X142075200Y-99751000D01*
X142075200Y-101971000D01*
G37*
D11*
X169041100Y-75500700D02*
G75*
G03*
X169041100Y-75500700I-397500J0D01*
G01*
D10*
G36*
X116081400Y-107600700D02*
G01*
X113811400Y-107600700D01*
X113811400Y-106900700D01*
X116081400Y-106900700D01*
X116081400Y-107600700D01*
G37*
G36*
X105850800Y-77905700D02*
G01*
X105150800Y-77905700D01*
X105150800Y-75635700D01*
X105850800Y-75635700D01*
X105850800Y-77905700D01*
G37*
G36*
X123795500Y-116162900D02*
G01*
X121575500Y-116162900D01*
X121575500Y-115562900D01*
X123795500Y-115562900D01*
X123795500Y-116162900D01*
G37*
G36*
X186352100Y-100695100D02*
G01*
X184352100Y-100695100D01*
X184352100Y-99995100D01*
X186352100Y-99995100D01*
X186352100Y-100695100D01*
G37*
G36*
X152629200Y-134900700D02*
G01*
X151099200Y-134900700D01*
X151099200Y-125900700D01*
X152629200Y-125900700D01*
X152629200Y-134900700D01*
G37*
G36*
X116200500Y-89185700D02*
G01*
X113930500Y-89185700D01*
X113930500Y-88485700D01*
X116200500Y-88485700D01*
X116200500Y-89185700D01*
G37*
D11*
X174121100Y-75500700D02*
G75*
G03*
X174121100Y-75500700I-397500J0D01*
G01*
D10*
G36*
X104651400Y-110180400D02*
G01*
X102381400Y-110180400D01*
X102381400Y-109480400D01*
X104651400Y-109480400D01*
X104651400Y-110180400D01*
G37*
G36*
X186352100Y-105775100D02*
G01*
X184352100Y-105775100D01*
X184352100Y-105075100D01*
X186352100Y-105075100D01*
X186352100Y-105775100D01*
G37*
G36*
X141043300Y-101971000D02*
G01*
X140443300Y-101971000D01*
X140443300Y-99751000D01*
X141043300Y-99751000D01*
X141043300Y-101971000D01*
G37*
G36*
X104730800Y-81565700D02*
G01*
X102460800Y-81565700D01*
X102460800Y-80865700D01*
X104730800Y-80865700D01*
X104730800Y-81565700D01*
G37*
G36*
X147806400Y-107074500D02*
G01*
X145586400Y-107074500D01*
X145586400Y-106474500D01*
X147806400Y-106474500D01*
X147806400Y-107074500D01*
G37*
G36*
X186352100Y-108275400D02*
G01*
X184352100Y-108275400D01*
X184352100Y-107575400D01*
X186352100Y-107575400D01*
X186352100Y-108275400D01*
G37*
G36*
X134971100Y-101971000D02*
G01*
X134371100Y-101971000D01*
X134371100Y-99751000D01*
X134971100Y-99751000D01*
X134971100Y-101971000D01*
G37*
G36*
X190122400Y-118514800D02*
G01*
X188122400Y-118514800D01*
X188122400Y-117814800D01*
X190122400Y-117814800D01*
X190122400Y-118514800D01*
G37*
G36*
X180597400Y-112085400D02*
G01*
X178597400Y-112085400D01*
X178597400Y-111385400D01*
X180597400Y-111385400D01*
X180597400Y-112085400D01*
G37*
G36*
X183308300Y-73655700D02*
G01*
X181998300Y-73655700D01*
X181998300Y-72265700D01*
X183308300Y-72265700D01*
X183308300Y-73655700D01*
G37*
G36*
X116200500Y-85375700D02*
G01*
X113930500Y-85375700D01*
X113930500Y-84675700D01*
X116200500Y-84675700D01*
X116200500Y-85375700D01*
G37*
G36*
X147766800Y-114178500D02*
G01*
X145546800Y-114178500D01*
X145546800Y-113578500D01*
X147766800Y-113578500D01*
X147766800Y-114178500D01*
G37*
D11*
X169041100Y-83120700D02*
G75*
G03*
X169041100Y-83120700I-397500J0D01*
G01*
D10*
G36*
X128938600Y-101971000D02*
G01*
X128338600Y-101971000D01*
X128338600Y-99751000D01*
X128938600Y-99751000D01*
X128938600Y-101971000D01*
G37*
G36*
X104651400Y-107600700D02*
G01*
X102381400Y-107600700D01*
X102381400Y-106900700D01*
X104651400Y-106900700D01*
X104651400Y-107600700D01*
G37*
G36*
X183308300Y-81275700D02*
G01*
X181998300Y-81275700D01*
X181998300Y-79885700D01*
X183308300Y-79885700D01*
X183308300Y-81275700D01*
G37*
G36*
X190122400Y-115935100D02*
G01*
X188122400Y-115935100D01*
X188122400Y-115235100D01*
X190122400Y-115235100D01*
X190122400Y-115935100D01*
G37*
D11*
X169041100Y-78040700D02*
G75*
G03*
X169041100Y-78040700I-397500J0D01*
G01*
D10*
G36*
X183308300Y-83180700D02*
G01*
X181998300Y-83180700D01*
X181998300Y-81790700D01*
X183308300Y-81790700D01*
X183308300Y-83180700D01*
G37*
G36*
X147766800Y-112154500D02*
G01*
X145546800Y-112154500D01*
X145546800Y-111554500D01*
X147766800Y-111554500D01*
X147766800Y-112154500D01*
G37*
G36*
X110851400Y-115410400D02*
G01*
X110151400Y-115410400D01*
X110151400Y-113140400D01*
X110851400Y-113140400D01*
X110851400Y-115410400D01*
G37*
G36*
X108271800Y-115410400D02*
G01*
X107571800Y-115410400D01*
X107571800Y-113140400D01*
X108271800Y-113140400D01*
X108271800Y-115410400D01*
G37*
G36*
X105731800Y-101440400D02*
G01*
X105031800Y-101440400D01*
X105031800Y-99170400D01*
X105731800Y-99170400D01*
X105731800Y-101440400D01*
G37*
G36*
X123795500Y-108106300D02*
G01*
X121575500Y-108106300D01*
X121575500Y-107506300D01*
X123795500Y-107506300D01*
X123795500Y-108106300D01*
G37*
G36*
X138027100Y-101971000D02*
G01*
X137427100Y-101971000D01*
X137427100Y-99751000D01*
X138027100Y-99751000D01*
X138027100Y-101971000D01*
G37*
G36*
X123835200Y-106121900D02*
G01*
X121615200Y-106121900D01*
X121615200Y-105521900D01*
X123835200Y-105521900D01*
X123835200Y-106121900D01*
G37*
G36*
X180676800Y-105775100D02*
G01*
X178676800Y-105775100D01*
X178676800Y-105075100D01*
X180676800Y-105075100D01*
X180676800Y-105775100D01*
G37*
G36*
X111010200Y-77905700D02*
G01*
X110310200Y-77905700D01*
X110310200Y-75635700D01*
X111010200Y-75635700D01*
X111010200Y-77905700D01*
G37*
G36*
X104651400Y-106370400D02*
G01*
X102381400Y-106370400D01*
X102381400Y-105670400D01*
X104651400Y-105670400D01*
X104651400Y-106370400D01*
G37*
G36*
X180597400Y-121015100D02*
G01*
X178597400Y-121015100D01*
X178597400Y-120315100D01*
X180597400Y-120315100D01*
X180597400Y-121015100D01*
G37*
G36*
X108390800Y-91875700D02*
G01*
X107690800Y-91875700D01*
X107690800Y-89605700D01*
X108390800Y-89605700D01*
X108390800Y-91875700D01*
G37*
G36*
X130923000Y-101971000D02*
G01*
X130323000Y-101971000D01*
X130323000Y-99751000D01*
X130923000Y-99751000D01*
X130923000Y-101971000D01*
G37*
G36*
X190122400Y-117205100D02*
G01*
X188122400Y-117205100D01*
X188122400Y-116505100D01*
X190122400Y-116505100D01*
X190122400Y-117205100D01*
G37*
G36*
X167760200Y-134933700D02*
G01*
X166230200Y-134933700D01*
X166230200Y-125933700D01*
X167760200Y-125933700D01*
X167760200Y-134933700D01*
G37*
G36*
X140011400Y-119830400D02*
G01*
X139411400Y-119830400D01*
X139411400Y-117610400D01*
X140011400Y-117610400D01*
X140011400Y-119830400D01*
G37*
G36*
X189725500Y-80375100D02*
G01*
X187725500Y-80375100D01*
X187725500Y-79675100D01*
X189725500Y-79675100D01*
X189725500Y-80375100D01*
G37*
G36*
X183308300Y-75560700D02*
G01*
X181998300Y-75560700D01*
X181998300Y-74170700D01*
X183308300Y-74170700D01*
X183308300Y-75560700D01*
G37*
G36*
X195440500Y-80375100D02*
G01*
X193440500Y-80375100D01*
X193440500Y-79675100D01*
X195440500Y-79675100D01*
X195440500Y-80375100D01*
G37*
G36*
X147766800Y-108106300D02*
G01*
X145546800Y-108106300D01*
X145546800Y-107506300D01*
X147766800Y-107506300D01*
X147766800Y-108106300D01*
G37*
G36*
X116081400Y-106370400D02*
G01*
X113811400Y-106370400D01*
X113811400Y-105670400D01*
X116081400Y-105670400D01*
X116081400Y-106370400D01*
G37*
G36*
X185964000Y-90960400D02*
G01*
X184264000Y-90960400D01*
X184264000Y-89330400D01*
X185964000Y-89330400D01*
X185964000Y-90960400D01*
G37*
G36*
X183308300Y-79370700D02*
G01*
X181998300Y-79370700D01*
X181998300Y-77980700D01*
X183308300Y-77980700D01*
X183308300Y-79370700D01*
G37*
G36*
X186352100Y-104505100D02*
G01*
X184352100Y-104505100D01*
X184352100Y-103805100D01*
X186352100Y-103805100D01*
X186352100Y-104505100D01*
G37*
D11*
X169041100Y-80580700D02*
G75*
G03*
X169041100Y-80580700I-397500J0D01*
G01*
D10*
G36*
X147766800Y-110130400D02*
G01*
X145546800Y-110130400D01*
X145546800Y-109530400D01*
X147766800Y-109530400D01*
X147766800Y-110130400D01*
G37*
G36*
X145063900Y-134930900D02*
G01*
X143533900Y-134930900D01*
X143533900Y-125930900D01*
X145063900Y-125930900D01*
X145063900Y-134930900D01*
G37*
G36*
X126914600Y-101971000D02*
G01*
X126314600Y-101971000D01*
X126314600Y-99751000D01*
X126914600Y-99751000D01*
X126914600Y-101971000D01*
G37*
D12*
X105718300Y-121696900D02*
G75*
G03*
X105718300Y-121696900I-1170000J0D01*
G01*
D10*
G36*
X190122400Y-122285100D02*
G01*
X188122400Y-122285100D01*
X188122400Y-121585100D01*
X190122400Y-121585100D01*
X190122400Y-122285100D01*
G37*
G36*
X113351800Y-115410400D02*
G01*
X112651800Y-115410400D01*
X112651800Y-113140400D01*
X113351800Y-113140400D01*
X113351800Y-115410400D01*
G37*
G36*
X107120800Y-77905700D02*
G01*
X106420800Y-77905700D01*
X106420800Y-75635700D01*
X107120800Y-75635700D01*
X107120800Y-77905700D01*
G37*
G36*
X108136800Y-118940100D02*
G01*
X106436800Y-118940100D01*
X106436800Y-117310100D01*
X108136800Y-117310100D01*
X108136800Y-118940100D01*
G37*
G36*
X123795500Y-111122600D02*
G01*
X121575500Y-111122600D01*
X121575500Y-110522600D01*
X123795500Y-110522600D01*
X123795500Y-111122600D01*
G37*
D11*
X174121100Y-85660700D02*
G75*
G03*
X174121100Y-85660700I-397500J0D01*
G01*
D10*
G36*
X104651400Y-108910400D02*
G01*
X102381400Y-108910400D01*
X102381400Y-108210400D01*
X104651400Y-108210400D01*
X104651400Y-108910400D01*
G37*
G36*
X165237900Y-134938900D02*
G01*
X163707900Y-134938900D01*
X163707900Y-125938900D01*
X165237900Y-125938900D01*
X165237900Y-134938900D01*
G37*
G36*
X152428000Y-111915400D02*
G01*
X150728000Y-111915400D01*
X150728000Y-110285400D01*
X152428000Y-110285400D01*
X152428000Y-111915400D01*
G37*
G36*
X186352100Y-103235100D02*
G01*
X184352100Y-103235100D01*
X184352100Y-102535100D01*
X186352100Y-102535100D01*
X186352100Y-103235100D01*
G37*
G36*
X110970500Y-91875700D02*
G01*
X110270500Y-91875700D01*
X110270500Y-89605700D01*
X110970500Y-89605700D01*
X110970500Y-91875700D01*
G37*
G36*
X195440500Y-76485700D02*
G01*
X193440500Y-76485700D01*
X193440500Y-75785700D01*
X195440500Y-75785700D01*
X195440500Y-76485700D01*
G37*
G36*
X116200500Y-81565700D02*
G01*
X113930500Y-81565700D01*
X113930500Y-80865700D01*
X116200500Y-80865700D01*
X116200500Y-81565700D01*
G37*
D12*
X109568000Y-67880700D02*
G75*
G03*
X109568000Y-67880700I-1170000J0D01*
G01*
D10*
G36*
X180676800Y-101925400D02*
G01*
X178676800Y-101925400D01*
X178676800Y-101225400D01*
X180676800Y-101225400D01*
X180676800Y-101925400D01*
G37*
G36*
X137499200Y-134932700D02*
G01*
X135969200Y-134932700D01*
X135969200Y-125932700D01*
X137499200Y-125932700D01*
X137499200Y-134932700D01*
G37*
G36*
X139019300Y-101971000D02*
G01*
X138419300Y-101971000D01*
X138419300Y-99751000D01*
X139019300Y-99751000D01*
X139019300Y-101971000D01*
G37*
G36*
X183308300Y-77465700D02*
G01*
X181998300Y-77465700D01*
X181998300Y-76075700D01*
X183308300Y-76075700D01*
X183308300Y-77465700D01*
G37*
G36*
X190122400Y-110815400D02*
G01*
X188122400Y-110815400D01*
X188122400Y-110115400D01*
X190122400Y-110115400D01*
X190122400Y-110815400D01*
G37*
G36*
X131994600Y-101971000D02*
G01*
X131394600Y-101971000D01*
X131394600Y-99751000D01*
X131994600Y-99751000D01*
X131994600Y-101971000D01*
G37*
G36*
X147766800Y-116162900D02*
G01*
X145546800Y-116162900D01*
X145546800Y-115562900D01*
X147766800Y-115562900D01*
X147766800Y-116162900D01*
G37*
G36*
X109541800Y-115410400D02*
G01*
X108841800Y-115410400D01*
X108841800Y-113140400D01*
X109541800Y-113140400D01*
X109541800Y-115410400D01*
G37*
G36*
X147766800Y-115170700D02*
G01*
X145546800Y-115170700D01*
X145546800Y-114570700D01*
X147766800Y-114570700D01*
X147766800Y-115170700D01*
G37*
D11*
X174121100Y-83120700D02*
G75*
G03*
X174121100Y-83120700I-397500J0D01*
G01*
D10*
G36*
X116081400Y-110180400D02*
G01*
X113811400Y-110180400D01*
X113811400Y-109480400D01*
X116081400Y-109480400D01*
X116081400Y-110180400D01*
G37*
G36*
X190122400Y-119745100D02*
G01*
X188122400Y-119745100D01*
X188122400Y-119045100D01*
X190122400Y-119045100D01*
X190122400Y-119745100D01*
G37*
G36*
X193925800Y-90424500D02*
G01*
X192335800Y-90424500D01*
X192335800Y-88834500D01*
X193925800Y-88834500D01*
X193925800Y-90424500D01*
G37*
G36*
X128899000Y-119830400D02*
G01*
X128299000Y-119830400D01*
X128299000Y-117610400D01*
X128899000Y-117610400D01*
X128899000Y-119830400D01*
G37*
G36*
X170280900Y-134913900D02*
G01*
X168750900Y-134913900D01*
X168750900Y-125913900D01*
X170280900Y-125913900D01*
X170280900Y-134913900D01*
G37*
G36*
X104651400Y-111450400D02*
G01*
X102381400Y-111450400D01*
X102381400Y-110750400D01*
X104651400Y-110750400D01*
X104651400Y-111450400D01*
G37*
G36*
X158420800Y-111915400D02*
G01*
X156720800Y-111915400D01*
X156720800Y-110285400D01*
X158420800Y-110285400D01*
X158420800Y-111915400D01*
G37*
G36*
X186352100Y-101925400D02*
G01*
X184352100Y-101925400D01*
X184352100Y-101225400D01*
X186352100Y-101225400D01*
X186352100Y-101925400D01*
G37*
G36*
X185054600Y-85125400D02*
G01*
X183744600Y-85125400D01*
X183744600Y-83735400D01*
X185054600Y-83735400D01*
X185054600Y-85125400D01*
G37*
G36*
X104730800Y-82835700D02*
G01*
X102460800Y-82835700D01*
X102460800Y-82135700D01*
X104730800Y-82135700D01*
X104730800Y-82835700D01*
G37*
G36*
X137987400Y-119830400D02*
G01*
X137387400Y-119830400D01*
X137387400Y-117610400D01*
X137987400Y-117610400D01*
X137987400Y-119830400D01*
G37*
G36*
X136995200Y-119830400D02*
G01*
X136395200Y-119830400D01*
X136395200Y-117610400D01*
X136995200Y-117610400D01*
X136995200Y-119830400D01*
G37*
G36*
X111351400Y-118940100D02*
G01*
X109651400Y-118940100D01*
X109651400Y-117310100D01*
X111351400Y-117310100D01*
X111351400Y-118940100D01*
G37*
G36*
X123795500Y-112154500D02*
G01*
X121575500Y-112154500D01*
X121575500Y-111554500D01*
X123795500Y-111554500D01*
X123795500Y-112154500D01*
G37*
G36*
X144059600Y-101971000D02*
G01*
X143459600Y-101971000D01*
X143459600Y-99751000D01*
X144059600Y-99751000D01*
X144059600Y-101971000D01*
G37*
G36*
X177847200Y-134893700D02*
G01*
X176317200Y-134893700D01*
X176317200Y-125893700D01*
X177847200Y-125893700D01*
X177847200Y-134893700D01*
G37*
G36*
X133979000Y-101971000D02*
G01*
X133379000Y-101971000D01*
X133379000Y-99751000D01*
X133979000Y-99751000D01*
X133979000Y-101971000D01*
G37*
G36*
X180369200Y-134952700D02*
G01*
X178839200Y-134952700D01*
X178839200Y-125952700D01*
X180369200Y-125952700D01*
X180369200Y-134952700D01*
G37*
G36*
X189725500Y-79065400D02*
G01*
X187725500Y-79065400D01*
X187725500Y-78365400D01*
X189725500Y-78365400D01*
X189725500Y-79065400D01*
G37*
G36*
X180676800Y-108275400D02*
G01*
X178676800Y-108275400D01*
X178676800Y-107575400D01*
X180676800Y-107575400D01*
X180676800Y-108275400D01*
G37*
G36*
X198410500Y-90424500D02*
G01*
X196820500Y-90424500D01*
X196820500Y-88834500D01*
X198410500Y-88834500D01*
X198410500Y-90424500D01*
G37*
G36*
X180597400Y-119745100D02*
G01*
X178597400Y-119745100D01*
X178597400Y-119045100D01*
X180597400Y-119045100D01*
X180597400Y-119745100D01*
G37*
G36*
X123795500Y-115170700D02*
G01*
X121575500Y-115170700D01*
X121575500Y-114570700D01*
X123795500Y-114570700D01*
X123795500Y-115170700D01*
G37*
G36*
X104730800Y-89185700D02*
G01*
X102460800Y-89185700D01*
X102460800Y-88485700D01*
X104730800Y-88485700D01*
X104730800Y-89185700D01*
G37*
G36*
X105692100Y-115410400D02*
G01*
X104992100Y-115410400D01*
X104992100Y-113140400D01*
X105692100Y-113140400D01*
X105692100Y-115410400D01*
G37*
G36*
X198370800Y-96774500D02*
G01*
X196780800Y-96774500D01*
X196780800Y-95184500D01*
X198370800Y-95184500D01*
X198370800Y-96774500D01*
G37*
G36*
X189725500Y-84185100D02*
G01*
X187725500Y-84185100D01*
X187725500Y-83485100D01*
X189725500Y-83485100D01*
X189725500Y-84185100D01*
G37*
G36*
X134931400Y-119830400D02*
G01*
X134331400Y-119830400D01*
X134331400Y-117610400D01*
X134931400Y-117610400D01*
X134931400Y-119830400D01*
G37*
G36*
X112240500Y-91875700D02*
G01*
X111540500Y-91875700D01*
X111540500Y-89605700D01*
X112240500Y-89605700D01*
X112240500Y-91875700D01*
G37*
G36*
X190122400Y-114665100D02*
G01*
X188122400Y-114665100D01*
X188122400Y-113965100D01*
X190122400Y-113965100D01*
X190122400Y-114665100D01*
G37*
G36*
X144019900Y-119830400D02*
G01*
X143419900Y-119830400D01*
X143419900Y-117610400D01*
X144019900Y-117610400D01*
X144019900Y-119830400D01*
G37*
G36*
X104730800Y-85375700D02*
G01*
X102460800Y-85375700D01*
X102460800Y-84675700D01*
X104730800Y-84675700D01*
X104730800Y-85375700D01*
G37*
G36*
X129932900Y-134952900D02*
G01*
X128402900Y-134952900D01*
X128402900Y-125952900D01*
X129932900Y-125952900D01*
X129932900Y-134952900D01*
G37*
G36*
X116200500Y-82835700D02*
G01*
X113930500Y-82835700D01*
X113930500Y-82135700D01*
X116200500Y-82135700D01*
X116200500Y-82835700D01*
G37*
G36*
X104651400Y-112720400D02*
G01*
X102381400Y-112720400D01*
X102381400Y-112020400D01*
X104651400Y-112020400D01*
X104651400Y-112720400D01*
G37*
G36*
X132947100Y-119830400D02*
G01*
X132347100Y-119830400D01*
X132347100Y-117610400D01*
X132947100Y-117610400D01*
X132947100Y-119830400D01*
G37*
G36*
X105811100Y-91875700D02*
G01*
X105111100Y-91875700D01*
X105111100Y-89605700D01*
X105811100Y-89605700D01*
X105811100Y-91875700D01*
G37*
G36*
X131954900Y-119830400D02*
G01*
X131354900Y-119830400D01*
X131354900Y-117610400D01*
X131954900Y-117610400D01*
X131954900Y-119830400D01*
G37*
G36*
X150106900Y-134905900D02*
G01*
X148576900Y-134905900D01*
X148576900Y-125905900D01*
X150106900Y-125905900D01*
X150106900Y-134905900D01*
G37*
G36*
X195440500Y-77795400D02*
G01*
X193440500Y-77795400D01*
X193440500Y-77095400D01*
X195440500Y-77095400D01*
X195440500Y-77795400D01*
G37*
G36*
X186352100Y-107005400D02*
G01*
X184352100Y-107005400D01*
X184352100Y-106305400D01*
X186352100Y-106305400D01*
X186352100Y-107005400D01*
G37*
G36*
X189725500Y-77795400D02*
G01*
X187725500Y-77795400D01*
X187725500Y-77095400D01*
X189725500Y-77095400D01*
X189725500Y-77795400D01*
G37*
G36*
X133939300Y-119830400D02*
G01*
X133339300Y-119830400D01*
X133339300Y-117610400D01*
X133939300Y-117610400D01*
X133939300Y-119830400D01*
G37*
G36*
X147766800Y-111122600D02*
G01*
X145546800Y-111122600D01*
X145546800Y-110522600D01*
X147766800Y-110522600D01*
X147766800Y-111122600D01*
G37*
G36*
X185054600Y-86990700D02*
G01*
X183744600Y-86990700D01*
X183744600Y-85600700D01*
X185054600Y-85600700D01*
X185054600Y-86990700D01*
G37*
G36*
X123835200Y-104097900D02*
G01*
X121615200Y-104097900D01*
X121615200Y-103497900D01*
X123835200Y-103497900D01*
X123835200Y-104097900D01*
G37*
G36*
X180597400Y-110815400D02*
G01*
X178597400Y-110815400D01*
X178597400Y-110115400D01*
X180597400Y-110115400D01*
X180597400Y-110815400D01*
G37*
G36*
X180676800Y-107005400D02*
G01*
X178676800Y-107005400D01*
X178676800Y-106305400D01*
X180676800Y-106305400D01*
X180676800Y-107005400D01*
G37*
G36*
X183268600Y-85125400D02*
G01*
X181958600Y-85125400D01*
X181958600Y-83735400D01*
X183268600Y-83735400D01*
X183268600Y-85125400D01*
G37*
G36*
X123835200Y-105090100D02*
G01*
X121615200Y-105090100D01*
X121615200Y-104490100D01*
X123835200Y-104490100D01*
X123835200Y-105090100D01*
G37*
G36*
X189725500Y-82915100D02*
G01*
X187725500Y-82915100D01*
X187725500Y-82215100D01*
X189725500Y-82215100D01*
X189725500Y-82915100D01*
G37*
G36*
X140019900Y-134945900D02*
G01*
X138489900Y-134945900D01*
X138489900Y-125945900D01*
X140019900Y-125945900D01*
X140019900Y-134945900D01*
G37*
G36*
X123795500Y-110130400D02*
G01*
X121575500Y-110130400D01*
X121575500Y-109530400D01*
X123795500Y-109530400D01*
X123795500Y-110130400D01*
G37*
G36*
X104730800Y-80256000D02*
G01*
X102460800Y-80256000D01*
X102460800Y-79556000D01*
X104730800Y-79556000D01*
X104730800Y-80256000D01*
G37*
G36*
X116081400Y-105100400D02*
G01*
X113811400Y-105100400D01*
X113811400Y-104400400D01*
X116081400Y-104400400D01*
X116081400Y-105100400D01*
G37*
G36*
X123835200Y-107074500D02*
G01*
X121615200Y-107074500D01*
X121615200Y-106474500D01*
X123835200Y-106474500D01*
X123835200Y-107074500D01*
G37*
G36*
X116200500Y-84066000D02*
G01*
X113930500Y-84066000D01*
X113930500Y-83366000D01*
X116200500Y-83366000D01*
X116200500Y-84066000D01*
G37*
D11*
X174121100Y-78040700D02*
G75*
G03*
X174121100Y-78040700I-397500J0D01*
G01*
D10*
G36*
X183268600Y-86990700D02*
G01*
X181958600Y-86990700D01*
X181958600Y-85600700D01*
X183268600Y-85600700D01*
X183268600Y-86990700D01*
G37*
G36*
X136003000Y-119830400D02*
G01*
X135403000Y-119830400D01*
X135403000Y-117610400D01*
X136003000Y-117610400D01*
X136003000Y-119830400D01*
G37*
G36*
X180597400Y-117205100D02*
G01*
X178597400Y-117205100D01*
X178597400Y-116505100D01*
X180597400Y-116505100D01*
X180597400Y-117205100D01*
G37*
G36*
X137034900Y-101971000D02*
G01*
X136434900Y-101971000D01*
X136434900Y-99751000D01*
X137034900Y-99751000D01*
X137034900Y-101971000D01*
G37*
G36*
X113375500Y-73775700D02*
G01*
X111675500Y-73775700D01*
X111675500Y-72145700D01*
X113375500Y-72145700D01*
X113375500Y-73775700D01*
G37*
G36*
X113391400Y-101440400D02*
G01*
X112691400Y-101440400D01*
X112691400Y-99170400D01*
X113391400Y-99170400D01*
X113391400Y-101440400D01*
G37*
G36*
X172803200Y-134908700D02*
G01*
X171273200Y-134908700D01*
X171273200Y-125908700D01*
X172803200Y-125908700D01*
X172803200Y-134908700D01*
G37*
G36*
X116200500Y-80256000D02*
G01*
X113930500Y-80256000D01*
X113930500Y-79556000D01*
X116200500Y-79556000D01*
X116200500Y-80256000D01*
G37*
G36*
X116081400Y-111450400D02*
G01*
X113811400Y-111450400D01*
X113811400Y-110750400D01*
X116081400Y-110750400D01*
X116081400Y-111450400D01*
G37*
G36*
X175324900Y-134898900D02*
G01*
X173794900Y-134898900D01*
X173794900Y-125898900D01*
X175324900Y-125898900D01*
X175324900Y-134898900D01*
G37*
G36*
X107001800Y-101440400D02*
G01*
X106301800Y-101440400D01*
X106301800Y-99170400D01*
X107001800Y-99170400D01*
X107001800Y-101440400D01*
G37*
G36*
X125882700Y-119830400D02*
G01*
X125282700Y-119830400D01*
X125282700Y-117610400D01*
X125882700Y-117610400D01*
X125882700Y-119830400D01*
G37*
G36*
X180676800Y-104505100D02*
G01*
X178676800Y-104505100D01*
X178676800Y-103805100D01*
X180676800Y-103805100D01*
X180676800Y-104505100D01*
G37*
D13*
%TO.C,J1*%
X134211000Y-94231700D03*
X136981000Y-94231700D03*
X139751000Y-94231700D03*
X142521000Y-94231700D03*
X145291000Y-94231700D03*
X148061000Y-94231700D03*
X150831000Y-94231700D03*
X153601000Y-94231700D03*
X156371000Y-94231700D03*
X159141000Y-94231700D03*
X161911000Y-94231700D03*
X164681000Y-94231700D03*
X132826000Y-91391700D03*
X135596000Y-91391700D03*
X138366000Y-91391700D03*
X141136000Y-91391700D03*
X143906000Y-91391700D03*
X146676000Y-91391700D03*
X149446000Y-91391700D03*
X152216000Y-91391700D03*
X154986000Y-91391700D03*
X157756000Y-91391700D03*
X160526000Y-91391700D03*
X163296000Y-91391700D03*
D14*
X166066000Y-91391700D03*
%TD*%
D15*
%TO.C,R5*%
X182654000Y-74866000D03*
X184440000Y-74867000D03*
%TD*%
D16*
%TO.C,J2*%
X119026000Y-69080000D03*
X121544000Y-69094000D03*
X124069000Y-69082000D03*
X126596000Y-69076000D03*
X129115000Y-69090000D03*
X131634000Y-69076000D03*
X134157000Y-69065000D03*
X136676000Y-69051000D03*
X139195000Y-69079000D03*
X141723000Y-69079000D03*
X144248000Y-69070000D03*
X146769000Y-69062000D03*
X149293000Y-69046000D03*
X151813000Y-69019000D03*
X154333000Y-69031000D03*
X156852000Y-69017000D03*
X159370000Y-69083000D03*
X161894000Y-69077000D03*
X164420000Y-69067000D03*
X166938000Y-69063000D03*
X169458000Y-69048000D03*
X171977000Y-69048000D03*
X174507000Y-69032000D03*
X177033000Y-69031000D03*
X179552000Y-69090000D03*
%TD*%
D17*
%TO.C,R1*%
X157567000Y-111096900D03*
X160794000Y-111103900D03*
%TD*%
D15*
%TO.C,R4*%
X182656000Y-72961000D03*
X184442000Y-72962000D03*
%TD*%
D18*
%TO.C,SW1*%
X193086500Y-95977500D03*
X193126500Y-89627500D03*
X197572500Y-95980500D03*
X197611500Y-89628500D03*
%TD*%
D15*
%TO.C,R8*%
X182652000Y-80578000D03*
X184438000Y-80579000D03*
%TD*%
D14*
%TO.C,U3*%
X168639500Y-75512500D03*
D13*
X168639500Y-78052500D03*
X168639500Y-80592500D03*
X168639500Y-83132500D03*
X168639500Y-85672500D03*
X173719500Y-85672500D03*
X173719500Y-83132500D03*
X173719500Y-80592500D03*
X173719500Y-78052500D03*
X173719500Y-75512500D03*
%TD*%
D19*
%TO.C,C3*%
X151578400Y-111101100D03*
X154796400Y-111101100D03*
%TD*%
D20*
%TO.C,U2*%
X109210500Y-114259000D03*
X110479500Y-114258000D03*
X111789500Y-114257000D03*
X113059500Y-114257000D03*
D21*
X114922500Y-112352000D03*
X114925500Y-111122000D03*
X114923500Y-109815000D03*
X114924500Y-108544000D03*
X114926500Y-107312000D03*
X114923500Y-106001000D03*
X114924500Y-104733000D03*
X114924500Y-103462000D03*
X114924500Y-102194000D03*
D20*
X113099500Y-100288000D03*
X111829500Y-100289000D03*
X110519500Y-100287000D03*
X109248500Y-100285000D03*
X107937500Y-100288000D03*
X106671500Y-100285000D03*
X105440500Y-100287000D03*
D21*
X103494500Y-102193000D03*
X103494500Y-103465000D03*
X103493500Y-104733000D03*
X103494500Y-106004000D03*
X103495500Y-107311000D03*
X103494500Y-108543000D03*
X103497500Y-109812000D03*
X103494500Y-111124000D03*
X103493500Y-112355000D03*
D20*
X105398500Y-114259000D03*
X106629500Y-114256000D03*
X107900500Y-114257000D03*
%TD*%
D15*
%TO.C,R7*%
X182652000Y-78675000D03*
X184438000Y-78676000D03*
%TD*%
D22*
%TO.C,U5*%
X185364500Y-107986000D03*
X185363500Y-106719000D03*
X185369500Y-105405000D03*
X185362500Y-104179000D03*
X185362500Y-102868000D03*
X185363500Y-101596000D03*
X185361500Y-100286000D03*
X179648500Y-100284000D03*
X179648500Y-101595000D03*
X179650500Y-102865000D03*
X179646500Y-104177000D03*
X179647500Y-105403000D03*
X179648500Y-106711000D03*
X179648500Y-107983000D03*
%TD*%
D16*
%TO.C,J4*%
X119072000Y-130450000D03*
X121590000Y-130464000D03*
X124115000Y-130452000D03*
X126642000Y-130446000D03*
X129161000Y-130460000D03*
X131680000Y-130446000D03*
X134203000Y-130435000D03*
X136722000Y-130421000D03*
X139241000Y-130449000D03*
X141769000Y-130449000D03*
X144294000Y-130440000D03*
X146815000Y-130432000D03*
X149339000Y-130416000D03*
X151859000Y-130389000D03*
X154379000Y-130401000D03*
X156898000Y-130387000D03*
X159416000Y-130453000D03*
X161940000Y-130447000D03*
X164466000Y-130437000D03*
X166984000Y-130433000D03*
X169504000Y-130418000D03*
X172023000Y-130418000D03*
X174553000Y-130402000D03*
X177079000Y-130401000D03*
X179598000Y-130460000D03*
%TD*%
D19*
%TO.C,C1*%
X109306400Y-72963100D03*
X112524400Y-72963100D03*
%TD*%
D15*
%TO.C,R10*%
X182616000Y-84428000D03*
X184402000Y-84429000D03*
%TD*%
D22*
%TO.C,U6*%
X189124000Y-121938000D03*
X189121000Y-120668000D03*
X189121000Y-119398000D03*
X189121000Y-118168000D03*
X189122000Y-116859000D03*
X189122000Y-115586000D03*
X189120000Y-114317000D03*
X189122000Y-113047000D03*
X189121000Y-111736000D03*
X189121000Y-110468000D03*
X179597000Y-110465000D03*
X179595000Y-111738000D03*
X179597000Y-113046000D03*
X179595000Y-114318000D03*
X179598000Y-115587000D03*
X179595000Y-116855000D03*
X179597000Y-118167000D03*
X179599000Y-119397000D03*
X179596000Y-120666000D03*
X179596000Y-121935000D03*
%TD*%
D17*
%TO.C,R2*%
X187733000Y-72995900D03*
X190960000Y-73002900D03*
%TD*%
D20*
%TO.C,U1*%
X109293000Y-90731000D03*
X110562000Y-90730000D03*
X111872000Y-90729000D03*
X113142000Y-90729000D03*
D21*
X115005000Y-88824000D03*
X115008000Y-87594000D03*
X115006000Y-86287000D03*
X115007000Y-85016000D03*
X115009000Y-83784000D03*
X115006000Y-82473000D03*
X115007000Y-81205000D03*
X115007000Y-79934000D03*
X115007000Y-78666000D03*
D20*
X113182000Y-76760000D03*
X111912000Y-76761000D03*
X110602000Y-76759000D03*
X109331000Y-76757000D03*
X108020000Y-76760000D03*
X106754000Y-76757000D03*
X105523000Y-76759000D03*
D21*
X103577000Y-78665000D03*
X103577000Y-79937000D03*
X103576000Y-81205000D03*
X103577000Y-82476000D03*
X103578000Y-83783000D03*
X103577000Y-85015000D03*
X103580000Y-86284000D03*
X103577000Y-87596000D03*
X103576000Y-88827000D03*
D20*
X105481000Y-90731000D03*
X106712000Y-90728000D03*
X107983000Y-90729000D03*
%TD*%
D15*
%TO.C,R11*%
X182613000Y-86299000D03*
X184399000Y-86300000D03*
%TD*%
D17*
%TO.C,R3*%
X181888000Y-90139900D03*
X185115000Y-90146900D03*
%TD*%
D23*
%TO.C,U7*%
X125579000Y-118720000D03*
X126570000Y-118718000D03*
X127560000Y-118719000D03*
X128597000Y-118718000D03*
X129589000Y-118720000D03*
X130577000Y-118723000D03*
X131648000Y-118722000D03*
X132642000Y-118720000D03*
X133633000Y-118719000D03*
X134628000Y-118719000D03*
X135700000Y-118718000D03*
X136689000Y-118717000D03*
X137685000Y-118718000D03*
X138674000Y-118718000D03*
X139709000Y-118719000D03*
X140701000Y-118715000D03*
X141732000Y-118717000D03*
X142722000Y-118718000D03*
X143716000Y-118719000D03*
D24*
X146655000Y-115862000D03*
X146652000Y-114869000D03*
X146652000Y-113877000D03*
X146654000Y-112847000D03*
X146652000Y-111854000D03*
X146653000Y-110822000D03*
X146653000Y-109829000D03*
X146653000Y-108797000D03*
X146651000Y-107805000D03*
X146692000Y-106773000D03*
X146692000Y-105821000D03*
X146693000Y-104788000D03*
X146691000Y-103796000D03*
D23*
X143753000Y-100865000D03*
X142765000Y-100860000D03*
X141772000Y-100861000D03*
X140739000Y-100860000D03*
X139746000Y-100861000D03*
X138714000Y-100859000D03*
X137722000Y-100862000D03*
X136730000Y-100859000D03*
X135739000Y-100856000D03*
X134667000Y-100863000D03*
X133675000Y-100861000D03*
X132685000Y-100860000D03*
X131688000Y-100858000D03*
X130618000Y-100859000D03*
X129628000Y-100860000D03*
X128632000Y-100859000D03*
X127602000Y-100860000D03*
X126605000Y-100860000D03*
X125616000Y-100860000D03*
D24*
X122720000Y-103794000D03*
X122720000Y-104790000D03*
X122720000Y-105821000D03*
X122720000Y-106777000D03*
X122680000Y-107805000D03*
X122681000Y-108797000D03*
X122681000Y-109830000D03*
X122681000Y-110822000D03*
X122681000Y-111853000D03*
X122680000Y-112845000D03*
X122680000Y-113877000D03*
X122682000Y-114868000D03*
X122682000Y-115862000D03*
%TD*%
D15*
%TO.C,R6*%
X182654000Y-76767000D03*
X184440000Y-76768000D03*
%TD*%
%TO.C,R9*%
X182652000Y-82485000D03*
X184438000Y-82486000D03*
%TD*%
D19*
%TO.C,C2*%
X107284400Y-118120100D03*
X110502400Y-118120100D03*
%TD*%
D22*
%TO.C,U4*%
X194449500Y-83832000D03*
X194448500Y-82565000D03*
X194454500Y-81251000D03*
X194447500Y-80025000D03*
X194447500Y-78714000D03*
X194448500Y-77442000D03*
X194446500Y-76132000D03*
X188733500Y-76130000D03*
X188733500Y-77441000D03*
X188735500Y-78711000D03*
X188731500Y-80023000D03*
X188732500Y-81249000D03*
X188733500Y-82557000D03*
X188733500Y-83829000D03*
%TD*%
M02*
