%TF.GenerationSoftware,KiCad,Pcbnew,(6.0.2)*%
%TF.CreationDate,2022-10-23T12:21:37-05:00*%
%TF.ProjectId,REF1329_Optimized,52454631-3332-4395-9f4f-7074696d697a,rev?*%
%TF.SameCoordinates,Original*%
%TF.FileFunction,Paste,Top*%
%TF.FilePolarity,Positive*%
%FSLAX46Y46*%
G04 Gerber Fmt 4.6, Leading zero omitted, Abs format (unit mm)*
G04 Created by KiCad (PCBNEW (6.0.2)) date 2022-10-23 12:21:37*
%MOMM*%
%LPD*%
G01*
G04 APERTURE LIST*
%ADD10R,1.310000X1.390000*%
%ADD11R,1.530000X6.250000*%
%ADD12R,1.710000X1.630000*%
%ADD13R,1.700000X1.630000*%
%ADD14R,0.700000X2.270000*%
%ADD15R,2.270000X0.700000*%
%ADD16R,2.000000X0.700000*%
%ADD17R,1.530000X9.000000*%
%ADD18R,0.600000X2.250000*%
%ADD19R,2.250000X0.600000*%
G04 APERTURE END LIST*
D10*
%TO.C,R5*%
X182632500Y-74866000D03*
X184418500Y-74867000D03*
%TD*%
D11*
%TO.C,J2*%
X119026000Y-67712000D03*
X121544000Y-67712000D03*
X124069000Y-67712000D03*
X126596000Y-67712000D03*
X129115000Y-67712000D03*
X131634000Y-67712000D03*
X134157000Y-67712000D03*
X136676000Y-67712000D03*
X139195000Y-67712000D03*
X141723000Y-67712000D03*
X144248000Y-67712000D03*
X146769000Y-67712000D03*
X149293000Y-67712000D03*
X151813000Y-67712000D03*
X154333000Y-67712000D03*
X156852000Y-67712000D03*
X159370000Y-67712000D03*
X161894000Y-67712000D03*
X164420000Y-67712000D03*
X166938000Y-67712000D03*
X169458000Y-67712000D03*
X171977000Y-67712000D03*
X174507000Y-67712000D03*
X177033000Y-67712000D03*
X179552000Y-67712000D03*
%TD*%
D12*
%TO.C,R1*%
X157567000Y-111096900D03*
X160794000Y-111103900D03*
%TD*%
D10*
%TO.C,R4*%
X182632500Y-72961000D03*
X184418500Y-72962000D03*
%TD*%
%TO.C,R8*%
X182632500Y-80578000D03*
X184418500Y-80579000D03*
%TD*%
D13*
%TO.C,C3*%
X151578400Y-111101100D03*
X154796400Y-111101100D03*
%TD*%
D14*
%TO.C,U2*%
X109210500Y-114259000D03*
X110479500Y-114258000D03*
X111789500Y-114257000D03*
X113059500Y-114257000D03*
D15*
X114922500Y-112352000D03*
X114925500Y-111122000D03*
X114923500Y-109815000D03*
X114924500Y-108544000D03*
X114926500Y-107312000D03*
X114923500Y-106001000D03*
X114924500Y-104733000D03*
X114924500Y-103462000D03*
X114924500Y-102194000D03*
D14*
X113099500Y-100288000D03*
X111829500Y-100289000D03*
X110519500Y-100287000D03*
X109248500Y-100285000D03*
X107937500Y-100288000D03*
X106671500Y-100285000D03*
X105440500Y-100287000D03*
D15*
X103494500Y-102193000D03*
X103494500Y-103465000D03*
X103493500Y-104733000D03*
X103494500Y-106004000D03*
X103495500Y-107311000D03*
X103494500Y-108543000D03*
X103497500Y-109812000D03*
X103494500Y-111124000D03*
X103493500Y-112355000D03*
D14*
X105398500Y-114259000D03*
X106629500Y-114256000D03*
X107900500Y-114257000D03*
%TD*%
D10*
%TO.C,R7*%
X182632500Y-78675000D03*
X184418500Y-78676000D03*
%TD*%
D16*
%TO.C,U5*%
X185313000Y-107986000D03*
X185312000Y-106719000D03*
X185318000Y-105405000D03*
X185311000Y-104179000D03*
X185311000Y-102868000D03*
X185312000Y-101596000D03*
X185310000Y-100286000D03*
X179597000Y-100284000D03*
X179597000Y-101595000D03*
X179599000Y-102865000D03*
X179595000Y-104177000D03*
X179596000Y-105403000D03*
X179597000Y-106711000D03*
X179597000Y-107983000D03*
%TD*%
D17*
%TO.C,J4*%
X119072000Y-130450000D03*
X121590000Y-130464000D03*
X124115000Y-130452000D03*
X126642000Y-130446000D03*
X129161000Y-130460000D03*
X131680000Y-130446000D03*
X134203000Y-130435000D03*
X136722000Y-130421000D03*
X139241000Y-130449000D03*
X141769000Y-130449000D03*
X144294000Y-130440000D03*
X146815000Y-130432000D03*
X149339000Y-130416000D03*
X151859000Y-130389000D03*
X154379000Y-130401000D03*
X156898000Y-130387000D03*
X159416000Y-130453000D03*
X161940000Y-130447000D03*
X164466000Y-130437000D03*
X166984000Y-130433000D03*
X169504000Y-130418000D03*
X172023000Y-130418000D03*
X174553000Y-130402000D03*
X177079000Y-130401000D03*
X179598000Y-130460000D03*
%TD*%
D13*
%TO.C,C1*%
X109306400Y-72963100D03*
X112524400Y-72963100D03*
%TD*%
D10*
%TO.C,R10*%
X182632500Y-84428000D03*
X184418500Y-84429000D03*
%TD*%
D16*
%TO.C,U6*%
X189124000Y-121938000D03*
X189121000Y-120668000D03*
X189121000Y-119398000D03*
X189121000Y-118168000D03*
X189122000Y-116859000D03*
X189122000Y-115586000D03*
X189120000Y-114317000D03*
X189122000Y-113047000D03*
X189121000Y-111736000D03*
X189121000Y-110468000D03*
X179597000Y-110465000D03*
X179595000Y-111738000D03*
X179597000Y-113046000D03*
X179595000Y-114318000D03*
X179598000Y-115587000D03*
X179595000Y-116855000D03*
X179597000Y-118167000D03*
X179599000Y-119397000D03*
X179596000Y-120666000D03*
X179596000Y-121935000D03*
%TD*%
D12*
%TO.C,R2*%
X187733000Y-72995900D03*
X190960000Y-73002900D03*
%TD*%
D14*
%TO.C,U1*%
X109210500Y-90731000D03*
X110479500Y-90730000D03*
X111789500Y-90729000D03*
X113059500Y-90729000D03*
D15*
X114922500Y-88824000D03*
X114925500Y-87594000D03*
X114923500Y-86287000D03*
X114924500Y-85016000D03*
X114926500Y-83784000D03*
X114923500Y-82473000D03*
X114924500Y-81205000D03*
X114924500Y-79934000D03*
X114924500Y-78666000D03*
D14*
X113099500Y-76760000D03*
X111829500Y-76761000D03*
X110519500Y-76759000D03*
X109248500Y-76757000D03*
X107937500Y-76760000D03*
X106671500Y-76757000D03*
X105440500Y-76759000D03*
D15*
X103494500Y-78665000D03*
X103494500Y-79937000D03*
X103493500Y-81205000D03*
X103494500Y-82476000D03*
X103495500Y-83783000D03*
X103494500Y-85015000D03*
X103497500Y-86284000D03*
X103494500Y-87596000D03*
X103493500Y-88827000D03*
D14*
X105398500Y-90731000D03*
X106629500Y-90728000D03*
X107900500Y-90729000D03*
%TD*%
D10*
%TO.C,R11*%
X182632500Y-86299000D03*
X184418500Y-86300000D03*
%TD*%
D12*
%TO.C,R3*%
X181888000Y-90139900D03*
X185115000Y-90146900D03*
%TD*%
D18*
%TO.C,U7*%
X125622000Y-118848000D03*
X126622000Y-118848000D03*
X127622000Y-118848000D03*
X128622000Y-118848000D03*
X129622000Y-118848000D03*
X130622000Y-118848000D03*
X131622000Y-118848000D03*
X132622000Y-118848000D03*
X133622000Y-118848000D03*
X134622000Y-118848000D03*
X135622000Y-118848000D03*
X136622000Y-118848000D03*
X137622000Y-118848000D03*
X138622000Y-118848000D03*
X139622000Y-118848000D03*
X140622000Y-118848000D03*
X141622000Y-118848000D03*
X142622000Y-118848000D03*
X143622000Y-118848000D03*
D19*
X146622000Y-115848000D03*
X146622000Y-114848000D03*
X146622000Y-113848000D03*
X146622000Y-112848000D03*
X146622000Y-111848000D03*
X146622000Y-110848000D03*
X146622000Y-109848000D03*
X146622000Y-108848000D03*
X146622000Y-107848000D03*
X146622000Y-106848000D03*
X146622000Y-105848000D03*
X146622000Y-104848000D03*
X146622000Y-103848000D03*
D18*
X143622000Y-100848000D03*
X142622000Y-100848000D03*
X141622000Y-100848000D03*
X140622000Y-100848000D03*
X139622000Y-100848000D03*
X138622000Y-100848000D03*
X137622000Y-100848000D03*
X136622000Y-100848000D03*
X135622000Y-100848000D03*
X134622000Y-100848000D03*
X133622000Y-100848000D03*
X132622000Y-100848000D03*
X131622000Y-100848000D03*
X130622000Y-100848000D03*
X129622000Y-100848000D03*
X128622000Y-100848000D03*
X127622000Y-100848000D03*
X126622000Y-100848000D03*
X125622000Y-100848000D03*
D19*
X122622000Y-103848000D03*
X122622000Y-104848000D03*
X122622000Y-105848000D03*
X122622000Y-106848000D03*
X122622000Y-107848000D03*
X122622000Y-108848000D03*
X122622000Y-109848000D03*
X122622000Y-110848000D03*
X122622000Y-111848000D03*
X122622000Y-112848000D03*
X122622000Y-113848000D03*
X122622000Y-114848000D03*
X122622000Y-115848000D03*
%TD*%
D10*
%TO.C,R6*%
X182632500Y-76767000D03*
X184418500Y-76768000D03*
%TD*%
%TO.C,R9*%
X182632500Y-82485000D03*
X184418500Y-82486000D03*
%TD*%
D13*
%TO.C,C2*%
X107284400Y-118120100D03*
X110502400Y-118120100D03*
%TD*%
D16*
%TO.C,U4*%
X194449500Y-83832000D03*
X194448500Y-82565000D03*
X194454500Y-81251000D03*
X194447500Y-80025000D03*
X194447500Y-78714000D03*
X194448500Y-77442000D03*
X194446500Y-76132000D03*
X188733500Y-76130000D03*
X188733500Y-77441000D03*
X188735500Y-78711000D03*
X188731500Y-80023000D03*
X188732500Y-81249000D03*
X188733500Y-82557000D03*
X188733500Y-83829000D03*
%TD*%
M02*
