%TF.GenerationSoftware,KiCad,Pcbnew,(6.0.2)*%
%TF.CreationDate,2022-05-11T16:43:43-05:00*%
%TF.ProjectId,REF1329_Optimised,52454631-3332-4395-9f4f-7074696d6973,rev?*%
%TF.SameCoordinates,Original*%
%TF.FileFunction,Paste,Top*%
%TF.FilePolarity,Positive*%
%FSLAX46Y46*%
G04 Gerber Fmt 4.6, Leading zero omitted, Abs format (unit mm)*
G04 Created by KiCad (PCBNEW (6.0.2)) date 2022-05-11 16:43:43*
%MOMM*%
%LPD*%
G01*
G04 APERTURE LIST*
%ADD10R,1.310000X1.390000*%
%ADD11R,1.530000X9.000000*%
%ADD12R,1.710000X1.630000*%
%ADD13R,1.700000X1.630000*%
%ADD14R,0.700000X2.270000*%
%ADD15R,2.270000X0.700000*%
%ADD16R,2.000000X0.700000*%
%ADD17R,0.600000X2.220000*%
%ADD18R,2.220000X0.600000*%
G04 APERTURE END LIST*
D10*
%TO.C,R5*%
X182654000Y-74866000D03*
X184440000Y-74867000D03*
%TD*%
D11*
%TO.C,J2*%
X119026000Y-69080000D03*
X121544000Y-69094000D03*
X124069000Y-69082000D03*
X126596000Y-69076000D03*
X129115000Y-69090000D03*
X131634000Y-69076000D03*
X134157000Y-69065000D03*
X136676000Y-69051000D03*
X139195000Y-69079000D03*
X141723000Y-69079000D03*
X144248000Y-69070000D03*
X146769000Y-69062000D03*
X149293000Y-69046000D03*
X151813000Y-69019000D03*
X154333000Y-69031000D03*
X156852000Y-69017000D03*
X159370000Y-69083000D03*
X161894000Y-69077000D03*
X164420000Y-69067000D03*
X166938000Y-69063000D03*
X169458000Y-69048000D03*
X171977000Y-69048000D03*
X174507000Y-69032000D03*
X177033000Y-69031000D03*
X179552000Y-69090000D03*
%TD*%
D12*
%TO.C,R1*%
X157567000Y-111096900D03*
X160794000Y-111103900D03*
%TD*%
D10*
%TO.C,R4*%
X182656000Y-72961000D03*
X184442000Y-72962000D03*
%TD*%
%TO.C,R8*%
X182652000Y-80578000D03*
X184438000Y-80579000D03*
%TD*%
D13*
%TO.C,C3*%
X151578400Y-111101100D03*
X154796400Y-111101100D03*
%TD*%
D14*
%TO.C,U2*%
X109210500Y-114259000D03*
X110479500Y-114258000D03*
X111789500Y-114257000D03*
X113059500Y-114257000D03*
D15*
X114922500Y-112352000D03*
X114925500Y-111122000D03*
X114923500Y-109815000D03*
X114924500Y-108544000D03*
X114926500Y-107312000D03*
X114923500Y-106001000D03*
X114924500Y-104733000D03*
X114924500Y-103462000D03*
X114924500Y-102194000D03*
D14*
X113099500Y-100288000D03*
X111829500Y-100289000D03*
X110519500Y-100287000D03*
X109248500Y-100285000D03*
X107937500Y-100288000D03*
X106671500Y-100285000D03*
X105440500Y-100287000D03*
D15*
X103494500Y-102193000D03*
X103494500Y-103465000D03*
X103493500Y-104733000D03*
X103494500Y-106004000D03*
X103495500Y-107311000D03*
X103494500Y-108543000D03*
X103497500Y-109812000D03*
X103494500Y-111124000D03*
X103493500Y-112355000D03*
D14*
X105398500Y-114259000D03*
X106629500Y-114256000D03*
X107900500Y-114257000D03*
%TD*%
D10*
%TO.C,R7*%
X182652000Y-78675000D03*
X184438000Y-78676000D03*
%TD*%
D16*
%TO.C,U5*%
X185364500Y-107986000D03*
X185363500Y-106719000D03*
X185369500Y-105405000D03*
X185362500Y-104179000D03*
X185362500Y-102868000D03*
X185363500Y-101596000D03*
X185361500Y-100286000D03*
X179648500Y-100284000D03*
X179648500Y-101595000D03*
X179650500Y-102865000D03*
X179646500Y-104177000D03*
X179647500Y-105403000D03*
X179648500Y-106711000D03*
X179648500Y-107983000D03*
%TD*%
D11*
%TO.C,J4*%
X119072000Y-130450000D03*
X121590000Y-130464000D03*
X124115000Y-130452000D03*
X126642000Y-130446000D03*
X129161000Y-130460000D03*
X131680000Y-130446000D03*
X134203000Y-130435000D03*
X136722000Y-130421000D03*
X139241000Y-130449000D03*
X141769000Y-130449000D03*
X144294000Y-130440000D03*
X146815000Y-130432000D03*
X149339000Y-130416000D03*
X151859000Y-130389000D03*
X154379000Y-130401000D03*
X156898000Y-130387000D03*
X159416000Y-130453000D03*
X161940000Y-130447000D03*
X164466000Y-130437000D03*
X166984000Y-130433000D03*
X169504000Y-130418000D03*
X172023000Y-130418000D03*
X174553000Y-130402000D03*
X177079000Y-130401000D03*
X179598000Y-130460000D03*
%TD*%
D13*
%TO.C,C1*%
X109306400Y-72963100D03*
X112524400Y-72963100D03*
%TD*%
D10*
%TO.C,R10*%
X182616000Y-84428000D03*
X184402000Y-84429000D03*
%TD*%
D16*
%TO.C,U6*%
X189124000Y-121938000D03*
X189121000Y-120668000D03*
X189121000Y-119398000D03*
X189121000Y-118168000D03*
X189122000Y-116859000D03*
X189122000Y-115586000D03*
X189120000Y-114317000D03*
X189122000Y-113047000D03*
X189121000Y-111736000D03*
X189121000Y-110468000D03*
X179597000Y-110465000D03*
X179595000Y-111738000D03*
X179597000Y-113046000D03*
X179595000Y-114318000D03*
X179598000Y-115587000D03*
X179595000Y-116855000D03*
X179597000Y-118167000D03*
X179599000Y-119397000D03*
X179596000Y-120666000D03*
X179596000Y-121935000D03*
%TD*%
D12*
%TO.C,R2*%
X187733000Y-72995900D03*
X190960000Y-73002900D03*
%TD*%
D14*
%TO.C,U1*%
X109293000Y-90731000D03*
X110562000Y-90730000D03*
X111872000Y-90729000D03*
X113142000Y-90729000D03*
D15*
X115005000Y-88824000D03*
X115008000Y-87594000D03*
X115006000Y-86287000D03*
X115007000Y-85016000D03*
X115009000Y-83784000D03*
X115006000Y-82473000D03*
X115007000Y-81205000D03*
X115007000Y-79934000D03*
X115007000Y-78666000D03*
D14*
X113182000Y-76760000D03*
X111912000Y-76761000D03*
X110602000Y-76759000D03*
X109331000Y-76757000D03*
X108020000Y-76760000D03*
X106754000Y-76757000D03*
X105523000Y-76759000D03*
D15*
X103577000Y-78665000D03*
X103577000Y-79937000D03*
X103576000Y-81205000D03*
X103577000Y-82476000D03*
X103578000Y-83783000D03*
X103577000Y-85015000D03*
X103580000Y-86284000D03*
X103577000Y-87596000D03*
X103576000Y-88827000D03*
D14*
X105481000Y-90731000D03*
X106712000Y-90728000D03*
X107983000Y-90729000D03*
%TD*%
D10*
%TO.C,R11*%
X182613000Y-86299000D03*
X184399000Y-86300000D03*
%TD*%
D12*
%TO.C,R3*%
X181888000Y-90139900D03*
X185115000Y-90146900D03*
%TD*%
D17*
%TO.C,U7*%
X125579000Y-118720000D03*
X126570000Y-118718000D03*
X127560000Y-118719000D03*
X128597000Y-118718000D03*
X129589000Y-118720000D03*
X130577000Y-118723000D03*
X131648000Y-118722000D03*
X132642000Y-118720000D03*
X133633000Y-118719000D03*
X134628000Y-118719000D03*
X135700000Y-118718000D03*
X136689000Y-118717000D03*
X137685000Y-118718000D03*
X138674000Y-118718000D03*
X139709000Y-118719000D03*
X140701000Y-118715000D03*
X141732000Y-118717000D03*
X142722000Y-118718000D03*
X143716000Y-118719000D03*
D18*
X146655000Y-115862000D03*
X146652000Y-114869000D03*
X146652000Y-113877000D03*
X146654000Y-112847000D03*
X146652000Y-111854000D03*
X146653000Y-110822000D03*
X146653000Y-109829000D03*
X146653000Y-108797000D03*
X146651000Y-107805000D03*
X146692000Y-106773000D03*
X146692000Y-105821000D03*
X146693000Y-104788000D03*
X146691000Y-103796000D03*
D17*
X143753000Y-100865000D03*
X142765000Y-100860000D03*
X141772000Y-100861000D03*
X140739000Y-100860000D03*
X139746000Y-100861000D03*
X138714000Y-100859000D03*
X137722000Y-100862000D03*
X136730000Y-100859000D03*
X135739000Y-100856000D03*
X134667000Y-100863000D03*
X133675000Y-100861000D03*
X132685000Y-100860000D03*
X131688000Y-100858000D03*
X130618000Y-100859000D03*
X129628000Y-100860000D03*
X128632000Y-100859000D03*
X127602000Y-100860000D03*
X126605000Y-100860000D03*
X125616000Y-100860000D03*
D18*
X122720000Y-103794000D03*
X122720000Y-104790000D03*
X122720000Y-105821000D03*
X122720000Y-106777000D03*
X122680000Y-107805000D03*
X122681000Y-108797000D03*
X122681000Y-109830000D03*
X122681000Y-110822000D03*
X122681000Y-111853000D03*
X122680000Y-112845000D03*
X122680000Y-113877000D03*
X122682000Y-114868000D03*
X122682000Y-115862000D03*
%TD*%
D10*
%TO.C,R6*%
X182654000Y-76767000D03*
X184440000Y-76768000D03*
%TD*%
%TO.C,R9*%
X182652000Y-82485000D03*
X184438000Y-82486000D03*
%TD*%
D13*
%TO.C,C2*%
X107284400Y-118120100D03*
X110502400Y-118120100D03*
%TD*%
D16*
%TO.C,U4*%
X194449500Y-83832000D03*
X194448500Y-82565000D03*
X194454500Y-81251000D03*
X194447500Y-80025000D03*
X194447500Y-78714000D03*
X194448500Y-77442000D03*
X194446500Y-76132000D03*
X188733500Y-76130000D03*
X188733500Y-77441000D03*
X188735500Y-78711000D03*
X188731500Y-80023000D03*
X188732500Y-81249000D03*
X188733500Y-82557000D03*
X188733500Y-83829000D03*
%TD*%
M02*
